NotoSerifGeorgian-SemiBold.ufo
<glyph name="acutecomb" format="2">
  <unicode hex="0301"/>
  <anchor x="-50" y="536" name="_top"/>
  <anchor x="-20" y="766" name="top"/>
  <outline>
    <contour>
      <point x="-127" y="606" type="line"/>
      <point x="-59" y="606" type="line"/>
      <point x="4" y="642"/>
      <point x="102" y="721"/>
      <point x="127" y="756" type="curve"/>
      <point x="127" y="766" type="line"/>
      <point x="-30" y="766" type="line"/>
      <point x="-51" y="721"/>
      <point x="-98" y="657"/>
      <point x="-127" y="619" type="curve"/>
    </contour>
  </outline>
</glyph>
<glyph name="circumflexcomb" format="2">
  <unicode hex="0302"/>
  <anchor x="0" y="536" name="_top"/>
  <anchor x="0" y="766" name="top"/>
  <outline>
    <contour>
      <point x="-178" y="606" type="line"/>
      <point x="-109" y="606" type="line"/>
      <point x="-81" y="628"/>
      <point x="-31" y="669"/>
      <point x="-1" y="696" type="curve"/>
      <point x="29" y="669"/>
      <point x="80" y="628"/>
      <point x="108" y="606" type="curve"/>
      <point x="177" y="606" type="line"/>
      <point x="177" y="619" type="line"/>
      <point x="146" y="657"/>
      <point x="88" y="721"/>
      <point x="67" y="766" type="curve"/>
      <point x="-68" y="766" type="line"/>
      <point x="-89" y="721"/>
      <point x="-147" y="657"/>
      <point x="-178" y="619" type="curve"/>
    </contour>
  </outline>
</glyph>
<glyph name="macroncomb" format="2">
  <unicode hex="0304"/>
  <anchor x="0" y="536" name="_top"/>
  <anchor x="0" y="685" name="top"/>
  <outline>
    <contour>
      <point x="-145" y="616" type="line"/>
      <point x="145" y="616" type="line"/>
      <point x="145" y="695" type="line"/>
      <point x="-145" y="695" type="line"/>
    </contour>
  </outline>
</glyph>
<glyph name="dieresiscomb" format="2">
  <unicode hex="0308"/>
  <anchor x="0" y="536" name="_top"/>
  <anchor x="0" y="750" name="top"/>
  <outline>
    <contour>
      <point x="103" y="596" type="curve" smooth="yes"/>
      <point x="133" y="596"/>
      <point x="162" y="613"/>
      <point x="162" y="658" type="curve" smooth="yes"/>
      <point x="162" y="704"/>
      <point x="133" y="720"/>
      <point x="103" y="720" type="curve" smooth="yes"/>
      <point x="71" y="720"/>
      <point x="43" y="704"/>
      <point x="43" y="658" type="curve" smooth="yes"/>
      <point x="43" y="613"/>
      <point x="71" y="596"/>
    </contour>
    <contour>
      <point x="-103" y="596" type="curve" smooth="yes"/>
      <point x="-72" y="596"/>
      <point x="-43" y="613"/>
      <point x="-43" y="658" type="curve" smooth="yes"/>
      <point x="-43" y="704"/>
      <point x="-72" y="720"/>
      <point x="-103" y="720" type="curve" smooth="yes"/>
      <point x="-134" y="720"/>
      <point x="-162" y="704"/>
      <point x="-162" y="658" type="curve" smooth="yes"/>
      <point x="-162" y="613"/>
      <point x="-134" y="596"/>
    </contour>
  </outline>
</glyph>
<glyph name="period-arm" format="2">
  <advance width="304"/>
  <unicode hex="0589"/>
  <note>
uni0589
</note>
  <outline>
    <contour>
      <point x="152" y="345" type="curve" smooth="yes"/>
      <point x="196" y="345"/>
      <point x="234" y="365"/>
      <point x="234" y="425" type="curve" smooth="yes"/>
      <point x="234" y="486"/>
      <point x="196" y="505"/>
      <point x="152" y="505" type="curve" smooth="yes"/>
      <point x="106" y="505"/>
      <point x="70" y="486"/>
      <point x="70" y="425" type="curve" smooth="yes"/>
      <point x="70" y="365"/>
      <point x="106" y="345"/>
    </contour>
    <contour>
      <point x="152" y="-8" type="curve" smooth="yes"/>
      <point x="196" y="-8"/>
      <point x="234" y="12"/>
      <point x="234" y="72" type="curve" smooth="yes"/>
      <point x="234" y="133"/>
      <point x="196" y="152"/>
      <point x="152" y="152" type="curve" smooth="yes"/>
      <point x="106" y="152"/>
      <point x="70" y="133"/>
      <point x="70" y="72" type="curve" smooth="yes"/>
      <point x="70" y="12"/>
      <point x="106" y="-8"/>
    </contour>
  </outline>
</glyph>
<glyph name="An-oldgeorgian" format="2">
  <advance width="755"/>
  <unicode hex="10A0"/>
  <note>
uni10A0
</note>
  <outline>
    <contour>
      <point x="447" y="-13" type="curve" smooth="yes"/>
      <point x="608" y="-13"/>
      <point x="695" y="35"/>
      <point x="695" y="106" type="curve" smooth="yes"/>
      <point x="695" y="159"/>
      <point x="648" y="193"/>
      <point x="570" y="193" type="curve"/>
      <point x="570" y="106"/>
      <point x="528" y="51"/>
      <point x="440" y="51" type="curve" smooth="yes"/>
      <point x="307" y="51"/>
      <point x="253" y="165"/>
      <point x="253" y="328" type="curve" smooth="yes"/>
      <point x="253" y="514"/>
      <point x="336" y="647"/>
      <point x="474" y="653" type="curve" smooth="yes"/>
      <point x="549" y="656"/>
      <point x="575" y="615"/>
      <point x="575" y="546" type="curve"/>
      <point x="648" y="546"/>
      <point x="685" y="579"/>
      <point x="685" y="631" type="curve" smooth="yes"/>
      <point x="685" y="688"/>
      <point x="636" y="727"/>
      <point x="568" y="727" type="curve" smooth="yes"/>
      <point x="506" y="727"/>
      <point x="448" y="705"/>
      <point x="395" y="684" type="curve" smooth="yes"/>
      <point x="344" y="664"/>
      <point x="299" y="642"/>
      <point x="262" y="642" type="curve" smooth="yes"/>
      <point x="180" y="642"/>
      <point x="160" y="662"/>
      <point x="160" y="724" type="curve"/>
      <point x="87" y="724"/>
      <point x="50" y="696"/>
      <point x="50" y="649" type="curve" smooth="yes"/>
      <point x="50" y="602"/>
      <point x="99" y="569"/>
      <point x="167" y="569" type="curve" smooth="yes"/>
      <point x="193" y="569"/>
      <point x="214" y="575"/>
      <point x="246" y="583" type="curve"/>
      <point x="156" y="517"/>
      <point x="85" y="421"/>
      <point x="85" y="288" type="curve" smooth="yes"/>
      <point x="85" y="137"/>
      <point x="199" y="-13"/>
    </contour>
  </outline>
</glyph>
<glyph name="Ban-oldgeorgian" format="2">
  <advance width="821"/>
  <unicode hex="10A1"/>
  <note>
uni10A1
</note>
  <outline>
    <contour>
      <point x="686" y="-132" type="curve"/>
      <point x="758" y="-132"/>
      <point x="806" y="-94"/>
      <point x="806" y="-41" type="curve" smooth="yes"/>
      <point x="806" y="24"/>
      <point x="743" y="62"/>
      <point x="636" y="62" type="curve" smooth="yes"/>
      <point x="613" y="62" type="line"/>
      <point x="613" y="606" type="line" smooth="yes"/>
      <point x="613" y="653"/>
      <point x="635" y="661"/>
      <point x="664" y="661" type="curve" smooth="yes"/>
      <point x="686" y="661" type="line"/>
      <point x="686" y="714" type="line"/>
      <point x="384" y="714" type="line"/>
      <point x="384" y="661" type="line"/>
      <point x="406" y="661" type="line" smooth="yes"/>
      <point x="435" y="661"/>
      <point x="454" y="653"/>
      <point x="454" y="606" type="curve" smooth="yes"/>
      <point x="454" y="464" type="line" smooth="yes"/>
      <point x="454" y="363"/>
      <point x="416" y="312"/>
      <point x="337" y="312" type="curve" smooth="yes"/>
      <point x="254" y="312"/>
      <point x="218" y="358"/>
      <point x="218" y="473" type="curve" smooth="yes"/>
      <point x="218" y="609"/>
      <point x="249" y="661"/>
      <point x="317" y="661" type="curve"/>
      <point x="317" y="679"/>
      <point x="317" y="722"/>
      <point x="259" y="722" type="curve" smooth="yes"/>
      <point x="141" y="722"/>
      <point x="50" y="640"/>
      <point x="50" y="473" type="curve" smooth="yes"/>
      <point x="50" y="315"/>
      <point x="131" y="228"/>
      <point x="278" y="228" type="curve" smooth="yes"/>
      <point x="363" y="228"/>
      <point x="419" y="251"/>
      <point x="456" y="308" type="curve"/>
      <point x="463" y="308" type="line"/>
      <point x="458" y="247"/>
      <point x="455" y="207"/>
      <point x="455" y="187" type="curve" smooth="yes"/>
      <point x="455" y="0" type="line"/>
      <point x="568" y="0" type="line" smooth="yes"/>
      <point x="651" y="0"/>
      <point x="686" y="-34"/>
    </contour>
  </outline>
</glyph>
<glyph name="Gan-oldgeorgian" format="2">
  <advance width="878"/>
  <unicode hex="10A2"/>
  <note>
uni10A2
</note>
  <outline>
    <contour>
      <point x="693" y="62" type="curve" smooth="yes"/>
      <point x="668" y="62" type="line"/>
      <point x="668" y="606" type="line" smooth="yes"/>
      <point x="668" y="653"/>
      <point x="690" y="661"/>
      <point x="719" y="661" type="curve" smooth="yes"/>
      <point x="742" y="661" type="line"/>
      <point x="742" y="714" type="line"/>
      <point x="28" y="714" type="line"/>
      <point x="28" y="661" type="line"/>
      <point x="51" y="661" type="line" smooth="yes"/>
      <point x="80" y="661"/>
      <point x="102" y="653"/>
      <point x="102" y="606" type="curve" smooth="yes"/>
      <point x="102" y="417" type="line" smooth="yes"/>
      <point x="102" y="370"/>
      <point x="80" y="362"/>
      <point x="51" y="362" type="curve" smooth="yes"/>
      <point x="28" y="362" type="line"/>
      <point x="28" y="309" type="line"/>
      <point x="260" y="309" type="line"/>
      <point x="260" y="643" type="line"/>
      <point x="510" y="643" type="line"/>
      <point x="510" y="0" type="line"/>
      <point x="625" y="0" type="line" smooth="yes"/>
      <point x="708" y="0"/>
      <point x="743" y="-34"/>
      <point x="743" y="-132" type="curve"/>
      <point x="815" y="-132"/>
      <point x="863" y="-94"/>
      <point x="863" y="-41" type="curve" smooth="yes"/>
      <point x="863" y="24"/>
      <point x="800" y="62"/>
    </contour>
  </outline>
</glyph>
<glyph name="Don-oldgeorgian" format="2">
  <advance width="787"/>
  <unicode hex="10A3"/>
  <note>
uni10A3
</note>
  <outline>
    <contour>
      <point x="394" y="-13" type="curve" smooth="yes"/>
      <point x="592" y="-13"/>
      <point x="732" y="93"/>
      <point x="732" y="282" type="curve" smooth="yes"/>
      <point x="732" y="441"/>
      <point x="631" y="546"/>
      <point x="452" y="566" type="curve"/>
      <point x="452" y="641" type="line"/>
      <point x="496" y="653"/>
      <point x="532" y="659"/>
      <point x="561" y="659" type="curve" smooth="yes"/>
      <point x="604" y="659"/>
      <point x="627" y="634"/>
      <point x="627" y="597" type="curve"/>
      <point x="700" y="597"/>
      <point x="737" y="618"/>
      <point x="737" y="659" type="curve" smooth="yes"/>
      <point x="737" y="699"/>
      <point x="690" y="727"/>
      <point x="620" y="727" type="curve" smooth="yes"/>
      <point x="552" y="727"/>
      <point x="481" y="706"/>
      <point x="410" y="687" type="curve" smooth="yes"/>
      <point x="337" y="668"/>
      <point x="283" y="662"/>
      <point x="227" y="662" type="curve" smooth="yes"/>
      <point x="181" y="662"/>
      <point x="160" y="687"/>
      <point x="160" y="724" type="curve"/>
      <point x="86" y="724"/>
      <point x="50" y="703"/>
      <point x="50" y="661" type="curve" smooth="yes"/>
      <point x="50" y="622"/>
      <point x="94" y="594"/>
      <point x="167" y="594" type="curve" smooth="yes"/>
      <point x="227" y="594"/>
      <point x="283" y="602"/>
      <point x="335" y="613" type="curve"/>
      <point x="335" y="566" type="line"/>
      <point x="153" y="547"/>
      <point x="55" y="447"/>
      <point x="55" y="283" type="curve" smooth="yes"/>
      <point x="55" y="89"/>
      <point x="191" y="-13"/>
    </contour>
    <contour>
      <point x="394" y="52" type="curve" smooth="yes"/>
      <point x="280" y="52"/>
      <point x="223" y="128"/>
      <point x="223" y="282" type="curve" smooth="yes"/>
      <point x="223" y="436"/>
      <point x="280" y="509"/>
      <point x="395" y="509" type="curve" smooth="yes"/>
      <point x="509" y="509"/>
      <point x="564" y="437"/>
      <point x="564" y="282" type="curve" smooth="yes"/>
      <point x="564" y="127"/>
      <point x="508" y="52"/>
    </contour>
  </outline>
</glyph>
<glyph name="En-oldgeorgian" format="2">
  <advance width="770"/>
  <unicode hex="10A4"/>
  <note>
uni10A4
</note>
  <outline>
    <contour>
      <point x="510" y="0" type="line"/>
      <point x="668" y="0" type="line"/>
      <point x="668" y="606" type="line" smooth="yes"/>
      <point x="668" y="653"/>
      <point x="690" y="661"/>
      <point x="719" y="661" type="curve" smooth="yes"/>
      <point x="742" y="661" type="line"/>
      <point x="742" y="714" type="line"/>
      <point x="28" y="714" type="line"/>
      <point x="28" y="661" type="line"/>
      <point x="51" y="661" type="line" smooth="yes"/>
      <point x="80" y="661"/>
      <point x="102" y="653"/>
      <point x="102" y="606" type="curve" smooth="yes"/>
      <point x="102" y="417" type="line" smooth="yes"/>
      <point x="102" y="370"/>
      <point x="80" y="362"/>
      <point x="51" y="362" type="curve" smooth="yes"/>
      <point x="28" y="362" type="line"/>
      <point x="28" y="309" type="line"/>
      <point x="260" y="309" type="line"/>
      <point x="260" y="643" type="line"/>
      <point x="510" y="643" type="line"/>
    </contour>
  </outline>
</glyph>
<glyph name="Vin-oldgeorgian" format="2">
  <advance width="908"/>
  <unicode hex="10A5"/>
  <note>
uni10A5
</note>
  <outline>
    <contour>
      <point x="716" y="414" type="curve" smooth="yes"/>
      <point x="668" y="414" type="line"/>
      <point x="668" y="606" type="line" smooth="yes"/>
      <point x="668" y="653"/>
      <point x="690" y="661"/>
      <point x="719" y="661" type="curve" smooth="yes"/>
      <point x="742" y="661" type="line"/>
      <point x="742" y="714" type="line"/>
      <point x="28" y="714" type="line"/>
      <point x="28" y="661" type="line"/>
      <point x="51" y="661" type="line" smooth="yes"/>
      <point x="80" y="661"/>
      <point x="102" y="653"/>
      <point x="102" y="606" type="curve" smooth="yes"/>
      <point x="102" y="417" type="line" smooth="yes"/>
      <point x="102" y="370"/>
      <point x="80" y="362"/>
      <point x="51" y="362" type="curve" smooth="yes"/>
      <point x="28" y="362" type="line"/>
      <point x="28" y="309" type="line"/>
      <point x="260" y="309" type="line"/>
      <point x="260" y="643" type="line"/>
      <point x="510" y="643" type="line"/>
      <point x="510" y="0" type="line"/>
      <point x="668" y="0" type="line"/>
      <point x="668" y="352" type="line"/>
      <point x="682" y="352" type="line" smooth="yes"/>
      <point x="749" y="352"/>
      <point x="773" y="323"/>
      <point x="773" y="220" type="curve"/>
      <point x="848" y="220"/>
      <point x="893" y="260"/>
      <point x="893" y="318" type="curve" smooth="yes"/>
      <point x="893" y="385"/>
      <point x="812" y="414"/>
    </contour>
  </outline>
</glyph>
<glyph name="Zen-oldgeorgian" format="2">
  <advance width="746"/>
  <unicode hex="10A6"/>
  <note>
uni10A6
</note>
  <outline>
    <contour>
      <point x="416" y="-13" type="curve" smooth="yes"/>
      <point x="594" y="-13"/>
      <point x="691" y="86"/>
      <point x="691" y="270" type="curve" smooth="yes"/>
      <point x="691" y="455"/>
      <point x="616" y="549"/>
      <point x="471" y="549" type="curve" smooth="yes"/>
      <point x="397" y="549"/>
      <point x="347" y="524"/>
      <point x="312" y="468" type="curve"/>
      <point x="305" y="468" type="line"/>
      <point x="311" y="529"/>
      <point x="313" y="569"/>
      <point x="313" y="589" type="curve" smooth="yes"/>
      <point x="313" y="714" type="line"/>
      <point x="15" y="714" type="line"/>
      <point x="15" y="643" type="line"/>
      <point x="155" y="643" type="line"/>
      <point x="155" y="270" type="line" smooth="yes"/>
      <point x="155" y="87"/>
      <point x="249" y="-13"/>
    </contour>
    <contour>
      <point x="423" y="52" type="curve" smooth="yes"/>
      <point x="347" y="52"/>
      <point x="313" y="108"/>
      <point x="313" y="260" type="curve" smooth="yes"/>
      <point x="313" y="412"/>
      <point x="345" y="465"/>
      <point x="422" y="465" type="curve" smooth="yes"/>
      <point x="494" y="465"/>
      <point x="523" y="397"/>
      <point x="523" y="261" type="curve" smooth="yes"/>
      <point x="523" y="125"/>
      <point x="494" y="52"/>
    </contour>
  </outline>
</glyph>
<glyph name="Tan-oldgeorgian" format="2">
  <advance width="886"/>
  <unicode hex="10A7"/>
  <note>
uni10A7
</note>
  <outline>
    <contour>
      <point x="701" y="414" type="curve" smooth="yes"/>
      <point x="646" y="414" type="line"/>
      <point x="646" y="600" type="line" smooth="yes"/>
      <point x="646" y="653"/>
      <point x="669" y="661"/>
      <point x="697" y="661" type="curve" smooth="yes"/>
      <point x="739" y="661" type="line"/>
      <point x="739" y="714" type="line"/>
      <point x="409" y="714" type="line" smooth="yes"/>
      <point x="188" y="714"/>
      <point x="55" y="597"/>
      <point x="55" y="370" type="curve" smooth="yes"/>
      <point x="55" y="151"/>
      <point x="176" y="0"/>
      <point x="409" y="0" type="curve" smooth="yes"/>
      <point x="739" y="0" type="line"/>
      <point x="739" y="53" type="line"/>
      <point x="697" y="53" type="line" smooth="yes"/>
      <point x="668" y="53"/>
      <point x="646" y="61"/>
      <point x="646" y="118" type="curve" smooth="yes"/>
      <point x="646" y="352" type="line"/>
      <point x="651" y="352" type="line" smooth="yes"/>
      <point x="718" y="352"/>
      <point x="751" y="323"/>
      <point x="751" y="220" type="curve"/>
      <point x="820" y="220"/>
      <point x="871" y="257"/>
      <point x="871" y="304" type="curve" smooth="yes"/>
      <point x="871" y="376"/>
      <point x="810" y="414"/>
    </contour>
    <contour>
      <point x="488" y="62" type="line"/>
      <point x="432" y="62" type="line" smooth="yes"/>
      <point x="295" y="62"/>
      <point x="224" y="179"/>
      <point x="224" y="370" type="curve" smooth="yes"/>
      <point x="224" y="561"/>
      <point x="295" y="653"/>
      <point x="431" y="653" type="curve" smooth="yes"/>
      <point x="488" y="653" type="line"/>
    </contour>
  </outline>
</glyph>
<glyph name="In-oldgeorgian" format="2">
  <advance width="513"/>
  <unicode hex="10A8"/>
  <note>
uni10A8
</note>
  <outline>
    <contour>
      <point x="486" y="714" type="line"/>
      <point x="15" y="714" type="line"/>
      <point x="15" y="643" type="line"/>
      <point x="255" y="643" type="line"/>
      <point x="255" y="0" type="line"/>
      <point x="413" y="0" type="line"/>
      <point x="413" y="606" type="line" smooth="yes"/>
      <point x="413" y="653"/>
      <point x="435" y="661"/>
      <point x="464" y="661" type="curve" smooth="yes"/>
      <point x="486" y="661" type="line"/>
    </contour>
  </outline>
</glyph>
<glyph name="Kan-oldgeorgian" format="2">
  <advance width="728"/>
  <unicode hex="10A9"/>
  <note>
uni10A9
</note>
  <outline>
    <contour>
      <point x="401" y="0" type="line"/>
      <point x="703" y="0" type="line"/>
      <point x="703" y="53" type="line"/>
      <point x="681" y="53" type="line" smooth="yes"/>
      <point x="652" y="53"/>
      <point x="630" y="61"/>
      <point x="630" y="108" type="curve" smooth="yes"/>
      <point x="630" y="349" type="line" smooth="yes"/>
      <point x="630" y="443"/>
      <point x="545" y="548"/>
      <point x="399" y="548" type="curve" smooth="yes"/>
      <point x="329" y="548"/>
      <point x="280" y="529"/>
      <point x="252" y="492" type="curve"/>
      <point x="245" y="492" type="line"/>
      <point x="250" y="535"/>
      <point x="254" y="557"/>
      <point x="254" y="578" type="curve" smooth="yes"/>
      <point x="254" y="606" type="line" smooth="yes"/>
      <point x="254" y="653"/>
      <point x="276" y="661"/>
      <point x="305" y="661" type="curve" smooth="yes"/>
      <point x="327" y="661" type="line"/>
      <point x="327" y="714" type="line"/>
      <point x="25" y="714" type="line"/>
      <point x="25" y="661" type="line"/>
      <point x="47" y="661" type="line" smooth="yes"/>
      <point x="76" y="661"/>
      <point x="95" y="653"/>
      <point x="95" y="606" type="curve" smooth="yes"/>
      <point x="95" y="349" type="line" smooth="yes"/>
      <point x="95" y="254"/>
      <point x="175" y="149"/>
      <point x="326" y="149" type="curve" smooth="yes"/>
      <point x="396" y="149"/>
      <point x="445" y="168"/>
      <point x="473" y="205" type="curve"/>
      <point x="480" y="205" type="line"/>
      <point x="472" y="157"/>
      <point x="471" y="138"/>
      <point x="471" y="128" type="curve" smooth="yes"/>
      <point x="471" y="108" type="line" smooth="yes"/>
      <point x="471" y="61"/>
      <point x="452" y="53"/>
      <point x="423" y="53" type="curve" smooth="yes"/>
      <point x="401" y="53" type="line"/>
    </contour>
    <contour>
      <point x="363" y="214" type="curve" smooth="yes"/>
      <point x="286" y="214"/>
      <point x="253" y="275"/>
      <point x="253" y="349" type="curve" smooth="yes"/>
      <point x="253" y="423"/>
      <point x="285" y="483"/>
      <point x="362" y="483" type="curve" smooth="yes"/>
      <point x="439" y="483"/>
      <point x="472" y="423"/>
      <point x="472" y="349" type="curve" smooth="yes"/>
      <point x="472" y="275"/>
      <point x="440" y="214"/>
    </contour>
  </outline>
</glyph>
<glyph name="Las-oldgeorgian" format="2">
  <advance width="1025"/>
  <unicode hex="10AA"/>
  <note>
uni10AA
</note>
  <outline>
    <contour>
      <point x="701" y="-13" type="curve" smooth="yes"/>
      <point x="878" y="-13"/>
      <point x="975" y="88"/>
      <point x="975" y="270" type="curve" smooth="yes"/>
      <point x="975" y="436"/>
      <point x="890" y="549"/>
      <point x="744" y="549" type="curve" smooth="yes"/>
      <point x="674" y="549"/>
      <point x="632" y="531"/>
      <point x="597" y="493" type="curve"/>
      <point x="590" y="493" type="line"/>
      <point x="595" y="515"/>
      <point x="598" y="539"/>
      <point x="598" y="563" type="curve" smooth="yes"/>
      <point x="598" y="606" type="line" smooth="yes"/>
      <point x="598" y="653"/>
      <point x="620" y="661"/>
      <point x="649" y="661" type="curve" smooth="yes"/>
      <point x="672" y="661" type="line"/>
      <point x="672" y="714" type="line"/>
      <point x="28" y="714" type="line"/>
      <point x="28" y="661" type="line"/>
      <point x="51" y="661" type="line" smooth="yes"/>
      <point x="80" y="661"/>
      <point x="102" y="653"/>
      <point x="102" y="606" type="curve" smooth="yes"/>
      <point x="102" y="417" type="line" smooth="yes"/>
      <point x="102" y="370"/>
      <point x="80" y="362"/>
      <point x="51" y="362" type="curve" smooth="yes"/>
      <point x="28" y="362" type="line"/>
      <point x="28" y="309" type="line"/>
      <point x="260" y="309" type="line"/>
      <point x="260" y="643" type="line"/>
      <point x="440" y="643" type="line"/>
      <point x="440" y="270" type="line" smooth="yes"/>
      <point x="440" y="85"/>
      <point x="534" y="-13"/>
    </contour>
    <contour>
      <point x="703" y="52" type="curve" smooth="yes"/>
      <point x="625" y="52"/>
      <point x="598" y="120"/>
      <point x="598" y="270" type="curve" smooth="yes"/>
      <point x="598" y="386"/>
      <point x="614" y="484"/>
      <point x="702" y="484" type="curve" smooth="yes"/>
      <point x="776" y="484"/>
      <point x="807" y="419"/>
      <point x="807" y="270" type="curve" smooth="yes"/>
      <point x="807" y="115"/>
      <point x="772" y="52"/>
    </contour>
  </outline>
</glyph>
<glyph name="Man-oldgeorgian" format="2">
  <advance width="688"/>
  <unicode hex="10AB"/>
  <note>
uni10AB
</note>
  <outline>
    <contour>
      <point x="301" y="-13" type="curve" smooth="yes"/>
      <point x="478" y="-13"/>
      <point x="566" y="69"/>
      <point x="566" y="237" type="curve" smooth="yes"/>
      <point x="566" y="390" type="line"/>
      <point x="660" y="390" type="line"/>
      <point x="660" y="452" type="line"/>
      <point x="566" y="452" type="line"/>
      <point x="566" y="606" type="line" smooth="yes"/>
      <point x="566" y="653"/>
      <point x="588" y="661"/>
      <point x="617" y="661" type="curve" smooth="yes"/>
      <point x="639" y="661" type="line"/>
      <point x="639" y="714" type="line"/>
      <point x="75" y="714" type="line"/>
      <point x="75" y="643" type="line"/>
      <point x="408" y="643" type="line"/>
      <point x="408" y="452" type="line"/>
      <point x="345" y="452" type="line" smooth="yes"/>
      <point x="138" y="452"/>
      <point x="30" y="373"/>
      <point x="30" y="218" type="curve" smooth="yes"/>
      <point x="30" y="70"/>
      <point x="126" y="-13"/>
    </contour>
    <contour>
      <point x="303" y="52" type="curve" smooth="yes"/>
      <point x="233" y="52"/>
      <point x="198" y="106"/>
      <point x="198" y="218" type="curve" smooth="yes"/>
      <point x="198" y="338"/>
      <point x="228" y="387"/>
      <point x="341" y="387" type="curve" smooth="yes"/>
      <point x="408" y="387" type="line"/>
      <point x="408" y="230" type="line" smooth="yes"/>
      <point x="408" y="112"/>
      <point x="372" y="52"/>
    </contour>
  </outline>
</glyph>
<glyph name="Nar-oldgeorgian" format="2">
  <advance width="772"/>
  <unicode hex="10AC"/>
  <note>
uni10AC
</note>
  <outline>
    <contour>
      <point x="23" y="0" type="line"/>
      <point x="358" y="0" type="line"/>
      <point x="358" y="52" type="line"/>
      <point x="333" y="52" type="line" smooth="yes"/>
      <point x="299" y="52"/>
      <point x="274" y="68"/>
      <point x="274" y="112" type="curve" smooth="yes"/>
      <point x="274" y="272" type="line" smooth="yes"/>
      <point x="274" y="348"/>
      <point x="314" y="408"/>
      <point x="388" y="408" type="curve" smooth="yes"/>
      <point x="458" y="408"/>
      <point x="493" y="370"/>
      <point x="493" y="268" type="curve" smooth="yes"/>
      <point x="493" y="0" type="line"/>
      <point x="744" y="0" type="line"/>
      <point x="744" y="52" type="line"/>
      <point x="710" y="52" type="line" smooth="yes"/>
      <point x="677" y="52"/>
      <point x="651" y="67"/>
      <point x="651" y="111" type="curve" smooth="yes"/>
      <point x="651" y="260" type="line" smooth="yes"/>
      <point x="651" y="409"/>
      <point x="578" y="480"/>
      <point x="434" y="480" type="curve" smooth="yes"/>
      <point x="356" y="480"/>
      <point x="304" y="452"/>
      <point x="277" y="411" type="curve"/>
      <point x="269" y="411" type="line"/>
      <point x="273" y="444"/>
      <point x="274" y="473"/>
      <point x="274" y="498" type="curve" smooth="yes"/>
      <point x="274" y="643" type="line"/>
      <point x="623" y="643" type="line"/>
      <point x="623" y="714" type="line"/>
      <point x="30" y="714" type="line"/>
      <point x="30" y="662" type="line"/>
      <point x="52" y="662" type="line" smooth="yes"/>
      <point x="100" y="662"/>
      <point x="116" y="639"/>
      <point x="116" y="604" type="curve" smooth="yes"/>
      <point x="116" y="112" type="line" smooth="yes"/>
      <point x="116" y="68"/>
      <point x="91" y="52"/>
      <point x="57" y="52" type="curve" smooth="yes"/>
      <point x="23" y="52" type="line"/>
    </contour>
  </outline>
</glyph>
<glyph name="On-oldgeorgian" format="2">
  <advance width="879"/>
  <unicode hex="10AD"/>
  <note>
uni10AD
</note>
  <outline>
    <contour>
      <point x="805" y="220" type="curve" smooth="yes"/>
      <point x="791" y="220"/>
      <point x="771" y="214"/>
      <point x="761" y="206" type="curve"/>
      <point x="776" y="187"/>
      <point x="779" y="171"/>
      <point x="779" y="146" type="curve" smooth="yes"/>
      <point x="779" y="111"/>
      <point x="758" y="77"/>
      <point x="717" y="77" type="curve" smooth="yes"/>
      <point x="692" y="77"/>
      <point x="671" y="86"/>
      <point x="651" y="100" type="curve"/>
      <point x="703" y="164"/>
      <point x="732" y="252"/>
      <point x="732" y="358" type="curve" smooth="yes"/>
      <point x="732" y="588"/>
      <point x="605" y="727"/>
      <point x="395" y="727" type="curve" smooth="yes"/>
      <point x="178" y="727"/>
      <point x="55" y="595"/>
      <point x="55" y="359" type="curve" smooth="yes"/>
      <point x="55" y="133"/>
      <point x="169" y="-13"/>
      <point x="394" y="-13" type="curve" smooth="yes"/>
      <point x="473" y="-13"/>
      <point x="541" y="8"/>
      <point x="595" y="47" type="curve"/>
      <point x="626" y="18"/>
      <point x="678" y="-13"/>
      <point x="747" y="-13" type="curve" smooth="yes"/>
      <point x="816" y="-13"/>
      <point x="890" y="31"/>
      <point x="890" y="109" type="curve" smooth="yes"/>
      <point x="890" y="176"/>
      <point x="854" y="220"/>
    </contour>
    <contour>
      <point x="394" y="52" type="curve" smooth="yes"/>
      <point x="279" y="52"/>
      <point x="223" y="148"/>
      <point x="223" y="358" type="curve" smooth="yes"/>
      <point x="223" y="566"/>
      <point x="278" y="662"/>
      <point x="395" y="662" type="curve" smooth="yes"/>
      <point x="510" y="662"/>
      <point x="564" y="567"/>
      <point x="564" y="358" type="curve" smooth="yes"/>
      <point x="564" y="147"/>
      <point x="510" y="52"/>
    </contour>
  </outline>
</glyph>
<glyph name="Par-oldgeorgian" format="2">
  <advance width="901"/>
  <unicode hex="10AE"/>
  <note>
uni10AE
</note>
  <outline>
    <contour>
      <point x="894" y="714" type="line"/>
      <point x="592" y="714" type="line"/>
      <point x="592" y="661" type="line"/>
      <point x="614" y="661" type="line" smooth="yes"/>
      <point x="643" y="661"/>
      <point x="663" y="653"/>
      <point x="663" y="606" type="curve" smooth="yes"/>
      <point x="663" y="210" type="line" smooth="yes"/>
      <point x="663" y="110"/>
      <point x="618" y="58"/>
      <point x="538" y="58" type="curve" smooth="yes"/>
      <point x="453" y="58"/>
      <point x="413" y="105"/>
      <point x="413" y="210" type="curve" smooth="yes"/>
      <point x="413" y="714" type="line"/>
      <point x="15" y="714" type="line"/>
      <point x="15" y="643" type="line"/>
      <point x="255" y="643" type="line"/>
      <point x="255" y="218" type="line" smooth="yes"/>
      <point x="255" y="62"/>
      <point x="347" y="-13"/>
      <point x="538" y="-13" type="curve" smooth="yes"/>
      <point x="729" y="-13"/>
      <point x="821" y="63"/>
      <point x="821" y="218" type="curve" smooth="yes"/>
      <point x="821" y="606" type="line" smooth="yes"/>
      <point x="821" y="653"/>
      <point x="843" y="661"/>
      <point x="872" y="661" type="curve" smooth="yes"/>
      <point x="894" y="661" type="line"/>
    </contour>
  </outline>
</glyph>
<glyph name="Zhar-oldgeorgian" format="2">
  <advance width="748"/>
  <unicode hex="10AF"/>
  <note>
uni10AF
</note>
  <outline>
    <contour>
      <point x="663" y="108" type="curve" smooth="yes"/>
      <point x="663" y="606" type="line" smooth="yes"/>
      <point x="663" y="653"/>
      <point x="685" y="661"/>
      <point x="714" y="661" type="curve" smooth="yes"/>
      <point x="736" y="661" type="line"/>
      <point x="736" y="714" type="line"/>
      <point x="434" y="714" type="line"/>
      <point x="434" y="661" type="line"/>
      <point x="456" y="661" type="line" smooth="yes"/>
      <point x="485" y="661"/>
      <point x="505" y="653"/>
      <point x="505" y="606" type="curve" smooth="yes"/>
      <point x="505" y="464" type="line" smooth="yes"/>
      <point x="505" y="363"/>
      <point x="466" y="312"/>
      <point x="387" y="312" type="curve" smooth="yes"/>
      <point x="305" y="312"/>
      <point x="268" y="358"/>
      <point x="268" y="473" type="curve" smooth="yes"/>
      <point x="268" y="606"/>
      <point x="297" y="643"/>
      <point x="347" y="661" type="curve"/>
      <point x="347" y="714" type="line"/>
      <point x="15" y="714" type="line"/>
      <point x="15" y="643" type="line"/>
      <point x="184" y="643" type="line"/>
      <point x="129" y="606"/>
      <point x="100" y="537"/>
      <point x="100" y="456" type="curve" smooth="yes"/>
      <point x="100" y="312"/>
      <point x="184" y="228"/>
      <point x="328" y="228" type="curve" smooth="yes"/>
      <point x="414" y="228"/>
      <point x="471" y="253"/>
      <point x="506" y="308" type="curve"/>
      <point x="513" y="308" type="line"/>
      <point x="508" y="261"/>
      <point x="505" y="224"/>
      <point x="505" y="196" type="curve" smooth="yes"/>
      <point x="505" y="108" type="line" smooth="yes"/>
      <point x="505" y="61"/>
      <point x="485" y="53"/>
      <point x="456" y="53" type="curve" smooth="yes"/>
      <point x="434" y="53" type="line"/>
      <point x="434" y="0" type="line"/>
      <point x="736" y="0" type="line"/>
      <point x="736" y="53" type="line"/>
      <point x="714" y="53" type="line" smooth="yes"/>
      <point x="685" y="53"/>
      <point x="663" y="61"/>
    </contour>
  </outline>
</glyph>
<glyph name="Rae-oldgeorgian" format="2">
  <advance width="921"/>
  <unicode hex="10B0"/>
  <note>
uni10B0
</note>
  <outline>
    <contour>
      <point x="303" y="-13" type="curve" smooth="yes"/>
      <point x="464" y="-13"/>
      <point x="560" y="75"/>
      <point x="560" y="224" type="curve" smooth="yes"/>
      <point x="560" y="308" type="line" smooth="yes"/>
      <point x="560" y="383"/>
      <point x="597" y="421"/>
      <point x="647" y="421" type="curve" smooth="yes"/>
      <point x="696" y="421"/>
      <point x="727" y="387"/>
      <point x="727" y="324" type="curve" smooth="yes"/>
      <point x="727" y="278"/>
      <point x="718" y="247"/>
      <point x="692" y="207" type="curve"/>
      <point x="715" y="197"/>
      <point x="736" y="189"/>
      <point x="763" y="189" type="curve" smooth="yes"/>
      <point x="829" y="189"/>
      <point x="876" y="247"/>
      <point x="876" y="328" type="curve" smooth="yes"/>
      <point x="876" y="427"/>
      <point x="797" y="495"/>
      <point x="698" y="495" type="curve" smooth="yes"/>
      <point x="642" y="495"/>
      <point x="593" y="472"/>
      <point x="563" y="433" type="curve"/>
      <point x="555" y="433" type="line"/>
      <point x="559" y="465"/>
      <point x="560" y="494"/>
      <point x="560" y="519" type="curve" smooth="yes"/>
      <point x="560" y="604" type="line" smooth="yes"/>
      <point x="560" y="648"/>
      <point x="582" y="661"/>
      <point x="609" y="661" type="curve" smooth="yes"/>
      <point x="628" y="661" type="line"/>
      <point x="628" y="714" type="line"/>
      <point x="333" y="714" type="line"/>
      <point x="333" y="661" type="line"/>
      <point x="351" y="661" type="line" smooth="yes"/>
      <point x="375" y="661"/>
      <point x="402" y="648"/>
      <point x="402" y="604" type="curve" smooth="yes"/>
      <point x="402" y="206" type="line" smooth="yes"/>
      <point x="402" y="110"/>
      <point x="362" y="53"/>
      <point x="302" y="53" type="curve" smooth="yes"/>
      <point x="238" y="53"/>
      <point x="199" y="105"/>
      <point x="199" y="203" type="curve" smooth="yes"/>
      <point x="199" y="268"/>
      <point x="217" y="315"/>
      <point x="250" y="357" type="curve"/>
      <point x="227" y="367"/>
      <point x="201" y="375"/>
      <point x="173" y="375" type="curve" smooth="yes"/>
      <point x="92" y="375"/>
      <point x="45" y="301"/>
      <point x="45" y="221" type="curve" smooth="yes"/>
      <point x="45" y="76"/>
      <point x="144" y="-13"/>
    </contour>
  </outline>
</glyph>
<glyph name="San-oldgeorgian" format="2">
  <advance width="670"/>
  <unicode hex="10B1"/>
  <note>
uni10B1
</note>
  <outline>
    <contour>
      <point x="368" y="-13" type="curve" smooth="yes"/>
      <point x="527" y="-13"/>
      <point x="625" y="76"/>
      <point x="625" y="221" type="curve" smooth="yes"/>
      <point x="625" y="301"/>
      <point x="578" y="375"/>
      <point x="497" y="375" type="curve" smooth="yes"/>
      <point x="469" y="375"/>
      <point x="443" y="367"/>
      <point x="420" y="357" type="curve"/>
      <point x="453" y="315"/>
      <point x="471" y="268"/>
      <point x="471" y="203" type="curve" smooth="yes"/>
      <point x="471" y="105"/>
      <point x="432" y="53"/>
      <point x="368" y="53" type="curve" smooth="yes"/>
      <point x="308" y="53"/>
      <point x="268" y="110"/>
      <point x="268" y="206" type="curve" smooth="yes"/>
      <point x="268" y="714" type="line"/>
      <point x="16" y="714" type="line"/>
      <point x="16" y="661" type="line"/>
      <point x="59" y="661" type="line" smooth="yes"/>
      <point x="96" y="661"/>
      <point x="110" y="642"/>
      <point x="110" y="600" type="curve" smooth="yes"/>
      <point x="110" y="224" type="line" smooth="yes"/>
      <point x="110" y="75"/>
      <point x="207" y="-13"/>
    </contour>
  </outline>
</glyph>
<glyph name="Tar-oldgeorgian" format="2">
  <advance width="622"/>
  <unicode hex="10B2"/>
  <note>
uni10B2
</note>
  <outline>
    <contour>
      <point x="456" y="-128" type="curve"/>
      <point x="523" y="-128"/>
      <point x="566" y="-93"/>
      <point x="566" y="-37" type="curve" smooth="yes"/>
      <point x="566" y="27"/>
      <point x="507" y="61"/>
      <point x="396" y="61" type="curve" smooth="yes"/>
      <point x="263" y="61" type="line"/>
      <point x="263" y="273" type="line"/>
      <point x="297" y="273" type="line" smooth="yes"/>
      <point x="467" y="273"/>
      <point x="592" y="345"/>
      <point x="592" y="502" type="curve" smooth="yes"/>
      <point x="592" y="639"/>
      <point x="496" y="714"/>
      <point x="319" y="714" type="curve" smooth="yes"/>
      <point x="11" y="714" type="line"/>
      <point x="11" y="661" type="line"/>
      <point x="54" y="661" type="line" smooth="yes"/>
      <point x="91" y="661"/>
      <point x="105" y="643"/>
      <point x="105" y="600" type="curve" smooth="yes"/>
      <point x="105" y="0" type="line"/>
      <point x="330" y="0" type="line" smooth="yes"/>
      <point x="422" y="0"/>
      <point x="456" y="-36"/>
    </contour>
    <contour>
      <point x="263" y="331" type="line"/>
      <point x="263" y="655" type="line"/>
      <point x="302" y="655" type="line" smooth="yes"/>
      <point x="388" y="655"/>
      <point x="424" y="609"/>
      <point x="424" y="498" type="curve" smooth="yes"/>
      <point x="424" y="377"/>
      <point x="385" y="331"/>
      <point x="287" y="331" type="curve" smooth="yes"/>
    </contour>
  </outline>
</glyph>
<glyph name="Un-oldgeorgian" format="2">
  <advance width="787"/>
  <unicode hex="10B3"/>
  <note>
uni10B3
</note>
  <outline>
    <contour>
      <point x="599" y="-175" type="curve" smooth="yes"/>
      <point x="689" y="-175"/>
      <point x="749" y="-121"/>
      <point x="749" y="-40" type="curve" smooth="yes"/>
      <point x="749" y="25"/>
      <point x="711" y="70"/>
      <point x="646" y="93" type="curve"/>
      <point x="703" y="159"/>
      <point x="732" y="248"/>
      <point x="732" y="358" type="curve" smooth="yes"/>
      <point x="732" y="588"/>
      <point x="605" y="727"/>
      <point x="395" y="727" type="curve" smooth="yes"/>
      <point x="178" y="727"/>
      <point x="55" y="595"/>
      <point x="55" y="359" type="curve" smooth="yes"/>
      <point x="55" y="136"/>
      <point x="169" y="-13"/>
      <point x="394" y="-13" type="curve" smooth="yes"/>
      <point x="470" y="-13"/>
      <point x="533" y="7"/>
      <point x="585" y="41" type="curve"/>
      <point x="616" y="32"/>
      <point x="638" y="5"/>
      <point x="638" y="-31" type="curve" smooth="yes"/>
      <point x="638" y="-65"/>
      <point x="615" y="-87"/>
      <point x="583" y="-87" type="curve" smooth="yes"/>
      <point x="552" y="-87"/>
      <point x="528" y="-79"/>
      <point x="512" y="-63" type="curve"/>
      <point x="503" y="-72"/>
      <point x="497" y="-91"/>
      <point x="497" y="-105" type="curve" smooth="yes"/>
      <point x="497" y="-147"/>
      <point x="543" y="-175"/>
    </contour>
    <contour>
      <point x="394" y="52" type="curve" smooth="yes"/>
      <point x="279" y="52"/>
      <point x="223" y="151"/>
      <point x="223" y="358" type="curve" smooth="yes"/>
      <point x="223" y="566"/>
      <point x="278" y="662"/>
      <point x="395" y="662" type="curve" smooth="yes"/>
      <point x="510" y="662"/>
      <point x="564" y="567"/>
      <point x="564" y="358" type="curve" smooth="yes"/>
      <point x="564" y="150"/>
      <point x="510" y="52"/>
    </contour>
  </outline>
</glyph>
<glyph name="Phar-oldgeorgian" format="2">
  <advance width="851"/>
  <unicode hex="10B4"/>
  <note>
uni10B4
</note>
  <outline>
    <contour>
      <point x="352" y="0" type="line"/>
      <point x="498" y="0" type="line"/>
      <point x="498" y="190" type="line"/>
      <point x="691" y="200"/>
      <point x="801" y="296"/>
      <point x="801" y="461" type="curve" smooth="yes"/>
      <point x="801" y="637"/>
      <point x="671" y="727"/>
      <point x="422" y="727" type="curve" smooth="yes"/>
      <point x="176" y="727"/>
      <point x="49" y="637"/>
      <point x="49" y="461" type="curve" smooth="yes"/>
      <point x="49" y="298"/>
      <point x="164" y="198"/>
      <point x="352" y="190" type="curve"/>
    </contour>
    <contour>
      <point x="352" y="249" type="line"/>
      <point x="254" y="255"/>
      <point x="211" y="322"/>
      <point x="211" y="463" type="curve" smooth="yes"/>
      <point x="211" y="591"/>
      <point x="255" y="660"/>
      <point x="352" y="668" type="curve"/>
    </contour>
    <contour>
      <point x="498" y="249" type="curve"/>
      <point x="498" y="668" type="line"/>
      <point x="598" y="659"/>
      <point x="639" y="600"/>
      <point x="639" y="463" type="curve" smooth="yes"/>
      <point x="639" y="326"/>
      <point x="616" y="264"/>
    </contour>
  </outline>
</glyph>
<glyph name="Khar-oldgeorgian" format="2">
  <advance width="658"/>
  <unicode hex="10B5"/>
  <note>
uni10B5
</note>
  <outline>
    <contour>
      <point x="537" y="473" type="curve" smooth="yes"/>
      <point x="499" y="473"/>
      <point x="456" y="466"/>
      <point x="408" y="456" type="curve"/>
      <point x="408" y="606" type="line" smooth="yes"/>
      <point x="408" y="653"/>
      <point x="430" y="661"/>
      <point x="459" y="661" type="curve" smooth="yes"/>
      <point x="481" y="661" type="line"/>
      <point x="481" y="714" type="line"/>
      <point x="179" y="714" type="line"/>
      <point x="179" y="661" type="line"/>
      <point x="201" y="661" type="line" smooth="yes"/>
      <point x="230" y="661"/>
      <point x="250" y="653"/>
      <point x="250" y="606" type="curve" smooth="yes"/>
      <point x="250" y="429" type="line"/>
      <point x="226" y="424"/>
      <point x="201" y="421"/>
      <point x="180" y="421" type="curve" smooth="yes"/>
      <point x="134" y="421"/>
      <point x="115" y="446"/>
      <point x="115" y="516" type="curve"/>
      <point x="55" y="516"/>
      <point x="15" y="484"/>
      <point x="15" y="437" type="curve" smooth="yes"/>
      <point x="15" y="387"/>
      <point x="57" y="353"/>
      <point x="121" y="353" type="curve" smooth="yes"/>
      <point x="168" y="353"/>
      <point x="211" y="359"/>
      <point x="250" y="368" type="curve"/>
      <point x="250" y="0" type="line"/>
      <point x="408" y="0" type="line"/>
      <point x="408" y="395" type="line"/>
      <point x="431" y="402"/>
      <point x="456" y="405"/>
      <point x="477" y="405" type="curve" smooth="yes"/>
      <point x="521" y="405"/>
      <point x="543" y="379"/>
      <point x="543" y="308" type="curve"/>
      <point x="610" y="308"/>
      <point x="643" y="334"/>
      <point x="643" y="387" type="curve" smooth="yes"/>
      <point x="643" y="438"/>
      <point x="602" y="473"/>
    </contour>
  </outline>
</glyph>
<glyph name="Ghan-oldgeorgian" format="2">
  <advance width="766"/>
  <unicode hex="10B6"/>
  <note>
uni10B6
</note>
  <outline>
    <contour>
      <point x="715" y="52" type="line" smooth="yes"/>
      <point x="686" y="52"/>
      <point x="666" y="60"/>
      <point x="666" y="107" type="curve" smooth="yes"/>
      <point x="666" y="499" type="line" smooth="yes"/>
      <point x="666" y="651"/>
      <point x="571" y="727"/>
      <point x="380" y="727" type="curve" smooth="yes"/>
      <point x="198" y="727"/>
      <point x="100" y="646"/>
      <point x="100" y="499" type="curve" smooth="yes"/>
      <point x="100" y="107" type="line" smooth="yes"/>
      <point x="100" y="60"/>
      <point x="80" y="52"/>
      <point x="51" y="52" type="curve" smooth="yes"/>
      <point x="29" y="52" type="line"/>
      <point x="29" y="-1" type="line"/>
      <point x="318" y="-1" type="line"/>
      <point x="318" y="52" type="line"/>
      <point x="306" y="52" type="line" smooth="yes"/>
      <point x="280" y="52"/>
      <point x="258" y="60"/>
      <point x="258" y="107" type="curve" smooth="yes"/>
      <point x="258" y="507" type="line" smooth="yes"/>
      <point x="258" y="604"/>
      <point x="303" y="656"/>
      <point x="383" y="656" type="curve" smooth="yes"/>
      <point x="468" y="656"/>
      <point x="508" y="608"/>
      <point x="508" y="507" type="curve" smooth="yes"/>
      <point x="508" y="107" type="line" smooth="yes"/>
      <point x="508" y="60"/>
      <point x="486" y="52"/>
      <point x="460" y="52" type="curve" smooth="yes"/>
      <point x="448" y="52" type="line"/>
      <point x="448" y="-1" type="line"/>
      <point x="737" y="-1" type="line"/>
      <point x="737" y="52" type="line"/>
    </contour>
  </outline>
</glyph>
<glyph name="Qar-oldgeorgian" format="2">
  <advance width="724"/>
  <unicode hex="10B7"/>
  <note>
uni10B7
</note>
  <outline>
    <contour>
      <point x="384" y="-1" type="line"/>
      <point x="673" y="-1" type="line"/>
      <point x="673" y="52" type="line"/>
      <point x="661" y="52" type="line" smooth="yes"/>
      <point x="635" y="52"/>
      <point x="613" y="60"/>
      <point x="613" y="107" type="curve" smooth="yes"/>
      <point x="613" y="606" type="line" smooth="yes"/>
      <point x="613" y="653"/>
      <point x="635" y="661"/>
      <point x="664" y="661" type="curve" smooth="yes"/>
      <point x="686" y="661" type="line"/>
      <point x="686" y="714" type="line"/>
      <point x="384" y="714" type="line"/>
      <point x="384" y="661" type="line"/>
      <point x="406" y="661" type="line" smooth="yes"/>
      <point x="435" y="661"/>
      <point x="454" y="653"/>
      <point x="454" y="606" type="curve" smooth="yes"/>
      <point x="454" y="464" type="line" smooth="yes"/>
      <point x="454" y="363"/>
      <point x="416" y="312"/>
      <point x="337" y="312" type="curve" smooth="yes"/>
      <point x="254" y="312"/>
      <point x="218" y="358"/>
      <point x="218" y="473" type="curve" smooth="yes"/>
      <point x="218" y="609"/>
      <point x="249" y="661"/>
      <point x="317" y="661" type="curve"/>
      <point x="317" y="679"/>
      <point x="317" y="722"/>
      <point x="259" y="722" type="curve" smooth="yes"/>
      <point x="141" y="722"/>
      <point x="50" y="640"/>
      <point x="50" y="473" type="curve" smooth="yes"/>
      <point x="50" y="315"/>
      <point x="131" y="228"/>
      <point x="278" y="228" type="curve" smooth="yes"/>
      <point x="363" y="228"/>
      <point x="419" y="251"/>
      <point x="456" y="308" type="curve"/>
      <point x="463" y="308" type="line"/>
      <point x="458" y="247"/>
      <point x="455" y="207"/>
      <point x="455" y="187" type="curve" smooth="yes"/>
      <point x="455" y="107" type="line" smooth="yes"/>
      <point x="455" y="60"/>
      <point x="435" y="52"/>
      <point x="406" y="52" type="curve" smooth="yes"/>
      <point x="384" y="52" type="line"/>
    </contour>
  </outline>
</glyph>
<glyph name="Shin-oldgeorgian" format="2">
  <advance width="744"/>
  <unicode hex="10B8"/>
  <note>
uni10B8
</note>
  <outline>
    <contour>
      <point x="425" y="714" type="line"/>
      <point x="425" y="661" type="line"/>
      <point x="447" y="661" type="line" smooth="yes"/>
      <point x="476" y="661"/>
      <point x="496" y="653"/>
      <point x="496" y="606" type="curve" smooth="yes"/>
      <point x="496" y="544" type="line" smooth="yes"/>
      <point x="496" y="443"/>
      <point x="457" y="392"/>
      <point x="378" y="392" type="curve" smooth="yes"/>
      <point x="292" y="392"/>
      <point x="258" y="440"/>
      <point x="258" y="550" type="curve" smooth="yes"/>
      <point x="258" y="714" type="line"/>
      <point x="16" y="714" type="line"/>
      <point x="16" y="661" type="line"/>
      <point x="49" y="661" type="line" smooth="yes"/>
      <point x="86" y="661"/>
      <point x="100" y="642"/>
      <point x="100" y="600" type="curve" smooth="yes"/>
      <point x="100" y="547" type="line" smooth="yes"/>
      <point x="100" y="389"/>
      <point x="176" y="308"/>
      <point x="319" y="308" type="curve" smooth="yes"/>
      <point x="404" y="308"/>
      <point x="460" y="332"/>
      <point x="497" y="388" type="curve"/>
      <point x="504" y="388" type="line"/>
      <point x="499" y="327"/>
      <point x="496" y="287"/>
      <point x="496" y="267" type="curve" smooth="yes"/>
      <point x="496" y="210" type="line" smooth="yes"/>
      <point x="496" y="111"/>
      <point x="457" y="58"/>
      <point x="377" y="58" type="curve" smooth="yes"/>
      <point x="295" y="58"/>
      <point x="258" y="105"/>
      <point x="258" y="180" type="curve" smooth="yes"/>
      <point x="258" y="193"/>
      <point x="261" y="210"/>
      <point x="264" y="222" type="curve"/>
      <point x="239" y="240"/>
      <point x="215" y="247"/>
      <point x="193" y="247" type="curve" smooth="yes"/>
      <point x="140" y="247"/>
      <point x="100" y="205"/>
      <point x="100" y="155" type="curve" smooth="yes"/>
      <point x="100" y="65"/>
      <point x="190" y="-13"/>
      <point x="380" y="-13" type="curve" smooth="yes"/>
      <point x="559" y="-13"/>
      <point x="654" y="67"/>
      <point x="654" y="218" type="curve" smooth="yes"/>
      <point x="654" y="606" type="line" smooth="yes"/>
      <point x="654" y="653"/>
      <point x="676" y="661"/>
      <point x="705" y="661" type="curve" smooth="yes"/>
      <point x="727" y="661" type="line"/>
      <point x="727" y="714" type="line"/>
    </contour>
  </outline>
</glyph>
<glyph name="Chin-oldgeorgian" format="2">
  <advance width="794"/>
  <unicode hex="10B9"/>
  <note>
uni10B9
</note>
  <outline>
    <contour>
      <point x="719" y="52" type="line" smooth="yes"/>
      <point x="692" y="52"/>
      <point x="668" y="59"/>
      <point x="668" y="112" type="curve" smooth="yes"/>
      <point x="668" y="442" type="line"/>
      <point x="279" y="442" type="line"/>
      <point x="279" y="606" type="line" smooth="yes"/>
      <point x="279" y="653"/>
      <point x="299" y="661"/>
      <point x="328" y="661" type="curve" smooth="yes"/>
      <point x="350" y="661" type="line"/>
      <point x="350" y="714" type="line"/>
      <point x="61" y="714" type="line"/>
      <point x="61" y="661" type="line"/>
      <point x="73" y="661" type="line" smooth="yes"/>
      <point x="99" y="661"/>
      <point x="121" y="653"/>
      <point x="121" y="606" type="curve" smooth="yes"/>
      <point x="121" y="117" type="line" smooth="yes"/>
      <point x="121" y="60"/>
      <point x="98" y="52"/>
      <point x="70" y="52" type="curve" smooth="yes"/>
      <point x="38" y="52" type="line"/>
      <point x="38" y="-1" type="line"/>
      <point x="373" y="-1" type="line"/>
      <point x="373" y="52" type="line"/>
      <point x="330" y="52" type="line" smooth="yes"/>
      <point x="302" y="52"/>
      <point x="279" y="60"/>
      <point x="279" y="117" type="curve" smooth="yes"/>
      <point x="279" y="381" type="line"/>
      <point x="510" y="381" type="line"/>
      <point x="510" y="-1" type="line"/>
      <point x="761" y="-1" type="line"/>
      <point x="761" y="52" type="line"/>
    </contour>
  </outline>
</glyph>
<glyph name="Can-oldgeorgian" format="2">
  <advance width="668"/>
  <unicode hex="10BA"/>
  <note>
uni10BA
</note>
  <outline>
    <contour>
      <point x="399" y="-195" type="curve" smooth="yes"/>
      <point x="431" y="-195"/>
      <point x="480" y="-178"/>
      <point x="531" y="-115" type="curve" smooth="yes"/>
      <point x="591" y="-40"/>
      <point x="627" y="42"/>
      <point x="627" y="122" type="curve" smooth="yes"/>
      <point x="627" y="139"/>
      <point x="620" y="157"/>
      <point x="610" y="165" type="curve"/>
      <point x="563" y="102"/>
      <point x="501" y="72"/>
      <point x="425" y="72" type="curve" smooth="yes"/>
      <point x="284" y="72"/>
      <point x="223" y="155"/>
      <point x="223" y="358" type="curve" smooth="yes"/>
      <point x="223" y="572"/>
      <point x="275" y="663"/>
      <point x="393" y="663" type="curve" smooth="yes"/>
      <point x="462" y="663"/>
      <point x="503" y="608"/>
      <point x="503" y="524" type="curve"/>
      <point x="581" y="524"/>
      <point x="628" y="558"/>
      <point x="628" y="611" type="curve" smooth="yes"/>
      <point x="628" y="683"/>
      <point x="541" y="727"/>
      <point x="400" y="727" type="curve" smooth="yes"/>
      <point x="183" y="727"/>
      <point x="55" y="588"/>
      <point x="55" y="358" type="curve" smooth="yes"/>
      <point x="55" y="126"/>
      <point x="180" y="-8"/>
      <point x="401" y="-8" type="curve" smooth="yes"/>
      <point x="451" y="-8"/>
      <point x="495" y="6"/>
      <point x="531" y="24" type="curve"/>
      <point x="505" y="-48"/>
      <point x="446" y="-87"/>
      <point x="383" y="-87" type="curve" smooth="yes"/>
      <point x="360" y="-87"/>
      <point x="343" y="-79"/>
      <point x="331" y="-63" type="curve"/>
      <point x="325" y="-71"/>
      <point x="320" y="-98"/>
      <point x="320" y="-115" type="curve" smooth="yes"/>
      <point x="320" y="-164"/>
      <point x="350" y="-195"/>
    </contour>
  </outline>
</glyph>
<glyph name="Jil-oldgeorgian" format="2">
  <advance width="1001"/>
  <unicode hex="10BB"/>
  <note>
uni10BB
</note>
  <outline>
    <contour>
      <point x="301" y="-13" type="curve" smooth="yes"/>
      <point x="478" y="-13"/>
      <point x="566" y="69"/>
      <point x="566" y="237" type="curve" smooth="yes"/>
      <point x="566" y="387" type="line"/>
      <point x="717" y="387" type="line"/>
      <point x="717" y="-1" type="line"/>
      <point x="968" y="-1" type="line"/>
      <point x="968" y="52" type="line"/>
      <point x="926" y="52" type="line" smooth="yes"/>
      <point x="899" y="52"/>
      <point x="875" y="59"/>
      <point x="875" y="112" type="curve" smooth="yes"/>
      <point x="875" y="452" type="line"/>
      <point x="566" y="452" type="line"/>
      <point x="566" y="606" type="line" smooth="yes"/>
      <point x="566" y="653"/>
      <point x="588" y="661"/>
      <point x="614" y="661" type="curve" smooth="yes"/>
      <point x="626" y="661" type="line"/>
      <point x="626" y="714" type="line"/>
      <point x="337" y="714" type="line"/>
      <point x="337" y="661" type="line"/>
      <point x="359" y="661" type="line" smooth="yes"/>
      <point x="388" y="661"/>
      <point x="408" y="653"/>
      <point x="408" y="606" type="curve" smooth="yes"/>
      <point x="408" y="452" type="line"/>
      <point x="325" y="452" type="line" smooth="yes"/>
      <point x="128" y="452"/>
      <point x="30" y="373"/>
      <point x="30" y="218" type="curve" smooth="yes"/>
      <point x="30" y="70"/>
      <point x="126" y="-13"/>
    </contour>
    <contour>
      <point x="303" y="52" type="curve" smooth="yes"/>
      <point x="233" y="52"/>
      <point x="198" y="106"/>
      <point x="198" y="218" type="curve" smooth="yes"/>
      <point x="198" y="338"/>
      <point x="228" y="387"/>
      <point x="341" y="387" type="curve" smooth="yes"/>
      <point x="408" y="387" type="line"/>
      <point x="408" y="230" type="line" smooth="yes"/>
      <point x="408" y="112"/>
      <point x="372" y="52"/>
    </contour>
  </outline>
</glyph>
<glyph name="Cil-oldgeorgian" format="2">
  <advance width="622"/>
  <unicode hex="10BC"/>
  <note>
uni10BC
</note>
  <outline>
    <contour>
      <point x="105" y="0" type="line"/>
      <point x="263" y="0" type="line"/>
      <point x="263" y="179" type="line"/>
      <point x="281" y="179" type="line"/>
      <point x="342" y="179"/>
      <point x="375" y="153"/>
      <point x="375" y="46" type="curve"/>
      <point x="448" y="46"/>
      <point x="495" y="85"/>
      <point x="495" y="138" type="curve" smooth="yes"/>
      <point x="495" y="206"/>
      <point x="443" y="240"/>
      <point x="340" y="240" type="curve" smooth="yes"/>
      <point x="263" y="240" type="line"/>
      <point x="263" y="314" type="line"/>
      <point x="297" y="314" type="line" smooth="yes"/>
      <point x="484" y="314"/>
      <point x="592" y="391"/>
      <point x="592" y="522" type="curve" smooth="yes"/>
      <point x="592" y="646"/>
      <point x="497" y="714"/>
      <point x="319" y="714" type="curve" smooth="yes"/>
      <point x="12" y="714" type="line"/>
      <point x="12" y="661" type="line"/>
      <point x="54" y="661" type="line" smooth="yes"/>
      <point x="91" y="661"/>
      <point x="105" y="643"/>
      <point x="105" y="600" type="curve" smooth="yes"/>
    </contour>
    <contour>
      <point x="263" y="372" type="line"/>
      <point x="263" y="655" type="line"/>
      <point x="302" y="655" type="line" smooth="yes"/>
      <point x="388" y="655"/>
      <point x="424" y="615"/>
      <point x="424" y="518" type="curve" smooth="yes"/>
      <point x="424" y="411"/>
      <point x="385" y="372"/>
      <point x="287" y="372" type="curve" smooth="yes"/>
    </contour>
  </outline>
</glyph>
<glyph name="Char-oldgeorgian" format="2">
  <advance width="586"/>
  <unicode hex="10BD"/>
  <note>
uni10BD
</note>
  <outline>
    <contour>
      <point x="264" y="-13" type="curve" smooth="yes"/>
      <point x="410" y="-13"/>
      <point x="536" y="65"/>
      <point x="536" y="209" type="curve" smooth="yes"/>
      <point x="536" y="307"/>
      <point x="481" y="367"/>
      <point x="345" y="421" type="curve" smooth="yes"/>
      <point x="245" y="461"/>
      <point x="180" y="497"/>
      <point x="180" y="571" type="curve" smooth="yes"/>
      <point x="180" y="626"/>
      <point x="219" y="666"/>
      <point x="279" y="666" type="curve" smooth="yes"/>
      <point x="348" y="666"/>
      <point x="385" y="610"/>
      <point x="385" y="525" type="curve"/>
      <point x="461" y="525"/>
      <point x="508" y="558"/>
      <point x="508" y="608" type="curve" smooth="yes"/>
      <point x="508" y="680"/>
      <point x="428" y="727"/>
      <point x="295" y="727" type="curve" smooth="yes"/>
      <point x="149" y="727"/>
      <point x="50" y="642"/>
      <point x="50" y="523" type="curve" smooth="yes"/>
      <point x="50" y="419"/>
      <point x="106" y="358"/>
      <point x="237" y="305" type="curve" smooth="yes"/>
      <point x="334" y="266"/>
      <point x="404" y="234"/>
      <point x="404" y="158" type="curve" smooth="yes"/>
      <point x="404" y="94"/>
      <point x="354" y="47"/>
      <point x="280" y="47" type="curve" smooth="yes"/>
      <point x="194" y="47"/>
      <point x="143" y="116"/>
      <point x="143" y="223" type="curve"/>
      <point x="72" y="223"/>
      <point x="30" y="188"/>
      <point x="30" y="130" type="curve" smooth="yes"/>
      <point x="30" y="32"/>
      <point x="139" y="-13"/>
    </contour>
  </outline>
</glyph>
<glyph name="Xan-oldgeorgian" format="2">
  <advance width="777"/>
  <unicode hex="10BE"/>
  <note>
uni10BE
</note>
  <outline>
    <contour>
      <point x="28" y="0" type="line"/>
      <point x="668" y="0" type="line"/>
      <point x="668" y="53" type="line"/>
      <point x="279" y="53" type="line"/>
      <point x="279" y="291" type="line"/>
      <point x="658" y="291" type="line"/>
      <point x="658" y="601" type="line" smooth="yes"/>
      <point x="658" y="654"/>
      <point x="682" y="661"/>
      <point x="709" y="661" type="curve" smooth="yes"/>
      <point x="751" y="661" type="line"/>
      <point x="751" y="714" type="line"/>
      <point x="500" y="714" type="line"/>
      <point x="500" y="352" type="line"/>
      <point x="279" y="352" type="line"/>
      <point x="279" y="596" type="line" smooth="yes"/>
      <point x="279" y="653"/>
      <point x="302" y="661"/>
      <point x="330" y="661" type="curve" smooth="yes"/>
      <point x="373" y="661" type="line"/>
      <point x="373" y="714" type="line"/>
      <point x="28" y="714" type="line"/>
      <point x="28" y="661" type="line"/>
      <point x="70" y="661" type="line" smooth="yes"/>
      <point x="98" y="661"/>
      <point x="121" y="653"/>
      <point x="121" y="596" type="curve" smooth="yes"/>
      <point x="121" y="114" type="line" smooth="yes"/>
      <point x="121" y="61"/>
      <point x="97" y="53"/>
      <point x="70" y="53" type="curve" smooth="yes"/>
      <point x="28" y="53" type="line"/>
    </contour>
  </outline>
</glyph>
<glyph name="Jhan-oldgeorgian" format="2">
  <advance width="748"/>
  <unicode hex="10BF"/>
  <note>
uni10BF
</note>
  <outline>
    <contour>
      <point x="16" y="0" type="line"/>
      <point x="68" y="0" type="line" smooth="yes"/>
      <point x="133" y="0"/>
      <point x="173" y="33"/>
      <point x="250" y="148" type="curve" smooth="yes"/>
      <point x="347" y="292" type="line"/>
      <point x="438" y="155" type="line" smooth="yes"/>
      <point x="467" y="112"/>
      <point x="471" y="101"/>
      <point x="471" y="86" type="curve" smooth="yes"/>
      <point x="471" y="64"/>
      <point x="451" y="53"/>
      <point x="411" y="53" type="curve" smooth="yes"/>
      <point x="406" y="53" type="line"/>
      <point x="406" y="0" type="line"/>
      <point x="736" y="0" type="line"/>
      <point x="736" y="53" type="line"/>
      <point x="723" y="53" type="line" smooth="yes"/>
      <point x="698" y="53"/>
      <point x="669" y="65"/>
      <point x="643" y="106" type="curve" smooth="yes"/>
      <point x="452" y="404" type="line"/>
      <point x="637" y="661" type="line"/>
      <point x="637" y="714" type="line"/>
      <point x="46" y="714" type="line"/>
      <point x="46" y="661" type="line"/>
      <point x="114" y="661" type="line"/>
      <point x="311" y="351" type="line"/>
      <point x="145" y="123" type="line" smooth="yes"/>
      <point x="105" y="69"/>
      <point x="72" y="53"/>
      <point x="22" y="53" type="curve" smooth="yes"/>
      <point x="16" y="53" type="line"/>
    </contour>
    <contour>
      <point x="416" y="462" type="line"/>
      <point x="286" y="661" type="line"/>
      <point x="465" y="661" type="line" smooth="yes"/>
      <point x="490" y="661"/>
      <point x="519" y="658"/>
      <point x="519" y="632" type="curve" smooth="yes"/>
      <point x="519" y="615"/>
      <point x="509" y="595"/>
      <point x="492" y="571" type="curve" smooth="yes"/>
    </contour>
  </outline>
</glyph>
<glyph name="Hae-oldgeorgian" format="2">
  <advance width="1029"/>
  <unicode hex="10C0"/>
  <note>
uni10C0
</note>
  <outline>
    <contour>
      <point x="726" y="-13" type="curve" smooth="yes"/>
      <point x="906" y="-13"/>
      <point x="1006" y="69"/>
      <point x="1006" y="218" type="curve" smooth="yes"/>
      <point x="1006" y="307"/>
      <point x="969" y="372"/>
      <point x="885" y="372" type="curve" smooth="yes"/>
      <point x="859" y="372"/>
      <point x="830" y="365"/>
      <point x="802" y="348" type="curve"/>
      <point x="838" y="322"/>
      <point x="848" y="266"/>
      <point x="848" y="210" type="curve" smooth="yes"/>
      <point x="848" y="113"/>
      <point x="803" y="58"/>
      <point x="723" y="58" type="curve" smooth="yes"/>
      <point x="645" y="58"/>
      <point x="598" y="112"/>
      <point x="598" y="210" type="curve" smooth="yes"/>
      <point x="598" y="606" type="line" smooth="yes"/>
      <point x="598" y="653"/>
      <point x="620" y="661"/>
      <point x="649" y="661" type="curve" smooth="yes"/>
      <point x="672" y="661" type="line"/>
      <point x="672" y="714" type="line"/>
      <point x="28" y="714" type="line"/>
      <point x="28" y="661" type="line"/>
      <point x="51" y="661" type="line" smooth="yes"/>
      <point x="80" y="661"/>
      <point x="102" y="653"/>
      <point x="102" y="606" type="curve" smooth="yes"/>
      <point x="102" y="417" type="line" smooth="yes"/>
      <point x="102" y="370"/>
      <point x="80" y="362"/>
      <point x="51" y="362" type="curve" smooth="yes"/>
      <point x="28" y="362" type="line"/>
      <point x="28" y="309" type="line"/>
      <point x="260" y="309" type="line"/>
      <point x="260" y="643" type="line"/>
      <point x="440" y="643" type="line"/>
      <point x="440" y="218" type="line" smooth="yes"/>
      <point x="440" y="66"/>
      <point x="535" y="-13"/>
    </contour>
  </outline>
</glyph>
<glyph name="He-oldgeorgian" format="2">
  <advance width="781"/>
  <unicode hex="10C1"/>
  <note>
uni10C1
</note>
  <outline>
    <contour>
      <point x="105" y="0" type="line"/>
      <point x="263" y="0" type="line"/>
      <point x="263" y="330" type="line" smooth="yes"/>
      <point x="263" y="431"/>
      <point x="298" y="482"/>
      <point x="367" y="482" type="curve" smooth="yes"/>
      <point x="444" y="482"/>
      <point x="473" y="437"/>
      <point x="473" y="329" type="curve" smooth="yes"/>
      <point x="473" y="245" type="line"/>
      <point x="766" y="245" type="line"/>
      <point x="766" y="316" type="line"/>
      <point x="631" y="316" type="line"/>
      <point x="631" y="332" type="line" smooth="yes"/>
      <point x="631" y="488"/>
      <point x="563" y="566"/>
      <point x="427" y="566" type="curve" smooth="yes"/>
      <point x="348" y="566"/>
      <point x="297" y="542"/>
      <point x="262" y="486" type="curve"/>
      <point x="255" y="486" type="line"/>
      <point x="260" y="551"/>
      <point x="263" y="591"/>
      <point x="263" y="607" type="curve" smooth="yes"/>
      <point x="263" y="714" type="line"/>
      <point x="22" y="714" type="line"/>
      <point x="22" y="661" type="line"/>
      <point x="54" y="661" type="line" smooth="yes"/>
      <point x="93" y="661"/>
      <point x="105" y="641"/>
      <point x="105" y="596" type="curve" smooth="yes"/>
    </contour>
  </outline>
</glyph>
<glyph name="Hie-oldgeorgian" format="2">
  <advance width="668"/>
  <unicode hex="10C2"/>
  <note>
uni10C2
</note>
  <outline>
    <contour>
      <point x="288" y="-13" type="curve" smooth="yes"/>
      <point x="485" y="-13"/>
      <point x="613" y="115"/>
      <point x="613" y="320" type="curve" smooth="yes"/>
      <point x="613" y="526"/>
      <point x="489" y="635"/>
      <point x="266" y="635" type="curve" smooth="yes"/>
      <point x="252" y="635" type="line"/>
      <point x="252" y="714" type="line"/>
      <point x="16" y="714" type="line"/>
      <point x="16" y="661" type="line"/>
      <point x="44" y="661" type="line" smooth="yes"/>
      <point x="83" y="661"/>
      <point x="95" y="641"/>
      <point x="95" y="596" type="curve" smooth="yes"/>
      <point x="95" y="562" type="line"/>
      <point x="243" y="562" type="line" smooth="yes"/>
      <point x="387" y="562"/>
      <point x="445" y="493"/>
      <point x="445" y="319" type="curve" smooth="yes"/>
      <point x="445" y="135"/>
      <point x="393" y="51"/>
      <point x="295" y="51" type="curve" smooth="yes"/>
      <point x="207" y="51"/>
      <point x="165" y="106"/>
      <point x="165" y="193" type="curve"/>
      <point x="87" y="193"/>
      <point x="40" y="159"/>
      <point x="40" y="106" type="curve" smooth="yes"/>
      <point x="40" y="35"/>
      <point x="127" y="-13"/>
    </contour>
  </outline>
</glyph>
<glyph name="We-oldgeorgian" format="2">
  <advance width="658"/>
  <unicode hex="10C3"/>
  <note>
uni10C3
</note>
  <outline>
    <contour>
      <point x="344" y="714" type="line"/>
      <point x="344" y="661" type="line"/>
      <point x="366" y="661" type="line" smooth="yes"/>
      <point x="395" y="661"/>
      <point x="415" y="653"/>
      <point x="415" y="606" type="curve" smooth="yes"/>
      <point x="415" y="444" type="line" smooth="yes"/>
      <point x="415" y="343"/>
      <point x="376" y="292"/>
      <point x="307" y="292" type="curve" smooth="yes"/>
      <point x="235" y="292"/>
      <point x="198" y="342"/>
      <point x="198" y="427" type="curve" smooth="yes"/>
      <point x="198" y="506"/>
      <point x="218" y="544"/>
      <point x="238" y="563" type="curve"/>
      <point x="216" y="576"/>
      <point x="191" y="584"/>
      <point x="166" y="584" type="curve" smooth="yes"/>
      <point x="98" y="584"/>
      <point x="30" y="532"/>
      <point x="30" y="414" type="curve" smooth="yes"/>
      <point x="30" y="278"/>
      <point x="130" y="208"/>
      <point x="248" y="208" type="curve" smooth="yes"/>
      <point x="323" y="208"/>
      <point x="379" y="231"/>
      <point x="416" y="288" type="curve"/>
      <point x="423" y="288" type="line"/>
      <point x="418" y="227"/>
      <point x="415" y="187"/>
      <point x="415" y="167" type="curve" smooth="yes"/>
      <point x="415" y="0" type="line"/>
      <point x="573" y="0" type="line"/>
      <point x="573" y="606" type="line" smooth="yes"/>
      <point x="573" y="653"/>
      <point x="595" y="661"/>
      <point x="624" y="661" type="curve" smooth="yes"/>
      <point x="646" y="661" type="line"/>
      <point x="646" y="714" type="line"/>
    </contour>
  </outline>
</glyph>
<glyph name="Har-oldgeorgian" format="2">
  <advance width="751"/>
  <unicode hex="10C4"/>
  <note>
uni10C4
</note>
  <outline>
    <contour>
      <point x="442" y="714" type="line"/>
      <point x="442" y="661" type="line"/>
      <point x="464" y="661" type="line" smooth="yes"/>
      <point x="493" y="661"/>
      <point x="513" y="653"/>
      <point x="513" y="606" type="curve" smooth="yes"/>
      <point x="513" y="450" type="line" smooth="yes"/>
      <point x="513" y="353"/>
      <point x="468" y="301"/>
      <point x="388" y="301" type="curve" smooth="yes"/>
      <point x="303" y="301"/>
      <point x="263" y="349"/>
      <point x="263" y="450" type="curve" smooth="yes"/>
      <point x="263" y="606" type="line" smooth="yes"/>
      <point x="263" y="653"/>
      <point x="285" y="661"/>
      <point x="314" y="661" type="curve" smooth="yes"/>
      <point x="336" y="661" type="line"/>
      <point x="336" y="714" type="line"/>
      <point x="34" y="714" type="line"/>
      <point x="34" y="661" type="line"/>
      <point x="56" y="661" type="line" smooth="yes"/>
      <point x="85" y="661"/>
      <point x="105" y="653"/>
      <point x="105" y="606" type="curve" smooth="yes"/>
      <point x="105" y="458" type="line" smooth="yes"/>
      <point x="105" y="329"/>
      <point x="172" y="256"/>
      <point x="309" y="235" type="curve"/>
      <point x="309" y="0" type="line"/>
      <point x="467" y="0" type="line"/>
      <point x="467" y="235" type="line"/>
      <point x="600" y="255"/>
      <point x="671" y="332"/>
      <point x="671" y="458" type="curve" smooth="yes"/>
      <point x="671" y="606" type="line" smooth="yes"/>
      <point x="671" y="653"/>
      <point x="693" y="661"/>
      <point x="722" y="661" type="curve" smooth="yes"/>
      <point x="744" y="661" type="line"/>
      <point x="744" y="714" type="line"/>
    </contour>
  </outline>
</glyph>
<glyph name="Hoe-oldgeorgian" format="2">
  <advance width="784"/>
  <unicode hex="10C5"/>
  <note>
uni10C5
</note>
  <outline>
    <contour>
      <point x="213" y="-13" type="curve" smooth="yes"/>
      <point x="341" y="-13"/>
      <point x="425" y="52"/>
      <point x="425" y="145" type="curve" smooth="yes"/>
      <point x="425" y="209" type="line"/>
      <point x="460" y="209" type="line" smooth="yes"/>
      <point x="521" y="209"/>
      <point x="554" y="178"/>
      <point x="554" y="71" type="curve"/>
      <point x="627" y="71"/>
      <point x="674" y="110"/>
      <point x="674" y="163" type="curve" smooth="yes"/>
      <point x="674" y="231"/>
      <point x="612" y="265"/>
      <point x="499" y="265" type="curve" smooth="yes"/>
      <point x="425" y="265" type="line"/>
      <point x="425" y="327" type="line"/>
      <point x="459" y="327" type="line" smooth="yes"/>
      <point x="646" y="327"/>
      <point x="754" y="401"/>
      <point x="754" y="528" type="curve" smooth="yes"/>
      <point x="754" y="649"/>
      <point x="657" y="714"/>
      <point x="481" y="714" type="curve" smooth="yes"/>
      <point x="174" y="714" type="line"/>
      <point x="174" y="661" type="line"/>
      <point x="216" y="661" type="line" smooth="yes"/>
      <point x="254" y="661"/>
      <point x="267" y="640"/>
      <point x="267" y="595" type="curve" smooth="yes"/>
      <point x="267" y="265" type="line"/>
      <point x="211" y="265" type="line" smooth="yes"/>
      <point x="79" y="265"/>
      <point x="15" y="210"/>
      <point x="15" y="129" type="curve" smooth="yes"/>
      <point x="15" y="41"/>
      <point x="82" y="-13"/>
    </contour>
    <contour>
      <point x="209" y="48" type="curve" smooth="yes"/>
      <point x="178" y="48"/>
      <point x="163" y="76"/>
      <point x="163" y="127" type="curve" smooth="yes"/>
      <point x="163" y="177"/>
      <point x="179" y="209"/>
      <point x="224" y="209" type="curve" smooth="yes"/>
      <point x="267" y="209" type="line"/>
      <point x="267" y="150" type="line" smooth="yes"/>
      <point x="267" y="77"/>
      <point x="248" y="48"/>
    </contour>
    <contour>
      <point x="425" y="385" type="line"/>
      <point x="425" y="655" type="line"/>
      <point x="464" y="655" type="line" smooth="yes"/>
      <point x="549" y="655"/>
      <point x="586" y="616"/>
      <point x="586" y="524" type="curve" smooth="yes"/>
      <point x="586" y="425"/>
      <point x="549" y="385"/>
      <point x="449" y="385" type="curve" smooth="yes"/>
    </contour>
  </outline>
</glyph>
<glyph name="Yn-oldgeorgian" format="2">
  <advance width="586"/>
  <unicode hex="10C7"/>
  <outline>
    <contour>
      <point x="303" y="-13" type="curve" smooth="yes"/>
      <point x="447" y="-13"/>
      <point x="556" y="32"/>
      <point x="556" y="130" type="curve" smooth="yes"/>
      <point x="556" y="188"/>
      <point x="514" y="223"/>
      <point x="443" y="223" type="curve"/>
      <point x="443" y="116"/>
      <point x="392" y="47"/>
      <point x="306" y="47" type="curve" smooth="yes"/>
      <point x="232" y="47"/>
      <point x="182" y="94"/>
      <point x="182" y="158" type="curve" smooth="yes"/>
      <point x="182" y="234"/>
      <point x="252" y="266"/>
      <point x="349" y="305" type="curve" smooth="yes"/>
      <point x="480" y="358"/>
      <point x="536" y="419"/>
      <point x="536" y="523" type="curve" smooth="yes"/>
      <point x="536" y="647"/>
      <point x="453" y="727"/>
      <point x="291" y="727" type="curve" smooth="yes"/>
      <point x="158" y="727"/>
      <point x="78" y="675"/>
      <point x="78" y="608" type="curve" smooth="yes"/>
      <point x="78" y="558"/>
      <point x="125" y="525"/>
      <point x="201" y="525" type="curve"/>
      <point x="201" y="610"/>
      <point x="238" y="666"/>
      <point x="307" y="666" type="curve" smooth="yes"/>
      <point x="367" y="666"/>
      <point x="406" y="626"/>
      <point x="406" y="571" type="curve" smooth="yes"/>
      <point x="406" y="497"/>
      <point x="341" y="461"/>
      <point x="241" y="421" type="curve" smooth="yes"/>
      <point x="105" y="367"/>
      <point x="50" y="307"/>
      <point x="50" y="209" type="curve" smooth="yes"/>
      <point x="50" y="60"/>
      <point x="162" y="-13"/>
    </contour>
  </outline>
</glyph>
<glyph name="Aen-oldgeorgian" format="2">
  <advance width="666"/>
  <unicode hex="10CD"/>
  <outline>
    <contour>
      <point x="42" y="0" type="line"/>
      <point x="617" y="0" type="line"/>
      <point x="622" y="206" type="line"/>
      <point x="550" y="206" type="line"/>
      <point x="545" y="161" type="line"/>
      <point x="540" y="111"/>
      <point x="522" y="61"/>
      <point x="440" y="61" type="curve" smooth="yes"/>
      <point x="224" y="61" type="line"/>
      <point x="600" y="663" type="line"/>
      <point x="600" y="714" type="line"/>
      <point x="66" y="714" type="line"/>
      <point x="61" y="508" type="line"/>
      <point x="133" y="508" type="line"/>
      <point x="138" y="562" type="line" smooth="yes"/>
      <point x="143" y="617"/>
      <point x="157" y="653"/>
      <point x="220" y="653" type="curve"/>
      <point x="417" y="653" type="line"/>
      <point x="42" y="50" type="line"/>
    </contour>
  </outline>
</glyph>
<glyph name="an-georgian" format="2">
  <advance width="570"/>
  <unicode hex="10D0"/>
  <note>
uni10D0
</note>
  <anchor x="285" y="536" name="top"/>
  <outline>
    <contour>
      <point x="280" y="-13" type="curve" smooth="yes"/>
      <point x="419" y="-13"/>
      <point x="523" y="54"/>
      <point x="523" y="179" type="curve" smooth="yes"/>
      <point x="523" y="279"/>
      <point x="462" y="329"/>
      <point x="409" y="374" type="curve" smooth="yes"/>
      <point x="371" y="407"/>
      <point x="338" y="437"/>
      <point x="338" y="482" type="curve" smooth="yes"/>
      <point x="338" y="499"/>
      <point x="342" y="515"/>
      <point x="350" y="531" type="curve"/>
      <point x="335" y="542"/>
      <point x="315" y="549"/>
      <point x="285" y="549" type="curve" smooth="yes"/>
      <point x="238" y="549"/>
      <point x="208" y="519"/>
      <point x="208" y="474" type="curve" smooth="yes"/>
      <point x="208" y="408"/>
      <point x="259" y="360"/>
      <point x="303" y="317" type="curve" smooth="yes"/>
      <point x="338" y="283"/>
      <point x="368" y="241"/>
      <point x="368" y="174" type="curve" smooth="yes"/>
      <point x="368" y="96"/>
      <point x="339" y="50"/>
      <point x="280" y="50" type="curve" smooth="yes"/>
      <point x="223" y="50"/>
      <point x="192" y="96"/>
      <point x="192" y="169" type="curve" smooth="yes"/>
      <point x="192" y="206"/>
      <point x="197" y="233"/>
      <point x="209" y="261" type="curve"/>
      <point x="190" y="273"/>
      <point x="164" y="281"/>
      <point x="141" y="281" type="curve" smooth="yes"/>
      <point x="85" y="281"/>
      <point x="42" y="232"/>
      <point x="42" y="167" type="curve" smooth="yes"/>
      <point x="42" y="72"/>
      <point x="108" y="-13"/>
    </contour>
  </outline>
</glyph>
<glyph name="ban-georgian" format="2">
  <advance width="613"/>
  <unicode hex="10D1"/>
  <note>
uni10D1
</note>
  <outline>
    <contour>
      <point x="382" y="538" type="curve"/>
      <point x="389" y="551"/>
      <point x="394" y="566"/>
      <point x="394" y="584" type="curve" smooth="yes"/>
      <point x="394" y="627"/>
      <point x="367" y="649"/>
      <point x="343" y="669" type="curve" smooth="yes"/>
      <point x="324" y="684"/>
      <point x="308" y="699"/>
      <point x="308" y="723" type="curve" smooth="yes"/>
      <point x="308" y="734"/>
      <point x="310" y="744"/>
      <point x="315" y="756" type="curve"/>
      <point x="301" y="766"/>
      <point x="284" y="773"/>
      <point x="256" y="773" type="curve" smooth="yes"/>
      <point x="212" y="773"/>
      <point x="177" y="749"/>
      <point x="177" y="706" type="curve" smooth="yes"/>
      <point x="177" y="673"/>
      <point x="201" y="653"/>
      <point x="225" y="634" type="curve" smooth="yes"/>
      <point x="246" y="617"/>
      <point x="267" y="600"/>
      <point x="267" y="571" type="curve" smooth="yes"/>
      <point x="267" y="561"/>
      <point x="265" y="551"/>
      <point x="263" y="543" type="curve"/>
      <point x="125" y="528"/>
      <point x="47" y="440"/>
      <point x="47" y="270" type="curve" smooth="yes"/>
      <point x="47" y="79"/>
      <point x="144" y="-13"/>
      <point x="305" y="-13" type="curve" smooth="yes"/>
      <point x="476" y="-13"/>
      <point x="566" y="79"/>
      <point x="566" y="270" type="curve" smooth="yes"/>
      <point x="566" y="427"/>
      <point x="498" y="514"/>
    </contour>
    <contour>
      <point x="307" y="50" type="curve" smooth="yes"/>
      <point x="230" y="50"/>
      <point x="202" y="126"/>
      <point x="202" y="270" type="curve" smooth="yes"/>
      <point x="202" y="413"/>
      <point x="229" y="486"/>
      <point x="306" y="486" type="curve" smooth="yes"/>
      <point x="383" y="486"/>
      <point x="411" y="413"/>
      <point x="411" y="270" type="curve" smooth="yes"/>
      <point x="411" y="126"/>
      <point x="384" y="50"/>
    </contour>
  </outline>
</glyph>
<glyph name="gan-georgian" format="2">
  <advance width="603"/>
  <unicode hex="10D2"/>
  <note>
uni10D2
</note>
  <outline>
    <contour>
      <point x="300" y="-253" type="curve" smooth="yes"/>
      <point x="466" y="-253"/>
      <point x="561" y="-161"/>
      <point x="561" y="30" type="curve" smooth="yes"/>
      <point x="561" y="179"/>
      <point x="493" y="266"/>
      <point x="388" y="292" type="curve"/>
      <point x="388" y="296" type="line"/>
      <point x="455" y="318"/>
      <point x="490" y="367"/>
      <point x="490" y="411" type="curve" smooth="yes"/>
      <point x="490" y="499"/>
      <point x="396" y="549"/>
      <point x="290" y="549" type="curve" smooth="yes"/>
      <point x="170" y="549"/>
      <point x="90" y="496"/>
      <point x="90" y="431" type="curve" smooth="yes"/>
      <point x="90" y="381"/>
      <point x="132" y="361"/>
      <point x="178" y="361" type="curve" smooth="yes"/>
      <point x="197" y="361"/>
      <point x="227" y="365"/>
      <point x="243" y="371" type="curve"/>
      <point x="239" y="382"/>
      <point x="234" y="402"/>
      <point x="234" y="424" type="curve" smooth="yes"/>
      <point x="234" y="463"/>
      <point x="253" y="492"/>
      <point x="290" y="492" type="curve" smooth="yes"/>
      <point x="328" y="492"/>
      <point x="347" y="463"/>
      <point x="347" y="414" type="curve" smooth="yes"/>
      <point x="347" y="362"/>
      <point x="330" y="321"/>
      <point x="248" y="304" type="curve" smooth="yes"/>
      <point x="114" y="276"/>
      <point x="42" y="198"/>
      <point x="42" y="30" type="curve" smooth="yes"/>
      <point x="42" y="-161"/>
      <point x="140" y="-253"/>
    </contour>
    <contour>
      <point x="302" y="-190" type="curve" smooth="yes"/>
      <point x="225" y="-190"/>
      <point x="197" y="-115"/>
      <point x="197" y="30" type="curve" smooth="yes"/>
      <point x="197" y="173"/>
      <point x="224" y="246"/>
      <point x="301" y="246" type="curve" smooth="yes"/>
      <point x="378" y="246"/>
      <point x="406" y="173"/>
      <point x="406" y="30" type="curve" smooth="yes"/>
      <point x="406" y="-115"/>
      <point x="379" y="-190"/>
    </contour>
  </outline>
</glyph>
<glyph name="don-georgian" format="2">
  <advance width="897"/>
  <unicode hex="10D3"/>
  <note>
uni10D3
</note>
  <outline>
    <contour>
      <point x="602" y="6" type="curve" smooth="yes"/>
      <point x="761" y="6"/>
      <point x="850" y="101"/>
      <point x="850" y="275" type="curve" smooth="yes"/>
      <point x="850" y="456"/>
      <point x="762" y="549"/>
      <point x="608" y="549" type="curve" smooth="yes"/>
      <point x="528" y="549"/>
      <point x="457" y="508"/>
      <point x="433" y="445" type="curve"/>
      <point x="429" y="445" type="line"/>
      <point x="403" y="508"/>
      <point x="347" y="549"/>
      <point x="269" y="549" type="curve" smooth="yes"/>
      <point x="137" y="549"/>
      <point x="47" y="453"/>
      <point x="47" y="280" type="curve" smooth="yes"/>
      <point x="47" y="90"/>
      <point x="153" y="-23"/>
      <point x="286" y="-81" type="curve"/>
      <point x="286" y="-85" type="line"/>
      <point x="235" y="-89"/>
      <point x="183" y="-115"/>
      <point x="156" y="-145" type="curve"/>
      <point x="183" y="-185" type="line"/>
      <point x="225" y="-154"/>
      <point x="281" y="-136"/>
      <point x="359" y="-136" type="curve" smooth="yes"/>
      <point x="469" y="-136"/>
      <point x="594" y="-171"/>
      <point x="594" y="-253" type="curve"/>
      <point x="643" y="-253"/>
      <point x="687" y="-237"/>
      <point x="687" y="-192" type="curve" smooth="yes"/>
      <point x="687" y="-123"/>
      <point x="575" y="-76"/>
      <point x="454" y="-44" type="curve" smooth="yes"/>
      <point x="315" y="-7"/>
      <point x="202" y="77"/>
      <point x="202" y="280" type="curve" smooth="yes"/>
      <point x="202" y="402"/>
      <point x="223" y="486"/>
      <point x="283" y="486" type="curve" smooth="yes"/>
      <point x="334" y="486"/>
      <point x="357" y="442"/>
      <point x="357" y="339" type="curve" smooth="yes"/>
      <point x="357" y="277" type="line" smooth="yes"/>
      <point x="357" y="99"/>
      <point x="445" y="6"/>
    </contour>
    <contour>
      <point x="601" y="486" type="curve" smooth="yes"/>
      <point x="671" y="486"/>
      <point x="695" y="422"/>
      <point x="695" y="275" type="curve" smooth="yes"/>
      <point x="695" y="132"/>
      <point x="671" y="69"/>
      <point x="601" y="69" type="curve" smooth="yes"/>
      <point x="527" y="69"/>
      <point x="506" y="143"/>
      <point x="506" y="275" type="curve" smooth="yes"/>
      <point x="506" y="418"/>
      <point x="528" y="486"/>
    </contour>
  </outline>
</glyph>
<glyph name="en-georgian" format="2">
  <advance width="598"/>
  <unicode hex="10D4"/>
  <note>
uni10D4
</note>
  <anchor x="299" y="536" name="top"/>
  <outline>
    <contour>
      <point x="286" y="-253" type="curve" smooth="yes"/>
      <point x="460" y="-253"/>
      <point x="532" y="-148"/>
      <point x="532" y="0" type="curve" smooth="yes"/>
      <point x="532" y="312" type="line" smooth="yes"/>
      <point x="532" y="460"/>
      <point x="436" y="548"/>
      <point x="293" y="548" type="curve" smooth="yes"/>
      <point x="165" y="548"/>
      <point x="63" y="472"/>
      <point x="63" y="375" type="curve" smooth="yes"/>
      <point x="63" y="310"/>
      <point x="102" y="260"/>
      <point x="162" y="260" type="curve" smooth="yes"/>
      <point x="182" y="260"/>
      <point x="204" y="266"/>
      <point x="228" y="275" type="curve"/>
      <point x="215" y="306"/>
      <point x="209" y="337"/>
      <point x="209" y="371" type="curve" smooth="yes"/>
      <point x="209" y="436"/>
      <point x="238" y="489"/>
      <point x="293" y="489" type="curve" smooth="yes"/>
      <point x="354" y="489"/>
      <point x="380" y="433"/>
      <point x="380" y="328" type="curve" smooth="yes"/>
      <point x="380" y="-5" type="line" smooth="yes"/>
      <point x="380" y="-140"/>
      <point x="353" y="-194"/>
      <point x="286" y="-194" type="curve" smooth="yes"/>
      <point x="219" y="-194"/>
      <point x="194" y="-137"/>
      <point x="194" y="-44" type="curve" smooth="yes"/>
      <point x="194" y="18"/>
      <point x="207" y="55"/>
      <point x="225" y="90" type="curve"/>
      <point x="201" y="104"/>
      <point x="179" y="111"/>
      <point x="158" y="111" type="curve" smooth="yes"/>
      <point x="91" y="111"/>
      <point x="42" y="42"/>
      <point x="42" y="-36" type="curve" smooth="yes"/>
      <point x="42" y="-169"/>
      <point x="129" y="-253"/>
    </contour>
  </outline>
</glyph>
<glyph name="vin-georgian" format="2">
  <advance width="596"/>
  <unicode hex="10D5"/>
  <note>
uni10D5
</note>
  <outline>
    <contour>
      <point x="296" y="-253" type="curve" smooth="yes"/>
      <point x="458" y="-253"/>
      <point x="554" y="-148"/>
      <point x="554" y="-23" type="curve" smooth="yes"/>
      <point x="554" y="102"/>
      <point x="471" y="167"/>
      <point x="377" y="184" type="curve"/>
      <point x="377" y="189" type="line"/>
      <point x="471" y="211"/>
      <point x="534" y="275"/>
      <point x="534" y="364" type="curve" smooth="yes"/>
      <point x="534" y="463"/>
      <point x="437" y="549"/>
      <point x="294" y="549" type="curve" smooth="yes"/>
      <point x="167" y="549"/>
      <point x="62" y="474"/>
      <point x="62" y="392" type="curve" smooth="yes"/>
      <point x="62" y="338"/>
      <point x="99" y="291"/>
      <point x="157" y="291" type="curve" smooth="yes"/>
      <point x="178" y="291"/>
      <point x="200" y="296"/>
      <point x="224" y="305" type="curve"/>
      <point x="214" y="334"/>
      <point x="210" y="350"/>
      <point x="210" y="384" type="curve" smooth="yes"/>
      <point x="210" y="434"/>
      <point x="239" y="486"/>
      <point x="294" y="486" type="curve" smooth="yes"/>
      <point x="355" y="486"/>
      <point x="381" y="431"/>
      <point x="381" y="356" type="curve" smooth="yes"/>
      <point x="381" y="275"/>
      <point x="355" y="219"/>
      <point x="286" y="219" type="curve" smooth="yes"/>
      <point x="246" y="219" type="line"/>
      <point x="246" y="152" type="line"/>
      <point x="286" y="152" type="line" smooth="yes"/>
      <point x="360" y="152"/>
      <point x="399" y="94"/>
      <point x="399" y="-25" type="curve" smooth="yes"/>
      <point x="399" y="-134"/>
      <point x="364" y="-190"/>
      <point x="296" y="-190" type="curve" smooth="yes"/>
      <point x="229" y="-190"/>
      <point x="195" y="-133"/>
      <point x="195" y="-58" type="curve" smooth="yes"/>
      <point x="195" y="-6"/>
      <point x="203" y="23"/>
      <point x="221" y="59" type="curve"/>
      <point x="196" y="72"/>
      <point x="175" y="79"/>
      <point x="154" y="79" type="curve" smooth="yes"/>
      <point x="89" y="79"/>
      <point x="42" y="19"/>
      <point x="42" y="-47" type="curve" smooth="yes"/>
      <point x="42" y="-169"/>
      <point x="140" y="-253"/>
    </contour>
  </outline>
</glyph>
<glyph name="zen-georgian" format="2">
  <advance width="648"/>
  <unicode hex="10D6"/>
  <note>
uni10D6
</note>
  <outline>
    <contour>
      <point x="340" y="-13" type="curve" smooth="yes"/>
      <point x="510" y="-13"/>
      <point x="601" y="85"/>
      <point x="601" y="261" type="curve" smooth="yes"/>
      <point x="601" y="420"/>
      <point x="515" y="513"/>
      <point x="386" y="525" type="curve" smooth="yes"/>
      <point x="378" y="526"/>
      <point x="369" y="525"/>
      <point x="365" y="524" type="curve"/>
      <point x="364" y="527" type="line"/>
      <point x="384" y="548"/>
      <point x="395" y="584"/>
      <point x="395" y="618" type="curve" smooth="yes"/>
      <point x="395" y="720"/>
      <point x="298" y="773"/>
      <point x="195" y="773" type="curve" smooth="yes"/>
      <point x="85" y="773"/>
      <point x="-5" y="717"/>
      <point x="-5" y="604" type="curve" smooth="yes"/>
      <point x="-5" y="510"/>
      <point x="57" y="454"/>
      <point x="140" y="442" type="curve"/>
      <point x="140" y="438" type="line"/>
      <point x="101" y="395"/>
      <point x="81" y="336"/>
      <point x="81" y="255" type="curve" smooth="yes"/>
      <point x="81" y="85"/>
      <point x="179" y="-13"/>
    </contour>
    <contour>
      <point x="341" y="50" type="curve" smooth="yes"/>
      <point x="265" y="50"/>
      <point x="236" y="125"/>
      <point x="236" y="261" type="curve" smooth="yes"/>
      <point x="236" y="397"/>
      <point x="265" y="468"/>
      <point x="340" y="468" type="curve" smooth="yes"/>
      <point x="418" y="468"/>
      <point x="446" y="397"/>
      <point x="446" y="261" type="curve" smooth="yes"/>
      <point x="446" y="125"/>
      <point x="418" y="50"/>
    </contour>
    <contour>
      <point x="195" y="500" type="curve" smooth="yes"/>
      <point x="150" y="500"/>
      <point x="134" y="544"/>
      <point x="134" y="609" type="curve" smooth="yes"/>
      <point x="134" y="673"/>
      <point x="150" y="717"/>
      <point x="194" y="717" type="curve" smooth="yes"/>
      <point x="240" y="717"/>
      <point x="256" y="673"/>
      <point x="256" y="609" type="curve" smooth="yes"/>
      <point x="256" y="544"/>
      <point x="240" y="500"/>
    </contour>
  </outline>
</glyph>
<glyph name="tan-georgian" format="2">
  <advance width="898"/>
  <unicode hex="10D7"/>
  <note>
uni10D7
</note>
  <outline>
    <contour>
      <point x="295" y="-13" type="curve" smooth="yes"/>
      <point x="452" y="-13"/>
      <point x="540" y="80"/>
      <point x="540" y="271" type="curve" smooth="yes"/>
      <point x="540" y="339" type="line" smooth="yes"/>
      <point x="540" y="442"/>
      <point x="564" y="486"/>
      <point x="619" y="486" type="curve" smooth="yes"/>
      <point x="674" y="486"/>
      <point x="696" y="407"/>
      <point x="696" y="268" type="curve" smooth="yes"/>
      <point x="696" y="138"/>
      <point x="665" y="58"/>
      <point x="609" y="50" type="curve"/>
      <point x="609" y="13"/>
      <point x="624" y="-9"/>
      <point x="664" y="-9" type="curve" smooth="yes"/>
      <point x="767" y="-9"/>
      <point x="851" y="112"/>
      <point x="851" y="266" type="curve" smooth="yes"/>
      <point x="851" y="455"/>
      <point x="761" y="549"/>
      <point x="632" y="549" type="curve" smooth="yes"/>
      <point x="551" y="549"/>
      <point x="494" y="509"/>
      <point x="469" y="446" type="curve"/>
      <point x="464" y="446" type="line"/>
      <point x="440" y="509"/>
      <point x="369" y="549"/>
      <point x="290" y="549" type="curve" smooth="yes"/>
      <point x="136" y="549"/>
      <point x="47" y="456"/>
      <point x="47" y="268" type="curve" smooth="yes"/>
      <point x="47" y="82"/>
      <point x="136" y="-13"/>
    </contour>
    <contour>
      <point x="296" y="50" type="curve" smooth="yes"/>
      <point x="226" y="50"/>
      <point x="202" y="113"/>
      <point x="202" y="268" type="curve" smooth="yes"/>
      <point x="202" y="423"/>
      <point x="226" y="486"/>
      <point x="296" y="486" type="curve" smooth="yes"/>
      <point x="370" y="486"/>
      <point x="391" y="418"/>
      <point x="391" y="269" type="curve" smooth="yes"/>
      <point x="391" y="124"/>
      <point x="370" y="50"/>
    </contour>
  </outline>
</glyph>
<glyph name="in-georgian" format="2">
  <advance width="601"/>
  <unicode hex="10D8"/>
  <note>
uni10D8
</note>
  <anchor x="301" y="536" name="top"/>
  <outline>
    <contour>
      <point x="217" y="-10" type="curve" smooth="yes"/>
      <point x="251" y="-10"/>
      <point x="266" y="8"/>
      <point x="266" y="29" type="curve"/>
      <point x="209" y="59"/>
      <point x="201" y="170"/>
      <point x="201" y="270" type="curve" smooth="yes"/>
      <point x="201" y="387"/>
      <point x="217" y="485"/>
      <point x="300" y="485" type="curve" smooth="yes"/>
      <point x="382" y="485"/>
      <point x="400" y="391"/>
      <point x="400" y="270" type="curve" smooth="yes"/>
      <point x="400" y="170"/>
      <point x="392" y="59"/>
      <point x="335" y="29" type="curve"/>
      <point x="335" y="8"/>
      <point x="349" y="-10"/>
      <point x="384" y="-10" type="curve" smooth="yes"/>
      <point x="484" y="-10"/>
      <point x="554" y="141"/>
      <point x="554" y="268" type="curve" smooth="yes"/>
      <point x="554" y="442"/>
      <point x="463" y="549"/>
      <point x="300" y="549" type="curve" smooth="yes"/>
      <point x="136" y="549"/>
      <point x="47" y="440"/>
      <point x="47" y="268" type="curve" smooth="yes"/>
      <point x="47" y="138"/>
      <point x="109" y="-10"/>
    </contour>
  </outline>
</glyph>
<glyph name="kan-georgian" format="2">
  <advance width="581"/>
  <unicode hex="10D9"/>
  <note>
uni10D9
</note>
  <outline>
    <contour>
      <point x="286" y="-253" type="curve" smooth="yes"/>
      <point x="443" y="-253"/>
      <point x="539" y="-151"/>
      <point x="539" y="-16" type="curve" smooth="yes"/>
      <point x="539" y="121"/>
      <point x="456" y="187"/>
      <point x="363" y="208" type="curve"/>
      <point x="363" y="213" type="line"/>
      <point x="456" y="230"/>
      <point x="518" y="282"/>
      <point x="518" y="371" type="curve" smooth="yes"/>
      <point x="518" y="467"/>
      <point x="422" y="542"/>
      <point x="273" y="542" type="curve"/>
      <point x="273" y="486" type="line"/>
      <point x="334" y="486"/>
      <point x="365" y="434"/>
      <point x="365" y="363" type="curve" smooth="yes"/>
      <point x="365" y="297"/>
      <point x="340" y="245"/>
      <point x="270" y="245" type="curve" smooth="yes"/>
      <point x="231" y="245" type="line"/>
      <point x="231" y="178" type="line"/>
      <point x="270" y="178" type="line" smooth="yes"/>
      <point x="345" y="178"/>
      <point x="384" y="115"/>
      <point x="384" y="-15" type="curve" smooth="yes"/>
      <point x="384" y="-138"/>
      <point x="351" y="-190"/>
      <point x="286" y="-190" type="curve" smooth="yes"/>
      <point x="222" y="-190"/>
      <point x="189" y="-137"/>
      <point x="189" y="-57" type="curve" smooth="yes"/>
      <point x="189" y="-6"/>
      <point x="198" y="23"/>
      <point x="215" y="58" type="curve"/>
      <point x="192" y="72"/>
      <point x="170" y="78"/>
      <point x="149" y="78" type="curve" smooth="yes"/>
      <point x="84" y="78"/>
      <point x="37" y="19"/>
      <point x="37" y="-47" type="curve" smooth="yes"/>
      <point x="37" y="-169"/>
      <point x="132" y="-253"/>
    </contour>
  </outline>
</glyph>
<glyph name="las-georgian" format="2">
  <advance width="1125"/>
  <unicode hex="10DA"/>
  <note>
uni10DA
</note>
  <outline>
    <contour>
      <point x="863" y="549" type="curve" smooth="yes"/>
      <point x="782" y="549"/>
      <point x="728" y="508"/>
      <point x="705" y="446" type="curve"/>
      <point x="701" y="446" type="line"/>
      <point x="680" y="508"/>
      <point x="633" y="549"/>
      <point x="562" y="549" type="curve" smooth="yes"/>
      <point x="486" y="549"/>
      <point x="444" y="508"/>
      <point x="423" y="446" type="curve"/>
      <point x="419" y="446" type="line"/>
      <point x="397" y="508"/>
      <point x="341" y="549"/>
      <point x="263" y="549" type="curve" smooth="yes"/>
      <point x="131" y="549"/>
      <point x="47" y="451"/>
      <point x="47" y="279" type="curve" smooth="yes"/>
      <point x="47" y="78"/>
      <point x="169" y="-26"/>
      <point x="314" y="-81" type="curve"/>
      <point x="314" y="-85" type="line"/>
      <point x="263" y="-90"/>
      <point x="207" y="-116"/>
      <point x="180" y="-146" type="curve"/>
      <point x="207" y="-185" type="line"/>
      <point x="249" y="-155"/>
      <point x="315" y="-137"/>
      <point x="402" y="-137" type="curve" smooth="yes"/>
      <point x="505" y="-137"/>
      <point x="644" y="-171"/>
      <point x="644" y="-253" type="curve"/>
      <point x="693" y="-253"/>
      <point x="737" y="-238"/>
      <point x="737" y="-192" type="curve" smooth="yes"/>
      <point x="737" y="-118"/>
      <point x="624" y="-66"/>
      <point x="491" y="-39" type="curve" smooth="yes"/>
      <point x="346" y="-10"/>
      <point x="202" y="68"/>
      <point x="202" y="279" type="curve" smooth="yes"/>
      <point x="202" y="409"/>
      <point x="218" y="486"/>
      <point x="281" y="486" type="curve" smooth="yes"/>
      <point x="333" y="486"/>
      <point x="347" y="443"/>
      <point x="347" y="330" type="curve" smooth="yes"/>
      <point x="347" y="179" type="line"/>
      <point x="495" y="179" type="line"/>
      <point x="495" y="330" type="line" smooth="yes"/>
      <point x="495" y="443"/>
      <point x="513" y="486"/>
      <point x="562" y="486" type="curve" smooth="yes"/>
      <point x="610" y="486"/>
      <point x="629" y="443"/>
      <point x="629" y="330" type="curve" smooth="yes"/>
      <point x="629" y="179" type="line"/>
      <point x="777" y="179" type="line"/>
      <point x="777" y="330" type="line" smooth="yes"/>
      <point x="777" y="443"/>
      <point x="794" y="486"/>
      <point x="845" y="486" type="curve" smooth="yes"/>
      <point x="906" y="486"/>
      <point x="923" y="422"/>
      <point x="923" y="275" type="curve" smooth="yes"/>
      <point x="923" y="152"/>
      <point x="899" y="76"/>
      <point x="851" y="59" type="curve"/>
      <point x="851" y="28"/>
      <point x="869" y="6"/>
      <point x="904" y="6" type="curve" smooth="yes"/>
      <point x="1000" y="6"/>
      <point x="1078" y="127"/>
      <point x="1078" y="275" type="curve" smooth="yes"/>
      <point x="1078" y="442"/>
      <point x="1002" y="549"/>
    </contour>
  </outline>
</glyph>
<glyph name="man-georgian" format="2">
  <advance width="619"/>
  <unicode hex="10DB"/>
  <note>
uni10DB
</note>
  <outline>
    <contour>
      <point x="299" y="-13" type="curve" smooth="yes"/>
      <point x="461" y="-13"/>
      <point x="548" y="85"/>
      <point x="548" y="270" type="curve" smooth="yes"/>
      <point x="548" y="545" type="line" smooth="yes"/>
      <point x="548" y="697"/>
      <point x="458" y="773"/>
      <point x="300" y="773" type="curve" smooth="yes"/>
      <point x="168" y="773"/>
      <point x="72" y="722"/>
      <point x="72" y="651" type="curve" smooth="yes"/>
      <point x="72" y="620"/>
      <point x="94" y="588"/>
      <point x="150" y="588" type="curve" smooth="yes"/>
      <point x="171" y="588"/>
      <point x="197" y="590"/>
      <point x="220" y="598" type="curve"/>
      <point x="215" y="609"/>
      <point x="214" y="622"/>
      <point x="214" y="633" type="curve" smooth="yes"/>
      <point x="214" y="678"/>
      <point x="244" y="712"/>
      <point x="300" y="712" type="curve" smooth="yes"/>
      <point x="367" y="712"/>
      <point x="396" y="668"/>
      <point x="396" y="603" type="curve" smooth="yes"/>
      <point x="396" y="559" type="line" smooth="yes"/>
      <point x="396" y="529"/>
      <point x="397" y="487"/>
      <point x="399" y="456" type="curve"/>
      <point x="394" y="456" type="line"/>
      <point x="366" y="500"/>
      <point x="323" y="531"/>
      <point x="248" y="531" type="curve" smooth="yes"/>
      <point x="109" y="531"/>
      <point x="47" y="431"/>
      <point x="47" y="270" type="curve" smooth="yes"/>
      <point x="47" y="86"/>
      <point x="134" y="-13"/>
    </contour>
    <contour>
      <point x="298" y="50" type="curve" smooth="yes"/>
      <point x="227" y="50"/>
      <point x="202" y="118"/>
      <point x="202" y="261" type="curve" smooth="yes"/>
      <point x="202" y="385"/>
      <point x="227" y="458"/>
      <point x="295" y="458" type="curve" smooth="yes"/>
      <point x="377" y="458"/>
      <point x="396" y="370"/>
      <point x="396" y="262" type="curve" smooth="yes"/>
      <point x="396" y="118"/>
      <point x="377" y="50"/>
    </contour>
  </outline>
</glyph>
<glyph name="nar-georgian" format="2">
  <advance width="618"/>
  <unicode hex="10DC"/>
  <note>
uni10DC
</note>
  <outline>
    <contour>
      <point x="321" y="-13" type="curve" smooth="yes"/>
      <point x="485" y="-13"/>
      <point x="571" y="85"/>
      <point x="571" y="270" type="curve" smooth="yes"/>
      <point x="571" y="449"/>
      <point x="509" y="549"/>
      <point x="370" y="549" type="curve" smooth="yes"/>
      <point x="295" y="549"/>
      <point x="252" y="517"/>
      <point x="223" y="473" type="curve"/>
      <point x="218" y="473" type="line"/>
      <point x="221" y="505"/>
      <point x="222" y="550"/>
      <point x="222" y="573" type="curve" smooth="yes"/>
      <point x="222" y="603" type="line" smooth="yes"/>
      <point x="222" y="669"/>
      <point x="254" y="703"/>
      <point x="305" y="703" type="curve" smooth="yes"/>
      <point x="337" y="703"/>
      <point x="359" y="693"/>
      <point x="380" y="682" type="curve" smooth="yes"/>
      <point x="405" y="669"/>
      <point x="432" y="654"/>
      <point x="464" y="654" type="curve" smooth="yes"/>
      <point x="495" y="654"/>
      <point x="531" y="671"/>
      <point x="531" y="718" type="curve" smooth="yes"/>
      <point x="531" y="747"/>
      <point x="513" y="764"/>
      <point x="490" y="773" type="curve"/>
      <point x="471" y="751"/>
      <point x="446" y="747"/>
      <point x="421" y="747" type="curve" smooth="yes"/>
      <point x="399" y="747"/>
      <point x="381" y="750"/>
      <point x="360" y="755" type="curve" smooth="yes"/>
      <point x="339" y="760"/>
      <point x="317" y="762"/>
      <point x="288" y="762" type="curve" smooth="yes"/>
      <point x="164" y="762"/>
      <point x="70" y="696"/>
      <point x="70" y="552" type="curve" smooth="yes"/>
      <point x="70" y="270" type="line" smooth="yes"/>
      <point x="70" y="84"/>
      <point x="160" y="-13"/>
    </contour>
    <contour>
      <point x="321" y="50" type="curve" smooth="yes"/>
      <point x="241" y="50"/>
      <point x="222" y="119"/>
      <point x="222" y="262" type="curve" smooth="yes"/>
      <point x="222" y="389"/>
      <point x="241" y="476"/>
      <point x="324" y="476" type="curve" smooth="yes"/>
      <point x="393" y="476"/>
      <point x="418" y="403"/>
      <point x="418" y="262" type="curve" smooth="yes"/>
      <point x="418" y="119"/>
      <point x="393" y="50"/>
    </contour>
  </outline>
</glyph>
<glyph name="on-georgian" format="2">
  <advance width="863"/>
  <unicode hex="10DD"/>
  <note>
uni10DD
</note>
  <anchor x="432" y="536" name="top"/>
  <outline>
    <contour>
      <point x="219" y="-9" type="curve" smooth="yes"/>
      <point x="261" y="-9"/>
      <point x="274" y="12"/>
      <point x="274" y="44" type="curve"/>
      <point x="225" y="61"/>
      <point x="202" y="135"/>
      <point x="202" y="269" type="curve" smooth="yes"/>
      <point x="202" y="402"/>
      <point x="218" y="485"/>
      <point x="284" y="485" type="curve" smooth="yes"/>
      <point x="337" y="485"/>
      <point x="357" y="439"/>
      <point x="357" y="327" type="curve" smooth="yes"/>
      <point x="357" y="179" type="line"/>
      <point x="505" y="179" type="line"/>
      <point x="505" y="327" type="line" smooth="yes"/>
      <point x="505" y="439"/>
      <point x="524" y="485"/>
      <point x="578" y="485" type="curve" smooth="yes"/>
      <point x="637" y="485"/>
      <point x="661" y="415"/>
      <point x="661" y="269" type="curve" smooth="yes"/>
      <point x="661" y="136"/>
      <point x="637" y="61"/>
      <point x="589" y="45" type="curve"/>
      <point x="589" y="13"/>
      <point x="607" y="-9"/>
      <point x="642" y="-9" type="curve" smooth="yes"/>
      <point x="738" y="-9"/>
      <point x="816" y="111"/>
      <point x="816" y="269" type="curve" smooth="yes"/>
      <point x="816" y="442"/>
      <point x="733" y="549"/>
      <point x="593" y="549" type="curve" smooth="yes"/>
      <point x="512" y="549"/>
      <point x="456" y="508"/>
      <point x="433" y="446" type="curve"/>
      <point x="429" y="446" type="line"/>
      <point x="406" y="508"/>
      <point x="351" y="549"/>
      <point x="271" y="549" type="curve" smooth="yes"/>
      <point x="131" y="549"/>
      <point x="47" y="451"/>
      <point x="47" y="269" type="curve" smooth="yes"/>
      <point x="47" y="112"/>
      <point x="126" y="-9"/>
    </contour>
  </outline>
</glyph>
<glyph name="par-georgian" format="2">
  <advance width="578"/>
  <unicode hex="10DE"/>
  <note>
uni10DE
</note>
  <outline>
    <contour>
      <point x="284" y="-13" type="curve" smooth="yes"/>
      <point x="449" y="-13"/>
      <point x="531" y="78"/>
      <point x="531" y="201" type="curve" smooth="yes"/>
      <point x="531" y="301"/>
      <point x="468" y="368"/>
      <point x="371" y="383" type="curve"/>
      <point x="371" y="387" type="line"/>
      <point x="468" y="406"/>
      <point x="513" y="451"/>
      <point x="513" y="513" type="curve" smooth="yes"/>
      <point x="513" y="583"/>
      <point x="457" y="616"/>
      <point x="407" y="645" type="curve" smooth="yes"/>
      <point x="368" y="668"/>
      <point x="333" y="689"/>
      <point x="333" y="723" type="curve" smooth="yes"/>
      <point x="333" y="734"/>
      <point x="335" y="744"/>
      <point x="340" y="755" type="curve"/>
      <point x="326" y="766"/>
      <point x="309" y="773"/>
      <point x="281" y="773" type="curve" smooth="yes"/>
      <point x="239" y="773"/>
      <point x="204" y="749"/>
      <point x="204" y="704" type="curve" smooth="yes"/>
      <point x="204" y="645"/>
      <point x="246" y="617"/>
      <point x="287" y="590" type="curve" smooth="yes"/>
      <point x="325" y="565"/>
      <point x="359" y="537"/>
      <point x="359" y="491" type="curve" smooth="yes"/>
      <point x="359" y="445"/>
      <point x="328" y="420"/>
      <point x="272" y="420" type="curve" smooth="yes"/>
      <point x="226" y="420" type="line"/>
      <point x="226" y="350" type="line"/>
      <point x="272" y="350" type="line" smooth="yes"/>
      <point x="340" y="350"/>
      <point x="376" y="300"/>
      <point x="376" y="200" type="curve" smooth="yes"/>
      <point x="376" y="92"/>
      <point x="343" y="50"/>
      <point x="283" y="50" type="curve" smooth="yes"/>
      <point x="224" y="50"/>
      <point x="192" y="92"/>
      <point x="192" y="171" type="curve" smooth="yes"/>
      <point x="192" y="207"/>
      <point x="198" y="233"/>
      <point x="211" y="261" type="curve"/>
      <point x="190" y="273"/>
      <point x="164" y="281"/>
      <point x="142" y="281" type="curve" smooth="yes"/>
      <point x="86" y="281"/>
      <point x="42" y="233"/>
      <point x="42" y="167" type="curve" smooth="yes"/>
      <point x="42" y="68"/>
      <point x="134" y="-13"/>
    </contour>
  </outline>
</glyph>
<glyph name="zhar-georgian" format="2">
  <advance width="657"/>
  <unicode hex="10DF"/>
  <note>
uni10DF
</note>
  <outline>
    <contour>
      <point x="336" y="-253" type="curve" smooth="yes"/>
      <point x="494" y="-253"/>
      <point x="586" y="-157"/>
      <point x="586" y="-10" type="curve" smooth="yes"/>
      <point x="586" y="536" type="line"/>
      <point x="434" y="536" type="line"/>
      <point x="369" y="505"/>
      <point x="290" y="485"/>
      <point x="198" y="475" type="curve"/>
      <point x="198" y="411" type="line"/>
      <point x="233" y="398"/>
      <point x="250" y="368"/>
      <point x="250" y="311" type="curve" smooth="yes"/>
      <point x="250" y="262"/>
      <point x="236" y="236"/>
      <point x="205" y="236" type="curve" smooth="yes"/>
      <point x="177" y="236"/>
      <point x="162" y="263"/>
      <point x="162" y="300" type="curve" smooth="yes"/>
      <point x="162" y="315"/>
      <point x="163" y="331"/>
      <point x="166" y="345" type="curve"/>
      <point x="151" y="351"/>
      <point x="132" y="355"/>
      <point x="121" y="355" type="curve" smooth="yes"/>
      <point x="65" y="355"/>
      <point x="42" y="316"/>
      <point x="42" y="283" type="curve" smooth="yes"/>
      <point x="42" y="222"/>
      <point x="103" y="177"/>
      <point x="205" y="177" type="curve" smooth="yes"/>
      <point x="315" y="177"/>
      <point x="373" y="234"/>
      <point x="373" y="313" type="curve" smooth="yes"/>
      <point x="373" y="363"/>
      <point x="337" y="414"/>
      <point x="298" y="427" type="curve"/>
      <point x="298" y="431" type="line"/>
      <point x="347" y="438"/>
      <point x="393" y="451"/>
      <point x="434" y="470" type="curve"/>
      <point x="439" y="470" type="line"/>
      <point x="436" y="433"/>
      <point x="434" y="403"/>
      <point x="434" y="375" type="curve" smooth="yes"/>
      <point x="434" y="-9" type="line" smooth="yes"/>
      <point x="434" y="-138"/>
      <point x="402" y="-190"/>
      <point x="336" y="-190" type="curve" smooth="yes"/>
      <point x="272" y="-190"/>
      <point x="240" y="-137"/>
      <point x="240" y="-58" type="curve" smooth="yes"/>
      <point x="240" y="-6"/>
      <point x="249" y="24"/>
      <point x="266" y="59" type="curve"/>
      <point x="242" y="72"/>
      <point x="220" y="79"/>
      <point x="199" y="79" type="curve" smooth="yes"/>
      <point x="134" y="79"/>
      <point x="88" y="22"/>
      <point x="88" y="-49" type="curve" smooth="yes"/>
      <point x="88" y="-169"/>
      <point x="183" y="-253"/>
    </contour>
  </outline>
</glyph>
<glyph name="rae-georgian" format="2">
  <advance width="861"/>
  <unicode hex="10E0"/>
  <note>
uni10E0
</note>
  <outline>
    <contour>
      <point x="218" y="-9" type="curve" smooth="yes"/>
      <point x="260" y="-9"/>
      <point x="273" y="12"/>
      <point x="273" y="44" type="curve"/>
      <point x="223" y="60"/>
      <point x="200" y="134"/>
      <point x="200" y="269" type="curve" smooth="yes"/>
      <point x="200" y="391"/>
      <point x="216" y="468"/>
      <point x="282" y="468" type="curve" smooth="yes"/>
      <point x="335" y="468"/>
      <point x="354" y="422"/>
      <point x="354" y="316" type="curve" smooth="yes"/>
      <point x="354" y="179" type="line"/>
      <point x="504" y="179" type="line"/>
      <point x="504" y="316" type="line" smooth="yes"/>
      <point x="504" y="422"/>
      <point x="522" y="468"/>
      <point x="576" y="468" type="curve" smooth="yes"/>
      <point x="635" y="468"/>
      <point x="659" y="398"/>
      <point x="659" y="269" type="curve" smooth="yes"/>
      <point x="659" y="136"/>
      <point x="635" y="61"/>
      <point x="587" y="44" type="curve"/>
      <point x="587" y="13"/>
      <point x="604" y="-9"/>
      <point x="640" y="-9" type="curve" smooth="yes"/>
      <point x="737" y="-9"/>
      <point x="814" y="112"/>
      <point x="814" y="269" type="curve" smooth="yes"/>
      <point x="814" y="425"/>
      <point x="730" y="532"/>
      <point x="591" y="532" type="curve" smooth="yes"/>
      <point x="511" y="532"/>
      <point x="455" y="492"/>
      <point x="432" y="429" type="curve"/>
      <point x="427" y="429" type="line"/>
      <point x="405" y="492"/>
      <point x="348" y="532"/>
      <point x="268" y="532" type="curve" smooth="yes"/>
      <point x="215" y="532"/>
      <point x="157" y="508"/>
      <point x="124" y="461" type="curve"/>
      <point x="120" y="461" type="line"/>
      <point x="145" y="553"/>
      <point x="209" y="586"/>
      <point x="374" y="605" type="curve" smooth="yes"/>
      <point x="524" y="622"/>
      <point x="604" y="645"/>
      <point x="605" y="773" type="curve"/>
      <point x="556" y="773" type="line"/>
      <point x="544" y="748"/>
      <point x="494" y="742"/>
      <point x="380" y="731" type="curve" smooth="yes"/>
      <point x="143" y="708"/>
      <point x="47" y="568"/>
      <point x="47" y="344" type="curve" smooth="yes"/>
      <point x="47" y="285" type="line" smooth="yes"/>
      <point x="47" y="112"/>
      <point x="125" y="-9"/>
    </contour>
  </outline>
</glyph>
<glyph name="san-georgian" format="2">
  <advance width="649"/>
  <unicode hex="10E1"/>
  <note>
uni10E1
</note>
  <outline>
    <contour>
      <point x="340" y="-13" type="curve" smooth="yes"/>
      <point x="513" y="-13"/>
      <point x="602" y="87"/>
      <point x="602" y="205" type="curve" smooth="yes"/>
      <point x="602" y="288"/>
      <point x="566" y="332"/>
      <point x="532" y="374" type="curve" smooth="yes"/>
      <point x="507" y="405"/>
      <point x="486" y="436"/>
      <point x="486" y="482" type="curve" smooth="yes"/>
      <point x="486" y="499"/>
      <point x="490" y="515"/>
      <point x="498" y="532" type="curve"/>
      <point x="483" y="542"/>
      <point x="463" y="549"/>
      <point x="433" y="549" type="curve" smooth="yes"/>
      <point x="386" y="549"/>
      <point x="356" y="518"/>
      <point x="356" y="467" type="curve" smooth="yes"/>
      <point x="356" y="403"/>
      <point x="378" y="367"/>
      <point x="400" y="331" type="curve" smooth="yes"/>
      <point x="423" y="293"/>
      <point x="447" y="257"/>
      <point x="447" y="189" type="curve" smooth="yes"/>
      <point x="447" y="106"/>
      <point x="410" y="50"/>
      <point x="342" y="50" type="curve" smooth="yes"/>
      <point x="280" y="50"/>
      <point x="242" y="102"/>
      <point x="242" y="230" type="curve" smooth="yes"/>
      <point x="242" y="760" type="line"/>
      <point x="23" y="760" type="line"/>
      <point x="23" y="707" type="line"/>
      <point x="28" y="707" type="line" smooth="yes"/>
      <point x="77" y="707"/>
      <point x="90" y="688"/>
      <point x="90" y="643" type="curve" smooth="yes"/>
      <point x="90" y="243" type="line" smooth="yes"/>
      <point x="90" y="89"/>
      <point x="171" y="-13"/>
    </contour>
  </outline>
</glyph>
<glyph name="tar-georgian" format="2">
  <advance width="846"/>
  <unicode hex="10E2"/>
  <note>
uni10E2
</note>
  <outline>
    <contour>
      <point x="422" y="-253" type="curve" smooth="yes"/>
      <point x="661" y="-253"/>
      <point x="799" y="-95"/>
      <point x="799" y="151" type="curve" smooth="yes"/>
      <point x="799" y="361"/>
      <point x="688" y="503"/>
      <point x="504" y="535" type="curve"/>
      <point x="504" y="539" type="line"/>
      <point x="540" y="561"/>
      <point x="575" y="599"/>
      <point x="575" y="654" type="curve" smooth="yes"/>
      <point x="575" y="712"/>
      <point x="525" y="773"/>
      <point x="423" y="773" type="curve" smooth="yes"/>
      <point x="322" y="773"/>
      <point x="270" y="712"/>
      <point x="270" y="655" type="curve" smooth="yes"/>
      <point x="270" y="596"/>
      <point x="306" y="561"/>
      <point x="341" y="539" type="curve"/>
      <point x="341" y="535" type="line"/>
      <point x="150" y="504"/>
      <point x="47" y="366"/>
      <point x="47" y="152" type="curve" smooth="yes"/>
      <point x="47" y="-98"/>
      <point x="173" y="-253"/>
    </contour>
    <contour>
      <point x="422" y="-190" type="curve" smooth="yes"/>
      <point x="274" y="-190"/>
      <point x="202" y="-71"/>
      <point x="202" y="151" type="curve" smooth="yes"/>
      <point x="202" y="333"/>
      <point x="239" y="435"/>
      <point x="329" y="474" type="curve"/>
      <point x="329" y="470" type="line"/>
      <point x="296" y="437"/>
      <point x="282" y="402"/>
      <point x="282" y="350" type="curve" smooth="yes"/>
      <point x="282" y="279"/>
      <point x="331" y="222"/>
      <point x="423" y="222" type="curve" smooth="yes"/>
      <point x="514" y="222"/>
      <point x="564" y="280"/>
      <point x="564" y="350" type="curve" smooth="yes"/>
      <point x="564" y="405"/>
      <point x="549" y="438"/>
      <point x="513" y="472" type="curve"/>
      <point x="513" y="475" type="line"/>
      <point x="603" y="436"/>
      <point x="644" y="336"/>
      <point x="644" y="151" type="curve" smooth="yes"/>
      <point x="644" y="-71"/>
      <point x="572" y="-190"/>
    </contour>
    <contour>
      <point x="423" y="276" type="curve" smooth="yes"/>
      <point x="387" y="276"/>
      <point x="369" y="304"/>
      <point x="369" y="357" type="curve" smooth="yes"/>
      <point x="369" y="420"/>
      <point x="387" y="455"/>
      <point x="423" y="483" type="curve"/>
      <point x="458" y="455"/>
      <point x="475" y="420"/>
      <point x="475" y="357" type="curve" smooth="yes"/>
      <point x="475" y="305"/>
      <point x="457" y="276"/>
    </contour>
    <contour>
      <point x="423" y="543" type="curve"/>
      <point x="386" y="571"/>
      <point x="371" y="605"/>
      <point x="371" y="649" type="curve" smooth="yes"/>
      <point x="371" y="695"/>
      <point x="390" y="723"/>
      <point x="422" y="723" type="curve" smooth="yes"/>
      <point x="456" y="723"/>
      <point x="474" y="695"/>
      <point x="474" y="649" type="curve" smooth="yes"/>
      <point x="474" y="605"/>
      <point x="460" y="571"/>
    </contour>
  </outline>
</glyph>
<glyph name="un-georgian" format="2">
  <advance width="702"/>
  <unicode hex="10E3"/>
  <note>
uni10E3
</note>
  <anchor x="351" y="536" name="top"/>
  <outline>
    <contour>
      <point x="341" y="-253" type="curve" smooth="yes"/>
      <point x="545" y="-253"/>
      <point x="636" y="-146"/>
      <point x="636" y="23" type="curve" smooth="yes"/>
      <point x="636" y="347" type="line" smooth="yes"/>
      <point x="636" y="484"/>
      <point x="566" y="549"/>
      <point x="452" y="549" type="curve" smooth="yes"/>
      <point x="390" y="549"/>
      <point x="337" y="525"/>
      <point x="314" y="481" type="curve"/>
      <point x="310" y="481" type="line"/>
      <point x="296" y="524"/>
      <point x="263" y="544"/>
      <point x="221" y="544" type="curve" smooth="yes"/>
      <point x="198" y="544"/>
      <point x="180" y="540"/>
      <point x="165" y="533" type="curve" smooth="yes"/>
      <point x="150" y="526"/>
      <point x="136" y="523"/>
      <point x="118" y="523" type="curve" smooth="yes"/>
      <point x="97" y="523"/>
      <point x="73" y="527"/>
      <point x="53" y="549" type="curve"/>
      <point x="30" y="538"/>
      <point x="14" y="516"/>
      <point x="14" y="483" type="curve" smooth="yes"/>
      <point x="14" y="438"/>
      <point x="53" y="419"/>
      <point x="83" y="419" type="curve" smooth="yes"/>
      <point x="117" y="419"/>
      <point x="138" y="433"/>
      <point x="153" y="450" type="curve" smooth="yes"/>
      <point x="168" y="468"/>
      <point x="182" y="483"/>
      <point x="204" y="483" type="curve" smooth="yes"/>
      <point x="225" y="483"/>
      <point x="235" y="465"/>
      <point x="235" y="436" type="curve" smooth="yes"/>
      <point x="235" y="239" type="line"/>
      <point x="377" y="239" type="line"/>
      <point x="377" y="409" type="line" smooth="yes"/>
      <point x="377" y="460"/>
      <point x="394" y="489"/>
      <point x="428" y="489" type="curve" smooth="yes"/>
      <point x="462" y="489"/>
      <point x="481" y="460"/>
      <point x="481" y="409" type="curve" smooth="yes"/>
      <point x="481" y="-9" type="line" smooth="yes"/>
      <point x="481" y="-122"/>
      <point x="432" y="-190"/>
      <point x="341" y="-190" type="curve" smooth="yes"/>
      <point x="258" y="-190"/>
      <point x="212" y="-134"/>
      <point x="212" y="-45" type="curve" smooth="yes"/>
      <point x="212" y="18"/>
      <point x="225" y="55"/>
      <point x="244" y="91" type="curve"/>
      <point x="219" y="105"/>
      <point x="196" y="111"/>
      <point x="175" y="111" type="curve" smooth="yes"/>
      <point x="108" y="111"/>
      <point x="57" y="42"/>
      <point x="57" y="-37" type="curve" smooth="yes"/>
      <point x="57" y="-166"/>
      <point x="167" y="-253"/>
    </contour>
  </outline>
</glyph>
<glyph name="phar-georgian" format="2">
  <advance width="897"/>
  <unicode hex="10E4"/>
  <note>
uni10E4
</note>
  <outline>
    <contour>
      <point x="544" y="-253" type="curve" smooth="yes"/>
      <point x="733" y="-253"/>
      <point x="841" y="-148"/>
      <point x="841" y="-27" type="curve" smooth="yes"/>
      <point x="841" y="74"/>
      <point x="788" y="139"/>
      <point x="695" y="156" type="curve"/>
      <point x="695" y="160" type="line"/>
      <point x="788" y="182"/>
      <point x="850" y="247"/>
      <point x="850" y="350" type="curve" smooth="yes"/>
      <point x="850" y="462"/>
      <point x="760" y="549"/>
      <point x="634" y="549" type="curve" smooth="yes"/>
      <point x="554" y="549"/>
      <point x="494" y="507"/>
      <point x="469" y="445" type="curve"/>
      <point x="464" y="445" type="line"/>
      <point x="439" y="508"/>
      <point x="369" y="549"/>
      <point x="290" y="549" type="curve" smooth="yes"/>
      <point x="135" y="549"/>
      <point x="47" y="457"/>
      <point x="47" y="305" type="curve" smooth="yes"/>
      <point x="47" y="162"/>
      <point x="136" y="65"/>
      <point x="296" y="65" type="curve" smooth="yes"/>
      <point x="453" y="65"/>
      <point x="541" y="158"/>
      <point x="541" y="307" type="curve" smooth="yes"/>
      <point x="541" y="342" type="line" smooth="yes"/>
      <point x="541" y="443"/>
      <point x="564" y="486"/>
      <point x="617" y="486" type="curve" smooth="yes"/>
      <point x="671" y="486"/>
      <point x="698" y="437"/>
      <point x="698" y="336" type="curve" smooth="yes"/>
      <point x="698" y="247"/>
      <point x="669" y="190"/>
      <point x="600" y="190" type="curve" smooth="yes"/>
      <point x="580" y="190" type="line"/>
      <point x="580" y="123" type="line"/>
      <point x="596" y="123" type="line" smooth="yes"/>
      <point x="650" y="123"/>
      <point x="686" y="66"/>
      <point x="686" y="-29" type="curve" smooth="yes"/>
      <point x="686" y="-128"/>
      <point x="641" y="-190"/>
      <point x="543" y="-190" type="curve" smooth="yes"/>
      <point x="457" y="-190"/>
      <point x="409" y="-137"/>
      <point x="409" y="-71" type="curve" smooth="yes"/>
      <point x="409" y="-59"/>
      <point x="410" y="-46"/>
      <point x="413" y="-34" type="curve"/>
      <point x="395" y="-24"/>
      <point x="368" y="-18"/>
      <point x="346" y="-18" type="curve" smooth="yes"/>
      <point x="300" y="-18"/>
      <point x="258" y="-41"/>
      <point x="258" y="-97" type="curve" smooth="yes"/>
      <point x="258" y="-192"/>
      <point x="388" y="-253"/>
    </contour>
    <contour>
      <point x="297" y="129" type="curve" smooth="yes"/>
      <point x="227" y="129"/>
      <point x="202" y="192"/>
      <point x="202" y="305" type="curve" smooth="yes"/>
      <point x="202" y="423"/>
      <point x="227" y="486"/>
      <point x="297" y="486" type="curve" smooth="yes"/>
      <point x="370" y="486"/>
      <point x="391" y="418"/>
      <point x="391" y="306" type="curve" smooth="yes"/>
      <point x="391" y="203"/>
      <point x="370" y="129"/>
    </contour>
  </outline>
</glyph>
<glyph name="khar-georgian" format="2">
  <advance width="609"/>
  <unicode hex="10E5"/>
  <note>
uni10E5
</note>
  <outline>
    <contour>
      <point x="286" y="-253" type="curve" smooth="yes"/>
      <point x="459" y="-253"/>
      <point x="533" y="-149"/>
      <point x="533" y="0" type="curve" smooth="yes"/>
      <point x="533" y="760" type="line"/>
      <point x="321" y="760" type="line"/>
      <point x="321" y="707" type="line"/>
      <point x="328" y="707" type="line" smooth="yes"/>
      <point x="366" y="707"/>
      <point x="382" y="695"/>
      <point x="382" y="648" type="curve" smooth="yes"/>
      <point x="382" y="583" type="line" smooth="yes"/>
      <point x="382" y="548"/>
      <point x="383" y="504"/>
      <point x="385" y="473" type="curve"/>
      <point x="380" y="473" type="line"/>
      <point x="349" y="521"/>
      <point x="297" y="549"/>
      <point x="235" y="549" type="curve" smooth="yes"/>
      <point x="133" y="549"/>
      <point x="63" y="471"/>
      <point x="63" y="381" type="curve" smooth="yes"/>
      <point x="63" y="310"/>
      <point x="104" y="261"/>
      <point x="162" y="261" type="curve" smooth="yes"/>
      <point x="183" y="261"/>
      <point x="205" y="266"/>
      <point x="228" y="275" type="curve"/>
      <point x="215" y="306"/>
      <point x="210" y="336"/>
      <point x="210" y="371" type="curve" smooth="yes"/>
      <point x="210" y="432"/>
      <point x="239" y="475"/>
      <point x="283" y="475" type="curve" smooth="yes"/>
      <point x="363" y="475"/>
      <point x="382" y="399"/>
      <point x="382" y="284" type="curve" smooth="yes"/>
      <point x="382" y="-5" type="line" smooth="yes"/>
      <point x="382" y="-136"/>
      <point x="355" y="-190"/>
      <point x="286" y="-190" type="curve" smooth="yes"/>
      <point x="218" y="-190"/>
      <point x="194" y="-132"/>
      <point x="194" y="-45" type="curve" smooth="yes"/>
      <point x="194" y="18"/>
      <point x="207" y="55"/>
      <point x="226" y="90" type="curve"/>
      <point x="202" y="104"/>
      <point x="180" y="110"/>
      <point x="159" y="110" type="curve" smooth="yes"/>
      <point x="93" y="110"/>
      <point x="42" y="42"/>
      <point x="42" y="-36" type="curve" smooth="yes"/>
      <point x="42" y="-169"/>
      <point x="131" y="-253"/>
    </contour>
  </outline>
</glyph>
<glyph name="ghan-georgian" format="2">
  <advance width="863"/>
  <unicode hex="10E6"/>
  <note>
uni10E6
</note>
  <outline>
    <contour>
      <point x="540" y="-253" type="curve"/>
      <point x="590" y="-253"/>
      <point x="634" y="-238"/>
      <point x="634" y="-191" type="curve" smooth="yes"/>
      <point x="634" y="-123"/>
      <point x="550" y="-77"/>
      <point x="433" y="-45" type="curve" smooth="yes"/>
      <point x="291" y="-6"/>
      <point x="202" y="80"/>
      <point x="202" y="272" type="curve" smooth="yes"/>
      <point x="202" y="404"/>
      <point x="219" y="486"/>
      <point x="284" y="486" type="curve" smooth="yes"/>
      <point x="338" y="486"/>
      <point x="357" y="441"/>
      <point x="357" y="327" type="curve" smooth="yes"/>
      <point x="357" y="179" type="line"/>
      <point x="506" y="179" type="line"/>
      <point x="506" y="327" type="line" smooth="yes"/>
      <point x="506" y="441"/>
      <point x="525" y="486"/>
      <point x="579" y="486" type="curve" smooth="yes"/>
      <point x="637" y="486"/>
      <point x="661" y="417"/>
      <point x="661" y="269" type="curve" smooth="yes"/>
      <point x="661" y="151"/>
      <point x="637" y="76"/>
      <point x="589" y="60" type="curve"/>
      <point x="589" y="27"/>
      <point x="607" y="6"/>
      <point x="643" y="6" type="curve" smooth="yes"/>
      <point x="739" y="6"/>
      <point x="816" y="127"/>
      <point x="816" y="269" type="curve" smooth="yes"/>
      <point x="816" y="442"/>
      <point x="733" y="549"/>
      <point x="594" y="549" type="curve" smooth="yes"/>
      <point x="513" y="549"/>
      <point x="457" y="509"/>
      <point x="434" y="446" type="curve"/>
      <point x="430" y="446" type="line"/>
      <point x="407" y="509"/>
      <point x="351" y="549"/>
      <point x="270" y="549" type="curve" smooth="yes"/>
      <point x="131" y="549"/>
      <point x="47" y="451"/>
      <point x="47" y="272" type="curve" smooth="yes"/>
      <point x="47" y="91"/>
      <point x="139" y="-23"/>
      <point x="272" y="-81" type="curve"/>
      <point x="272" y="-85" type="line"/>
      <point x="224" y="-91"/>
      <point x="173" y="-115"/>
      <point x="142" y="-141" type="curve"/>
      <point x="168" y="-180" type="line"/>
      <point x="211" y="-151"/>
      <point x="267" y="-137"/>
      <point x="339" y="-137" type="curve" smooth="yes"/>
      <point x="444" y="-137"/>
      <point x="540" y="-171"/>
    </contour>
  </outline>
</glyph>
<glyph name="qar-georgian" format="2">
  <advance width="609"/>
  <unicode hex="10E7"/>
  <note>
uni10E7
</note>
  <outline>
    <contour>
      <point x="290" y="-253" type="curve" smooth="yes"/>
      <point x="444" y="-253"/>
      <point x="538" y="-157"/>
      <point x="538" y="-4" type="curve" smooth="yes"/>
      <point x="538" y="536" type="line"/>
      <point x="386" y="536" type="line"/>
      <point x="386" y="441" type="line" smooth="yes"/>
      <point x="386" y="333"/>
      <point x="365" y="257"/>
      <point x="290" y="257" type="curve" smooth="yes"/>
      <point x="234" y="257"/>
      <point x="206" y="300"/>
      <point x="206" y="403" type="curve" smooth="yes"/>
      <point x="206" y="454"/>
      <point x="216" y="500"/>
      <point x="230" y="530" type="curve"/>
      <point x="206" y="540"/>
      <point x="189" y="546"/>
      <point x="169" y="546" type="curve" smooth="yes"/>
      <point x="110" y="546"/>
      <point x="57" y="480"/>
      <point x="57" y="387" type="curve" smooth="yes"/>
      <point x="57" y="256"/>
      <point x="133" y="183"/>
      <point x="237" y="183" type="curve" smooth="yes"/>
      <point x="301" y="183"/>
      <point x="355" y="211"/>
      <point x="386" y="258" type="curve"/>
      <point x="392" y="258" type="line"/>
      <point x="389" y="212"/>
      <point x="386" y="176"/>
      <point x="386" y="151" type="curve" smooth="yes"/>
      <point x="386" y="-10" type="line" smooth="yes"/>
      <point x="386" y="-136"/>
      <point x="358" y="-190"/>
      <point x="290" y="-190" type="curve" smooth="yes"/>
      <point x="225" y="-190"/>
      <point x="199" y="-137"/>
      <point x="199" y="-57" type="curve" smooth="yes"/>
      <point x="199" y="-6"/>
      <point x="208" y="23"/>
      <point x="225" y="58" type="curve"/>
      <point x="201" y="72"/>
      <point x="179" y="78"/>
      <point x="158" y="78" type="curve" smooth="yes"/>
      <point x="94" y="78"/>
      <point x="47" y="22"/>
      <point x="47" y="-48" type="curve" smooth="yes"/>
      <point x="47" y="-169"/>
      <point x="142" y="-253"/>
    </contour>
  </outline>
</glyph>
<glyph name="shin-georgian" format="2">
  <advance width="648"/>
  <unicode hex="10E8"/>
  <note>
uni10E8
</note>
  <outline>
    <contour>
      <point x="328" y="-13" type="curve" smooth="yes"/>
      <point x="490" y="-13"/>
      <point x="577" y="84"/>
      <point x="577" y="260" type="curve" smooth="yes"/>
      <point x="577" y="559" type="line" smooth="yes"/>
      <point x="577" y="701"/>
      <point x="524" y="773"/>
      <point x="400" y="773" type="curve" smooth="yes"/>
      <point x="339" y="773"/>
      <point x="295" y="751"/>
      <point x="276" y="705" type="curve"/>
      <point x="272" y="705" type="line"/>
      <point x="251" y="751"/>
      <point x="204" y="773"/>
      <point x="147" y="773" type="curve" smooth="yes"/>
      <point x="50" y="773"/>
      <point x="-5" y="727"/>
      <point x="-5" y="657" type="curve" smooth="yes"/>
      <point x="-5" y="601"/>
      <point x="33" y="571"/>
      <point x="80" y="571" type="curve" smooth="yes"/>
      <point x="99" y="571"/>
      <point x="118" y="574"/>
      <point x="135" y="580" type="curve"/>
      <point x="132" y="591"/>
      <point x="127" y="610"/>
      <point x="127" y="638" type="curve" smooth="yes"/>
      <point x="127" y="689"/>
      <point x="138" y="716"/>
      <point x="166" y="716" type="curve" smooth="yes"/>
      <point x="197" y="716"/>
      <point x="207" y="688"/>
      <point x="207" y="635" type="curve" smooth="yes"/>
      <point x="207" y="586" type="line"/>
      <point x="339" y="586" type="line"/>
      <point x="339" y="635" type="line" smooth="yes"/>
      <point x="339" y="682"/>
      <point x="349" y="713"/>
      <point x="381" y="713" type="curve" smooth="yes"/>
      <point x="414" y="713"/>
      <point x="425" y="682"/>
      <point x="425" y="631" type="curve" smooth="yes"/>
      <point x="425" y="549" type="line" smooth="yes"/>
      <point x="425" y="519"/>
      <point x="426" y="468"/>
      <point x="429" y="436" type="curve"/>
      <point x="423" y="436" type="line"/>
      <point x="395" y="480"/>
      <point x="352" y="512"/>
      <point x="278" y="512" type="curve" smooth="yes"/>
      <point x="138" y="512"/>
      <point x="77" y="411"/>
      <point x="77" y="260" type="curve" smooth="yes"/>
      <point x="77" y="86"/>
      <point x="164" y="-13"/>
    </contour>
    <contour>
      <point x="328" y="50" type="curve" smooth="yes"/>
      <point x="258" y="50"/>
      <point x="232" y="119"/>
      <point x="232" y="251" type="curve" smooth="yes"/>
      <point x="232" y="365"/>
      <point x="258" y="438"/>
      <point x="326" y="438" type="curve" smooth="yes"/>
      <point x="406" y="438"/>
      <point x="426" y="351"/>
      <point x="426" y="252" type="curve" smooth="yes"/>
      <point x="426" y="119"/>
      <point x="406" y="50"/>
    </contour>
  </outline>
</glyph>
<glyph name="chin-georgian" format="2">
  <advance width="613"/>
  <unicode hex="10E9"/>
  <note>
uni10E9
</note>
  <outline>
    <contour>
      <point x="396" y="-9" type="curve" smooth="yes"/>
      <point x="498" y="-9"/>
      <point x="566" y="114"/>
      <point x="566" y="250" type="curve"/>
      <point x="566" y="394"/>
      <point x="489" y="474"/>
      <point x="372" y="474" type="curve" smooth="yes"/>
      <point x="301" y="474"/>
      <point x="253" y="437"/>
      <point x="229" y="393" type="curve"/>
      <point x="221" y="393" type="line"/>
      <point x="224" y="429"/>
      <point x="225" y="451"/>
      <point x="225" y="476" type="curve" smooth="yes"/>
      <point x="225" y="493" type="line"/>
      <point x="355" y="532"/>
      <point x="497" y="554"/>
      <point x="497" y="653" type="curve" smooth="yes"/>
      <point x="497" y="737"/>
      <point x="398" y="773"/>
      <point x="296" y="773" type="curve" smooth="yes"/>
      <point x="165" y="773"/>
      <point x="75" y="697"/>
      <point x="75" y="559" type="curve" smooth="yes"/>
      <point x="75" y="0" type="line"/>
      <point x="227" y="0" type="line"/>
      <point x="227" y="245" type="line" smooth="yes"/>
      <point x="227" y="337"/>
      <point x="255" y="389"/>
      <point x="321" y="389" type="curve" smooth="yes"/>
      <point x="375" y="389"/>
      <point x="411" y="350"/>
      <point x="411" y="238" type="curve" smooth="yes"/>
      <point x="411" y="130"/>
      <point x="393" y="61"/>
      <point x="350" y="45" type="curve"/>
      <point x="350" y="14"/>
      <point x="362" y="-9"/>
    </contour>
    <contour>
      <point x="225" y="545" type="curve"/>
      <point x="225" y="616" type="line" smooth="yes"/>
      <point x="225" y="686"/>
      <point x="259" y="711"/>
      <point x="298" y="711" type="curve" smooth="yes"/>
      <point x="334" y="711"/>
      <point x="357" y="690"/>
      <point x="357" y="654" type="curve" smooth="yes"/>
      <point x="357" y="600"/>
      <point x="301" y="568"/>
    </contour>
  </outline>
</glyph>
<glyph name="can-georgian" format="2">
  <advance width="694"/>
  <unicode hex="10EA"/>
  <note>
uni10EA
</note>
  <outline>
    <contour>
      <point x="364" y="-253" type="curve" smooth="yes"/>
      <point x="550" y="-253"/>
      <point x="652" y="-163"/>
      <point x="652" y="-24" type="curve" smooth="yes"/>
      <point x="652" y="97"/>
      <point x="589" y="164"/>
      <point x="492" y="178" type="curve"/>
      <point x="492" y="183" type="line"/>
      <point x="589" y="202"/>
      <point x="634" y="247"/>
      <point x="634" y="309" type="curve" smooth="yes"/>
      <point x="634" y="365"/>
      <point x="595" y="393"/>
      <point x="558" y="418" type="curve" smooth="yes"/>
      <point x="525" y="441"/>
      <point x="493" y="466"/>
      <point x="493" y="500" type="curve" smooth="yes"/>
      <point x="493" y="510"/>
      <point x="495" y="521"/>
      <point x="500" y="531" type="curve"/>
      <point x="486" y="542"/>
      <point x="470" y="549"/>
      <point x="442" y="549" type="curve" smooth="yes"/>
      <point x="400" y="549"/>
      <point x="365" y="525"/>
      <point x="365" y="481" type="curve" smooth="yes"/>
      <point x="365" y="427"/>
      <point x="392" y="400"/>
      <point x="421" y="377" type="curve" smooth="yes"/>
      <point x="453" y="351"/>
      <point x="480" y="328"/>
      <point x="480" y="287" type="curve" smooth="yes"/>
      <point x="480" y="240"/>
      <point x="449" y="216"/>
      <point x="394" y="216" type="curve" smooth="yes"/>
      <point x="348" y="216" type="line"/>
      <point x="348" y="146" type="line"/>
      <point x="381" y="146" type="line" smooth="yes"/>
      <point x="460" y="146"/>
      <point x="497" y="96"/>
      <point x="497" y="-25" type="curve" smooth="yes"/>
      <point x="497" y="-125"/>
      <point x="457" y="-190"/>
      <point x="364" y="-190" type="curve" smooth="yes"/>
      <point x="236" y="-190"/>
      <point x="202" y="-41"/>
      <point x="202" y="156" type="curve" smooth="yes"/>
      <point x="202" y="350"/>
      <point x="244" y="431"/>
      <point x="282" y="503" type="curve"/>
      <point x="210" y="548" type="line"/>
      <point x="127" y="473"/>
      <point x="47" y="359"/>
      <point x="47" y="156" type="curve" smooth="yes"/>
      <point x="47" y="-127"/>
      <point x="165" y="-253"/>
    </contour>
  </outline>
</glyph>
<glyph name="jil-georgian" format="2">
  <advance width="625"/>
  <unicode hex="10EB"/>
  <note>
uni10EB
</note>
  <outline>
    <contour>
      <point x="299" y="-12" type="curve" smooth="yes"/>
      <point x="460" y="-12"/>
      <point x="549" y="83"/>
      <point x="549" y="270" type="curve" smooth="yes"/>
      <point x="549" y="760" type="line"/>
      <point x="336" y="760" type="line"/>
      <point x="336" y="706" type="line"/>
      <point x="343" y="706" type="line" smooth="yes"/>
      <point x="380" y="706"/>
      <point x="397" y="694"/>
      <point x="397" y="646" type="curve" smooth="yes"/>
      <point x="397" y="584" type="line" smooth="yes"/>
      <point x="397" y="550"/>
      <point x="397" y="505"/>
      <point x="400" y="472" type="curve"/>
      <point x="395" y="472" type="line"/>
      <point x="366" y="515"/>
      <point x="324" y="548"/>
      <point x="249" y="548" type="curve" smooth="yes"/>
      <point x="108" y="548"/>
      <point x="47" y="445"/>
      <point x="47" y="271" type="curve" smooth="yes"/>
      <point x="47" y="84"/>
      <point x="137" y="-12"/>
    </contour>
    <contour>
      <point x="299" y="52" type="curve" smooth="yes"/>
      <point x="228" y="52"/>
      <point x="202" y="121"/>
      <point x="202" y="267" type="curve" smooth="yes"/>
      <point x="202" y="402"/>
      <point x="228" y="474"/>
      <point x="296" y="474" type="curve" smooth="yes"/>
      <point x="377" y="474"/>
      <point x="397" y="387"/>
      <point x="397" y="268" type="curve" smooth="yes"/>
      <point x="397" y="121"/>
      <point x="377" y="52"/>
    </contour>
  </outline>
</glyph>
<glyph name="cil-georgian" format="2">
  <advance width="638"/>
  <unicode hex="10EC"/>
  <note>
uni10EC
</note>
  <outline>
    <contour>
      <point x="244" y="-240" type="line"/>
      <point x="382" y="-240" type="line"/>
      <point x="536" y="144" type="line" smooth="yes"/>
      <point x="561" y="206"/>
      <point x="581" y="267"/>
      <point x="581" y="325" type="curve" smooth="yes"/>
      <point x="581" y="436"/>
      <point x="500" y="512"/>
      <point x="381" y="512" type="curve" smooth="yes"/>
      <point x="292" y="512"/>
      <point x="238" y="469"/>
      <point x="215" y="411" type="curve"/>
      <point x="210" y="411" type="line"/>
      <point x="187" y="511" type="line" smooth="yes"/>
      <point x="178" y="550"/>
      <point x="172" y="592"/>
      <point x="172" y="627" type="curve" smooth="yes"/>
      <point x="172" y="677"/>
      <point x="184" y="714"/>
      <point x="217" y="714" type="curve" smooth="yes"/>
      <point x="248" y="714"/>
      <point x="260" y="685"/>
      <point x="260" y="635" type="curve" smooth="yes"/>
      <point x="260" y="586" type="line"/>
      <point x="390" y="586" type="line"/>
      <point x="390" y="635" type="line" smooth="yes"/>
      <point x="390" y="688"/>
      <point x="403" y="716"/>
      <point x="434" y="716" type="curve" smooth="yes"/>
      <point x="463" y="716"/>
      <point x="476" y="690"/>
      <point x="476" y="638" type="curve" smooth="yes"/>
      <point x="476" y="609"/>
      <point x="471" y="585"/>
      <point x="467" y="574" type="curve"/>
      <point x="484" y="569"/>
      <point x="502" y="566"/>
      <point x="521" y="566" type="curve" smooth="yes"/>
      <point x="567" y="566"/>
      <point x="606" y="596"/>
      <point x="606" y="654" type="curve" smooth="yes"/>
      <point x="606" y="727"/>
      <point x="549" y="773"/>
      <point x="454" y="773" type="curve" smooth="yes"/>
      <point x="396" y="773"/>
      <point x="348" y="751"/>
      <point x="327" y="705" type="curve"/>
      <point x="323" y="705" type="line"/>
      <point x="304" y="751"/>
      <point x="260" y="773"/>
      <point x="187" y="773" type="curve" smooth="yes"/>
      <point x="81" y="773"/>
      <point x="20" y="703"/>
      <point x="20" y="589" type="curve" smooth="yes"/>
      <point x="20" y="500"/>
      <point x="48" y="405"/>
      <point x="83" y="291" type="curve" smooth="yes"/>
    </contour>
    <contour>
      <point x="336" y="-150" type="curve"/>
      <point x="329" y="-117"/>
      <point x="320" y="-60"/>
      <point x="310" y="-17" type="curve" smooth="yes"/>
      <point x="260" y="197" type="line" smooth="yes"/>
      <point x="249" y="244"/>
      <point x="244" y="288"/>
      <point x="244" y="328" type="curve" smooth="yes"/>
      <point x="244" y="394"/>
      <point x="274" y="439"/>
      <point x="335" y="439" type="curve" smooth="yes"/>
      <point x="402" y="439"/>
      <point x="423" y="375"/>
      <point x="423" y="314" type="curve" smooth="yes"/>
      <point x="423" y="240"/>
      <point x="412" y="186"/>
      <point x="402" y="143" type="curve" smooth="yes"/>
      <point x="364" y="-15" type="line" smooth="yes"/>
      <point x="353" y="-59"/>
      <point x="342" y="-117"/>
    </contour>
  </outline>
</glyph>
<glyph name="char-georgian" format="2">
  <advance width="663"/>
  <unicode hex="10ED"/>
  <note>
uni10ED
</note>
  <outline>
    <contour>
      <point x="631" y="479" type="curve" smooth="yes"/>
      <point x="631" y="543"/>
      <point x="585" y="586"/>
      <point x="532" y="586" type="curve" smooth="yes"/>
      <point x="523" y="586"/>
      <point x="514" y="584"/>
      <point x="505" y="582" type="curve"/>
      <point x="513" y="548"/>
      <point x="517" y="516"/>
      <point x="517" y="489" type="curve" smooth="yes"/>
      <point x="517" y="399"/>
      <point x="489" y="346"/>
      <point x="446" y="316" type="curve"/>
      <point x="446" y="760" type="line"/>
      <point x="213" y="760" type="line"/>
      <point x="213" y="707" type="line"/>
      <point x="231" y="707" type="line" smooth="yes"/>
      <point x="270" y="707"/>
      <point x="289" y="698"/>
      <point x="289" y="644" type="curve" smooth="yes"/>
      <point x="289" y="508" type="line"/>
      <point x="266" y="530"/>
      <point x="233" y="544"/>
      <point x="191" y="544" type="curve" smooth="yes"/>
      <point x="107" y="544"/>
      <point x="42" y="491"/>
      <point x="42" y="400" type="curve" smooth="yes"/>
      <point x="42" y="291"/>
      <point x="139" y="221"/>
      <point x="296" y="221" type="curve"/>
      <point x="305" y="166"/>
      <point x="337" y="125"/>
      <point x="374" y="86" type="curve" smooth="yes"/>
      <point x="409" y="50"/>
      <point x="439" y="9"/>
      <point x="439" y="-57" type="curve" smooth="yes"/>
      <point x="439" y="-142"/>
      <point x="400" y="-190"/>
      <point x="332" y="-190" type="curve" smooth="yes"/>
      <point x="262" y="-190"/>
      <point x="229" y="-137"/>
      <point x="229" y="-57" type="curve" smooth="yes"/>
      <point x="229" y="-6"/>
      <point x="237" y="23"/>
      <point x="255" y="58" type="curve"/>
      <point x="231" y="72"/>
      <point x="209" y="79"/>
      <point x="188" y="79" type="curve" smooth="yes"/>
      <point x="123" y="79"/>
      <point x="76" y="22"/>
      <point x="76" y="-48" type="curve" smooth="yes"/>
      <point x="76" y="-169"/>
      <point x="172" y="-253"/>
      <point x="332" y="-253" type="curve" smooth="yes"/>
      <point x="484" y="-253"/>
      <point x="594" y="-188"/>
      <point x="594" y="-48" type="curve" smooth="yes"/>
      <point x="594" y="37"/>
      <point x="554" y="87"/>
      <point x="514" y="131" type="curve" smooth="yes"/>
      <point x="478" y="170"/>
      <point x="454" y="200"/>
      <point x="447" y="244" type="curve"/>
      <point x="561" y="283"/>
      <point x="631" y="367"/>
    </contour>
    <contour>
      <point x="180" y="402" type="curve" smooth="yes"/>
      <point x="180" y="459"/>
      <point x="203" y="491"/>
      <point x="235" y="491" type="curve" smooth="yes"/>
      <point x="268" y="491"/>
      <point x="289" y="468"/>
      <point x="289" y="410" type="curve" smooth="yes"/>
      <point x="289" y="282" type="line"/>
      <point x="208" y="287"/>
      <point x="180" y="342"/>
    </contour>
  </outline>
</glyph>
<glyph name="xan-georgian" format="2">
  <advance width="640"/>
  <unicode hex="10EE"/>
  <note>
uni10EE
</note>
  <outline>
    <contour>
      <point x="391" y="548" type="curve" smooth="yes"/>
      <point x="316" y="548"/>
      <point x="274" y="515"/>
      <point x="245" y="472" type="curve"/>
      <point x="240" y="472" type="line"/>
      <point x="243" y="505"/>
      <point x="243" y="550"/>
      <point x="243" y="584" type="curve" smooth="yes"/>
      <point x="243" y="760" type="line"/>
      <point x="23" y="760" type="line"/>
      <point x="23" y="707" type="line"/>
      <point x="27" y="707" type="line" smooth="yes"/>
      <point x="70" y="707"/>
      <point x="91" y="689"/>
      <point x="91" y="649" type="curve"/>
      <point x="91" y="270" type="line" smooth="yes"/>
      <point x="91" y="83"/>
      <point x="180" y="-12"/>
      <point x="341" y="-12" type="curve" smooth="yes"/>
      <point x="503" y="-12"/>
      <point x="593" y="84"/>
      <point x="593" y="271" type="curve" smooth="yes"/>
      <point x="593" y="445"/>
      <point x="532" y="548"/>
    </contour>
    <contour>
      <point x="341" y="52" type="curve" smooth="yes"/>
      <point x="263" y="52"/>
      <point x="243" y="121"/>
      <point x="243" y="268" type="curve" smooth="yes"/>
      <point x="243" y="387"/>
      <point x="263" y="474"/>
      <point x="344" y="474" type="curve" smooth="yes"/>
      <point x="412" y="474"/>
      <point x="438" y="402"/>
      <point x="438" y="267" type="curve" smooth="yes"/>
      <point x="438" y="121"/>
      <point x="412" y="52"/>
    </contour>
  </outline>
</glyph>
<glyph name="jhan-georgian" format="2">
  <advance width="804"/>
  <unicode hex="10EF"/>
  <note>
uni10EF
</note>
  <outline>
    <contour>
      <point x="659" y="231" type="curve" smooth="yes"/>
      <point x="637" y="231"/>
      <point x="613" y="225"/>
      <point x="589" y="215" type="curve"/>
      <point x="601" y="184"/>
      <point x="607" y="157"/>
      <point x="607" y="123" type="curve" smooth="yes"/>
      <point x="607" y="79"/>
      <point x="593" y="51"/>
      <point x="562" y="51" type="curve" smooth="yes"/>
      <point x="531" y="51"/>
      <point x="524" y="79"/>
      <point x="512" y="127" type="curve" smooth="yes"/>
      <point x="481" y="248" type="line"/>
      <point x="614" y="305"/>
      <point x="719" y="357"/>
      <point x="719" y="442" type="curve" smooth="yes"/>
      <point x="719" y="524"/>
      <point x="645" y="549"/>
      <point x="593" y="549" type="curve" smooth="yes"/>
      <point x="537" y="549"/>
      <point x="496" y="526"/>
      <point x="496" y="496" type="curve" smooth="yes"/>
      <point x="496" y="485"/>
      <point x="499" y="476"/>
      <point x="505" y="467" type="curve"/>
      <point x="521" y="477"/>
      <point x="533" y="480"/>
      <point x="547" y="480" type="curve" smooth="yes"/>
      <point x="570" y="480"/>
      <point x="586" y="463"/>
      <point x="586" y="436" type="curve" smooth="yes"/>
      <point x="586" y="388"/>
      <point x="539" y="354"/>
      <point x="463" y="319" type="curve"/>
      <point x="443" y="398" type="line" smooth="yes"/>
      <point x="423" y="476"/>
      <point x="359" y="549"/>
      <point x="236" y="549" type="curve" smooth="yes"/>
      <point x="136" y="549"/>
      <point x="38" y="499"/>
      <point x="38" y="407" type="curve" smooth="yes"/>
      <point x="38" y="352"/>
      <point x="80" y="305"/>
      <point x="141" y="305" type="curve" smooth="yes"/>
      <point x="163" y="305"/>
      <point x="187" y="311"/>
      <point x="211" y="321" type="curve"/>
      <point x="199" y="351"/>
      <point x="193" y="379"/>
      <point x="193" y="412" type="curve" smooth="yes"/>
      <point x="193" y="456"/>
      <point x="206" y="484"/>
      <point x="235" y="484" type="curve" smooth="yes"/>
      <point x="265" y="484"/>
      <point x="273" y="456"/>
      <point x="285" y="409" type="curve" smooth="yes"/>
      <point x="324" y="256" type="line"/>
      <point x="241" y="213"/>
      <point x="185" y="164"/>
      <point x="142" y="84" type="curve"/>
      <point x="142" y="14" type="line"/>
      <point x="175" y="14" type="line" smooth="yes"/>
      <point x="235" y="14"/>
      <point x="260" y="-32"/>
      <point x="260" y="-95" type="curve" smooth="yes"/>
      <point x="260" y="-159"/>
      <point x="242" y="-189"/>
      <point x="206" y="-189" type="curve" smooth="yes"/>
      <point x="172" y="-189"/>
      <point x="155" y="-155"/>
      <point x="155" y="-111" type="curve" smooth="yes"/>
      <point x="155" y="-91"/>
      <point x="156" y="-71"/>
      <point x="162" y="-52" type="curve"/>
      <point x="144" y="-44"/>
      <point x="118" y="-40"/>
      <point x="105" y="-40" type="curve" smooth="yes"/>
      <point x="41" y="-40"/>
      <point x="14" y="-85"/>
      <point x="14" y="-124" type="curve" smooth="yes"/>
      <point x="14" y="-200"/>
      <point x="84" y="-253"/>
      <point x="207" y="-253" type="curve" smooth="yes"/>
      <point x="332" y="-253"/>
      <point x="402" y="-187"/>
      <point x="402" y="-99" type="curve" smooth="yes"/>
      <point x="402" y="-20"/>
      <point x="335" y="58"/>
      <point x="220" y="62" type="curve"/>
      <point x="220" y="66" type="line"/>
      <point x="243" y="110"/>
      <point x="282" y="148"/>
      <point x="342" y="183" type="curve"/>
      <point x="353" y="141" type="line" smooth="yes"/>
      <point x="374" y="59"/>
      <point x="444" y="-13"/>
      <point x="561" y="-13" type="curve" smooth="yes"/>
      <point x="663" y="-13"/>
      <point x="762" y="36"/>
      <point x="762" y="128" type="curve" smooth="yes"/>
      <point x="762" y="183"/>
      <point x="720" y="231"/>
    </contour>
  </outline>
</glyph>
<glyph name="hae-georgian" format="2">
  <advance width="558"/>
  <unicode hex="10F0"/>
  <note>
uni10F0
</note>
  <outline>
    <contour>
      <point x="271" y="-13" type="curve" smooth="yes"/>
      <point x="413" y="-13"/>
      <point x="511" y="43"/>
      <point x="511" y="138" type="curve" smooth="yes"/>
      <point x="511" y="201"/>
      <point x="460" y="251"/>
      <point x="374" y="263" type="curve"/>
      <point x="374" y="267" type="line"/>
      <point x="460" y="278"/>
      <point x="502" y="311"/>
      <point x="502" y="369" type="curve" smooth="yes"/>
      <point x="502" y="427"/>
      <point x="460" y="461"/>
      <point x="374" y="467" type="curve"/>
      <point x="374" y="471" type="line"/>
      <point x="457" y="482"/>
      <point x="493" y="512"/>
      <point x="493" y="561" type="curve" smooth="yes"/>
      <point x="493" y="622"/>
      <point x="430" y="650"/>
      <point x="377" y="673" type="curve" smooth="yes"/>
      <point x="336" y="691"/>
      <point x="307" y="706"/>
      <point x="307" y="732" type="curve" smooth="yes"/>
      <point x="307" y="742"/>
      <point x="308" y="750"/>
      <point x="313" y="760" type="curve"/>
      <point x="299" y="769"/>
      <point x="281" y="773"/>
      <point x="254" y="773" type="curve" smooth="yes"/>
      <point x="211" y="773"/>
      <point x="177" y="751"/>
      <point x="177" y="713" type="curve" smooth="yes"/>
      <point x="177" y="663"/>
      <point x="214" y="639"/>
      <point x="253" y="621" type="curve" smooth="yes"/>
      <point x="300" y="599"/>
      <point x="341" y="580"/>
      <point x="341" y="540" type="curve" smooth="yes"/>
      <point x="341" y="509"/>
      <point x="318" y="494"/>
      <point x="276" y="494" type="curve" smooth="yes"/>
      <point x="223" y="494" type="line"/>
      <point x="223" y="430" type="line"/>
      <point x="261" y="430" type="line" smooth="yes"/>
      <point x="323" y="430"/>
      <point x="349" y="408"/>
      <point x="349" y="367" type="curve" smooth="yes"/>
      <point x="349" y="322"/>
      <point x="323" y="302"/>
      <point x="262" y="302" type="curve" smooth="yes"/>
      <point x="223" y="302" type="line"/>
      <point x="223" y="238" type="line"/>
      <point x="263" y="238" type="line" smooth="yes"/>
      <point x="327" y="238"/>
      <point x="356" y="208"/>
      <point x="356" y="142" type="curve" smooth="yes"/>
      <point x="356" y="85"/>
      <point x="326" y="50"/>
      <point x="271" y="50" type="curve" smooth="yes"/>
      <point x="217" y="50"/>
      <point x="182" y="86"/>
      <point x="182" y="142" type="curve" smooth="yes"/>
      <point x="182" y="155"/>
      <point x="183" y="165"/>
      <point x="187" y="180" type="curve"/>
      <point x="174" y="186"/>
      <point x="154" y="190"/>
      <point x="137" y="190" type="curve" smooth="yes"/>
      <point x="69" y="190"/>
      <point x="42" y="153"/>
      <point x="42" y="114" type="curve" smooth="yes"/>
      <point x="42" y="37"/>
      <point x="128" y="-13"/>
    </contour>
  </outline>
</glyph>
<glyph name="he-georgian" format="2">
  <advance width="697"/>
  <unicode hex="10F1"/>
  <note>
uni10F1
</note>
  <outline>
    <contour>
      <point x="383" y="-13" type="curve" smooth="yes"/>
      <point x="549" y="-13"/>
      <point x="650" y="57"/>
      <point x="650" y="149" type="curve" smooth="yes"/>
      <point x="650" y="209"/>
      <point x="599" y="253"/>
      <point x="514" y="265" type="curve"/>
      <point x="514" y="269" type="line"/>
      <point x="599" y="280"/>
      <point x="642" y="314"/>
      <point x="642" y="368" type="curve" smooth="yes"/>
      <point x="642" y="422"/>
      <point x="599" y="456"/>
      <point x="514" y="462" type="curve"/>
      <point x="514" y="466" type="line"/>
      <point x="597" y="477"/>
      <point x="632" y="508"/>
      <point x="632" y="561" type="curve" smooth="yes"/>
      <point x="632" y="620"/>
      <point x="588" y="648"/>
      <point x="549" y="671" type="curve" smooth="yes"/>
      <point x="519" y="689"/>
      <point x="492" y="708"/>
      <point x="492" y="732" type="curve" smooth="yes"/>
      <point x="492" y="742"/>
      <point x="493" y="750"/>
      <point x="498" y="760" type="curve"/>
      <point x="485" y="769"/>
      <point x="467" y="773"/>
      <point x="440" y="773" type="curve" smooth="yes"/>
      <point x="398" y="773"/>
      <point x="364" y="751"/>
      <point x="364" y="714" type="curve" smooth="yes"/>
      <point x="364" y="664"/>
      <point x="392" y="643"/>
      <point x="425" y="621" type="curve" smooth="yes"/>
      <point x="454" y="601"/>
      <point x="482" y="580"/>
      <point x="482" y="540" type="curve" smooth="yes"/>
      <point x="482" y="505"/>
      <point x="459" y="490"/>
      <point x="417" y="490" type="curve" smooth="yes"/>
      <point x="364" y="490" type="line"/>
      <point x="364" y="426" type="line"/>
      <point x="402" y="426" type="line" smooth="yes"/>
      <point x="465" y="426"/>
      <point x="490" y="405"/>
      <point x="490" y="365" type="curve" smooth="yes"/>
      <point x="490" y="324"/>
      <point x="465" y="304"/>
      <point x="402" y="304" type="curve" smooth="yes"/>
      <point x="364" y="304" type="line"/>
      <point x="364" y="240" type="line"/>
      <point x="404" y="240" type="line" smooth="yes"/>
      <point x="468" y="240"/>
      <point x="497" y="205"/>
      <point x="497" y="149" type="curve" smooth="yes"/>
      <point x="497" y="89"/>
      <point x="457" y="50"/>
      <point x="383" y="50" type="curve" smooth="yes"/>
      <point x="235" y="50"/>
      <point x="202" y="199"/>
      <point x="202" y="390" type="curve" smooth="yes"/>
      <point x="202" y="575"/>
      <point x="244" y="656"/>
      <point x="281" y="729" type="curve"/>
      <point x="210" y="773" type="line"/>
      <point x="127" y="698"/>
      <point x="47" y="578"/>
      <point x="47" y="390" type="curve" smooth="yes"/>
      <point x="47" y="113"/>
      <point x="164" y="-13"/>
    </contour>
  </outline>
</glyph>
<glyph name="hie-georgian" format="2">
  <advance width="613"/>
  <unicode hex="10F2"/>
  <note>
uni10F2
</note>
  <outline>
    <contour>
      <point x="115" y="-13" type="curve" smooth="yes"/>
      <point x="154" y="-13"/>
      <point x="235" y="10"/>
      <point x="306" y="55" type="curve"/>
      <point x="377" y="10"/>
      <point x="456" y="-13"/>
      <point x="496" y="-13" type="curve" smooth="yes"/>
      <point x="545" y="-13"/>
      <point x="562" y="24"/>
      <point x="563" y="66" type="curve"/>
      <point x="506" y="66"/>
      <point x="461" y="72"/>
      <point x="398" y="105" type="curve"/>
      <point x="510" y="159"/>
      <point x="566" y="229"/>
      <point x="566" y="339" type="curve" smooth="yes"/>
      <point x="566" y="454"/>
      <point x="468" y="549"/>
      <point x="308" y="549" type="curve" smooth="yes"/>
      <point x="143" y="549"/>
      <point x="47" y="453"/>
      <point x="47" y="339" type="curve" smooth="yes"/>
      <point x="47" y="235"/>
      <point x="110" y="159"/>
      <point x="218" y="105" type="curve"/>
      <point x="160" y="73"/>
      <point x="110" y="66"/>
      <point x="51" y="66" type="curve"/>
      <point x="51" y="22"/>
      <point x="69" y="-13"/>
    </contour>
    <contour>
      <point x="308" y="157" type="curve"/>
      <point x="239" y="197"/>
      <point x="203" y="268"/>
      <point x="203" y="350" type="curve"/>
      <point x="203" y="424"/>
      <point x="239" y="485"/>
      <point x="306" y="485" type="curve" smooth="yes"/>
      <point x="374" y="485"/>
      <point x="411" y="425"/>
      <point x="411" y="350" type="curve" smooth="yes"/>
      <point x="411" y="271"/>
      <point x="373" y="198"/>
    </contour>
  </outline>
</glyph>
<glyph name="we-georgian" format="2">
  <advance width="596"/>
  <unicode hex="10F3"/>
  <note>
uni10F3
</note>
  <outline>
    <contour>
      <point x="296" y="-253" type="curve" smooth="yes"/>
      <point x="456" y="-253"/>
      <point x="554" y="-148"/>
      <point x="554" y="-23" type="curve" smooth="yes"/>
      <point x="554" y="140"/>
      <point x="453" y="213"/>
      <point x="336" y="221" type="curve"/>
      <point x="527" y="459" type="line"/>
      <point x="527" y="536" type="line"/>
      <point x="99" y="536" type="line"/>
      <point x="86" y="342" type="line"/>
      <point x="142" y="342" type="line"/>
      <point x="149" y="372" type="line"/>
      <point x="160" y="418"/>
      <point x="170" y="434"/>
      <point x="217" y="434" type="curve" smooth="yes"/>
      <point x="411" y="434" type="line"/>
      <point x="231" y="201" type="line"/>
      <point x="231" y="160" type="line"/>
      <point x="262" y="160" type="line" smooth="yes"/>
      <point x="347" y="160"/>
      <point x="399" y="98"/>
      <point x="399" y="-25" type="curve" smooth="yes"/>
      <point x="399" y="-134"/>
      <point x="364" y="-190"/>
      <point x="296" y="-190" type="curve" smooth="yes"/>
      <point x="229" y="-190"/>
      <point x="195" y="-133"/>
      <point x="195" y="-58" type="curve" smooth="yes"/>
      <point x="195" y="-6"/>
      <point x="204" y="23"/>
      <point x="221" y="59" type="curve"/>
      <point x="197" y="72"/>
      <point x="175" y="79"/>
      <point x="154" y="79" type="curve" smooth="yes"/>
      <point x="89" y="79"/>
      <point x="42" y="19"/>
      <point x="42" y="-47" type="curve" smooth="yes"/>
      <point x="42" y="-169"/>
      <point x="140" y="-253"/>
    </contour>
  </outline>
</glyph>
<glyph name="har-georgian" format="2">
  <advance width="580"/>
  <unicode hex="10F4"/>
  <note>
uni10F4
</note>
  <outline>
    <contour>
      <point x="288" y="-253" type="curve" smooth="yes"/>
      <point x="444" y="-253"/>
      <point x="538" y="-157"/>
      <point x="538" y="-18" type="curve" smooth="yes"/>
      <point x="538" y="118"/>
      <point x="455" y="200"/>
      <point x="320" y="208" type="curve"/>
      <point x="518" y="424" type="line"/>
      <point x="518" y="496" type="line"/>
      <point x="324" y="496" type="line" smooth="yes"/>
      <point x="230" y="496"/>
      <point x="179" y="531"/>
      <point x="179" y="610" type="curve" smooth="yes"/>
      <point x="179" y="678"/>
      <point x="215" y="720"/>
      <point x="276" y="720" type="curve" smooth="yes"/>
      <point x="344" y="720"/>
      <point x="373" y="674"/>
      <point x="373" y="587" type="curve"/>
      <point x="438" y="587"/>
      <point x="476" y="606"/>
      <point x="476" y="652" type="curve" smooth="yes"/>
      <point x="476" y="717"/>
      <point x="404" y="773"/>
      <point x="279" y="773" type="curve" smooth="yes"/>
      <point x="152" y="773"/>
      <point x="55" y="706"/>
      <point x="55" y="589" type="curve" smooth="yes"/>
      <point x="55" y="458"/>
      <point x="170" y="397"/>
      <point x="297" y="397" type="curve" smooth="yes"/>
      <point x="399" y="397" type="line"/>
      <point x="211" y="188" type="line"/>
      <point x="211" y="147" type="line"/>
      <point x="243" y="147" type="line" smooth="yes"/>
      <point x="337" y="147"/>
      <point x="383" y="84"/>
      <point x="383" y="-22" type="curve" smooth="yes"/>
      <point x="383" y="-137"/>
      <point x="356" y="-190"/>
      <point x="288" y="-190" type="curve" smooth="yes"/>
      <point x="223" y="-190"/>
      <point x="197" y="-135"/>
      <point x="197" y="-61" type="curve" smooth="yes"/>
      <point x="197" y="-15"/>
      <point x="204" y="15"/>
      <point x="219" y="49" type="curve"/>
      <point x="195" y="63"/>
      <point x="176" y="70"/>
      <point x="156" y="70" type="curve" smooth="yes"/>
      <point x="89" y="70"/>
      <point x="42" y="16"/>
      <point x="42" y="-54" type="curve" smooth="yes"/>
      <point x="42" y="-170"/>
      <point x="137" y="-253"/>
    </contour>
  </outline>
</glyph>
<glyph name="hoe-georgian" format="2">
  <advance width="680"/>
  <unicode hex="10F5"/>
  <note>
uni10F5
</note>
  <outline>
    <contour>
      <point x="299" y="-13" type="curve" smooth="yes"/>
      <point x="466" y="-13"/>
      <point x="550" y="68"/>
      <point x="550" y="223" type="curve" smooth="yes"/>
      <point x="550" y="281" type="line"/>
      <point x="670" y="281" type="line"/>
      <point x="670" y="352" type="line"/>
      <point x="550" y="352" type="line"/>
      <point x="550" y="438" type="line"/>
      <point x="670" y="438" type="line"/>
      <point x="670" y="509" type="line"/>
      <point x="550" y="509" type="line"/>
      <point x="550" y="561" type="line" smooth="yes"/>
      <point x="550" y="701"/>
      <point x="465" y="773"/>
      <point x="299" y="773" type="curve" smooth="yes"/>
      <point x="133" y="773"/>
      <point x="47" y="723"/>
      <point x="47" y="609" type="curve" smooth="yes"/>
      <point x="47" y="491"/>
      <point x="134" y="438"/>
      <point x="313" y="438" type="curve" smooth="yes"/>
      <point x="398" y="438" type="line"/>
      <point x="398" y="352" type="line"/>
      <point x="313" y="352" type="line" smooth="yes"/>
      <point x="135" y="352"/>
      <point x="47" y="293"/>
      <point x="47" y="166" type="curve" smooth="yes"/>
      <point x="47" y="47"/>
      <point x="128" y="-13"/>
    </contour>
    <contour>
      <point x="299" y="50" type="curve" smooth="yes"/>
      <point x="228" y="50"/>
      <point x="202" y="86"/>
      <point x="202" y="164" type="curve" smooth="yes"/>
      <point x="202" y="247"/>
      <point x="237" y="281"/>
      <point x="316" y="281" type="curve" smooth="yes"/>
      <point x="398" y="281" type="line"/>
      <point x="398" y="218" type="line" smooth="yes"/>
      <point x="398" y="96"/>
      <point x="370" y="50"/>
    </contour>
    <contour>
      <point x="316" y="509" type="line" smooth="yes"/>
      <point x="237" y="509"/>
      <point x="202" y="539"/>
      <point x="202" y="611" type="curve" smooth="yes"/>
      <point x="202" y="678"/>
      <point x="228" y="710"/>
      <point x="299" y="710" type="curve" smooth="yes"/>
      <point x="369" y="710"/>
      <point x="398" y="671"/>
      <point x="398" y="564" type="curve" smooth="yes"/>
      <point x="398" y="509" type="line"/>
    </contour>
  </outline>
</glyph>
<glyph name="fi-georgian" format="2">
  <advance width="946"/>
  <unicode hex="10F6"/>
  <note>
uni10F6
</note>
  <outline>
    <contour>
      <point x="330" y="-253" type="curve" smooth="yes"/>
      <point x="474" y="-253"/>
      <point x="549" y="-185"/>
      <point x="549" y="-47" type="curve" smooth="yes"/>
      <point x="549" y="-12" type="line" smooth="yes"/>
      <point x="549" y="28"/>
      <point x="548" y="48"/>
      <point x="546" y="78" type="curve"/>
      <point x="550" y="78" type="line"/>
      <point x="581" y="30"/>
      <point x="625" y="-1"/>
      <point x="697" y="-1" type="curve" smooth="yes"/>
      <point x="827" y="-1"/>
      <point x="899" y="89"/>
      <point x="899" y="270" type="curve" smooth="yes"/>
      <point x="899" y="447"/>
      <point x="827" y="537"/>
      <point x="697" y="537" type="curve" smooth="yes"/>
      <point x="625" y="537"/>
      <point x="581" y="509"/>
      <point x="550" y="460" type="curve"/>
      <point x="546" y="460" type="line"/>
      <point x="547" y="480"/>
      <point x="548" y="502"/>
      <point x="548" y="524" type="curve" smooth="yes"/>
      <point x="548" y="601" type="line" smooth="yes"/>
      <point x="548" y="680"/>
      <point x="567" y="708"/>
      <point x="609" y="708" type="curve" smooth="yes"/>
      <point x="654" y="708"/>
      <point x="666" y="672"/>
      <point x="666" y="615" type="curve"/>
      <point x="741" y="615"/>
      <point x="787" y="637"/>
      <point x="787" y="684" type="curve" smooth="yes"/>
      <point x="787" y="719"/>
      <point x="744" y="773"/>
      <point x="619" y="773" type="curve" smooth="yes"/>
      <point x="472" y="773"/>
      <point x="398" y="700"/>
      <point x="398" y="569" type="curve" smooth="yes"/>
      <point x="398" y="524" type="line"/>
      <point x="398" y="505"/>
      <point x="400" y="483"/>
      <point x="401" y="460" type="curve"/>
      <point x="396" y="460" type="line"/>
      <point x="367" y="508"/>
      <point x="322" y="537"/>
      <point x="247" y="537" type="curve" smooth="yes"/>
      <point x="116" y="537"/>
      <point x="47" y="449"/>
      <point x="47" y="270" type="curve" smooth="yes"/>
      <point x="47" y="86"/>
      <point x="116" y="-1"/>
      <point x="247" y="-1" type="curve" smooth="yes"/>
      <point x="322" y="-1"/>
      <point x="367" y="31"/>
      <point x="396" y="78" type="curve"/>
      <point x="401" y="78" type="line"/>
      <point x="399" y="40"/>
      <point x="396" y="-2"/>
      <point x="396" y="-34" type="curve" smooth="yes"/>
      <point x="396" y="-66" type="line" smooth="yes"/>
      <point x="396" y="-156"/>
      <point x="375" y="-186"/>
      <point x="335" y="-186" type="curve" smooth="yes"/>
      <point x="294" y="-186"/>
      <point x="278" y="-154"/>
      <point x="278" y="-91" type="curve"/>
      <point x="203" y="-91"/>
      <point x="157" y="-119"/>
      <point x="157" y="-167" type="curve" smooth="yes"/>
      <point x="157" y="-221"/>
      <point x="231" y="-253"/>
    </contour>
    <contour>
      <point x="295" y="73" type="curve" smooth="yes"/>
      <point x="229" y="73"/>
      <point x="201" y="138"/>
      <point x="201" y="269" type="curve" smooth="yes"/>
      <point x="201" y="375"/>
      <point x="222" y="463"/>
      <point x="295" y="463" type="curve" smooth="yes"/>
      <point x="371" y="463"/>
      <point x="396" y="400"/>
      <point x="396" y="269" type="curve" smooth="yes"/>
      <point x="396" y="138"/>
      <point x="371" y="73"/>
    </contour>
    <contour>
      <point x="651" y="73" type="curve" smooth="yes"/>
      <point x="577" y="73"/>
      <point x="549" y="146"/>
      <point x="549" y="269" type="curve" smooth="yes"/>
      <point x="549" y="393"/>
      <point x="577" y="463"/>
      <point x="651" y="463" type="curve" smooth="yes"/>
      <point x="717" y="463"/>
      <point x="744" y="393"/>
      <point x="744" y="270" type="curve" smooth="yes"/>
      <point x="744" y="143"/>
      <point x="717" y="73"/>
    </contour>
  </outline>
</glyph>
<glyph name="yn-georgian" format="2">
  <advance width="570"/>
  <unicode hex="10F7"/>
  <note>
uni10F7
</note>
  <anchor x="285" y="536" name="top"/>
  <outline>
    <contour>
      <point x="278" y="-253" type="curve" smooth="yes"/>
      <point x="437" y="-253"/>
      <point x="528" y="-175"/>
      <point x="528" y="-74" type="curve" smooth="yes"/>
      <point x="528" y="-11"/>
      <point x="480" y="44"/>
      <point x="428" y="44" type="curve" smooth="yes"/>
      <point x="408" y="44"/>
      <point x="387" y="38"/>
      <point x="363" y="25" type="curve"/>
      <point x="379" y="-9"/>
      <point x="387" y="-35"/>
      <point x="387" y="-73" type="curve" smooth="yes"/>
      <point x="387" y="-145"/>
      <point x="345" y="-190"/>
      <point x="277" y="-190" type="curve" smooth="yes"/>
      <point x="209" y="-190"/>
      <point x="161" y="-145"/>
      <point x="161" y="-73" type="curve" smooth="yes"/>
      <point x="161" y="9"/>
      <point x="214" y="46"/>
      <point x="312" y="108" type="curve" smooth="yes"/>
      <point x="417" y="174"/>
      <point x="490" y="234"/>
      <point x="490" y="358" type="curve" smooth="yes"/>
      <point x="490" y="466"/>
      <point x="421" y="549"/>
      <point x="289" y="549" type="curve" smooth="yes"/>
      <point x="164" y="549"/>
      <point x="81" y="490"/>
      <point x="81" y="415" type="curve" smooth="yes"/>
      <point x="81" y="361"/>
      <point x="126" y="336"/>
      <point x="161" y="336" type="curve" smooth="yes"/>
      <point x="182" y="336"/>
      <point x="207" y="341"/>
      <point x="224" y="347" type="curve"/>
      <point x="220" y="358"/>
      <point x="215" y="382"/>
      <point x="215" y="410" type="curve" smooth="yes"/>
      <point x="215" y="459"/>
      <point x="246" y="492"/>
      <point x="290" y="492" type="curve" smooth="yes"/>
      <point x="335" y="492"/>
      <point x="369" y="457"/>
      <point x="369" y="393" type="curve" smooth="yes"/>
      <point x="369" y="314"/>
      <point x="316" y="273"/>
      <point x="223" y="213" type="curve" smooth="yes"/>
      <point x="114" y="143"/>
      <point x="42" y="78"/>
      <point x="42" y="-42" type="curve" smooth="yes"/>
      <point x="42" y="-157"/>
      <point x="124" y="-253"/>
    </contour>
  </outline>
</glyph>
<glyph name="elifi-georgian" format="2">
  <advance width="608"/>
  <unicode hex="10F8"/>
  <note>
uni10F8
</note>
  <outline>
    <contour>
      <point x="318" y="-253" type="curve" smooth="yes"/>
      <point x="466" y="-253"/>
      <point x="561" y="-169"/>
      <point x="561" y="-48" type="curve" smooth="yes"/>
      <point x="561" y="22"/>
      <point x="514" y="78"/>
      <point x="450" y="78" type="curve" smooth="yes"/>
      <point x="429" y="78"/>
      <point x="407" y="72"/>
      <point x="383" y="58" type="curve"/>
      <point x="400" y="23"/>
      <point x="409" y="-6"/>
      <point x="409" y="-57" type="curve" smooth="yes"/>
      <point x="409" y="-137"/>
      <point x="383" y="-190"/>
      <point x="318" y="-190" type="curve" smooth="yes"/>
      <point x="250" y="-190"/>
      <point x="222" y="-136"/>
      <point x="222" y="-10" type="curve" smooth="yes"/>
      <point x="222" y="151" type="line" smooth="yes"/>
      <point x="222" y="176"/>
      <point x="219" y="212"/>
      <point x="216" y="258" type="curve"/>
      <point x="222" y="258" type="line"/>
      <point x="253" y="211"/>
      <point x="307" y="183"/>
      <point x="371" y="183" type="curve" smooth="yes"/>
      <point x="475" y="183"/>
      <point x="551" y="256"/>
      <point x="551" y="387" type="curve" smooth="yes"/>
      <point x="551" y="480"/>
      <point x="498" y="546"/>
      <point x="439" y="546" type="curve" smooth="yes"/>
      <point x="419" y="546"/>
      <point x="402" y="540"/>
      <point x="378" y="530" type="curve"/>
      <point x="392" y="500"/>
      <point x="402" y="454"/>
      <point x="402" y="403" type="curve" smooth="yes"/>
      <point x="402" y="300"/>
      <point x="374" y="257"/>
      <point x="318" y="257" type="curve" smooth="yes"/>
      <point x="243" y="257"/>
      <point x="222" y="333"/>
      <point x="222" y="441" type="curve" smooth="yes"/>
      <point x="222" y="536" type="line"/>
      <point x="70" y="536" type="line"/>
      <point x="70" y="-4" type="line" smooth="yes"/>
      <point x="70" y="-157"/>
      <point x="164" y="-253"/>
    </contour>
  </outline>
</glyph>
<glyph name="turnedgan-georgian" format="2">
  <advance width="613"/>
  <unicode hex="10F9"/>
  <note>
uni10F9
</note>
  <outline>
    <contour>
      <point x="308" y="549" type="curve" smooth="yes"/>
      <point x="142" y="549"/>
      <point x="47" y="457"/>
      <point x="47" y="266" type="curve" smooth="yes"/>
      <point x="47" y="117"/>
      <point x="115" y="30"/>
      <point x="220" y="4" type="curve"/>
      <point x="220" y="0" type="line"/>
      <point x="153" y="-22"/>
      <point x="118" y="-71"/>
      <point x="118" y="-115" type="curve" smooth="yes"/>
      <point x="118" y="-203"/>
      <point x="212" y="-253"/>
      <point x="318" y="-253" type="curve" smooth="yes"/>
      <point x="438" y="-253"/>
      <point x="518" y="-200"/>
      <point x="518" y="-135" type="curve" smooth="yes"/>
      <point x="518" y="-85"/>
      <point x="476" y="-65"/>
      <point x="430" y="-65" type="curve" smooth="yes"/>
      <point x="411" y="-65"/>
      <point x="381" y="-69"/>
      <point x="365" y="-75" type="curve"/>
      <point x="369" y="-86"/>
      <point x="374" y="-106"/>
      <point x="374" y="-128" type="curve" smooth="yes"/>
      <point x="374" y="-167"/>
      <point x="355" y="-196"/>
      <point x="318" y="-196" type="curve" smooth="yes"/>
      <point x="280" y="-196"/>
      <point x="261" y="-167"/>
      <point x="261" y="-118" type="curve" smooth="yes"/>
      <point x="261" y="-66"/>
      <point x="278" y="-25"/>
      <point x="360" y="-8" type="curve" smooth="yes"/>
      <point x="494" y="20"/>
      <point x="566" y="98"/>
      <point x="566" y="266" type="curve" smooth="yes"/>
      <point x="566" y="457"/>
      <point x="468" y="549"/>
    </contour>
    <contour>
      <point x="306" y="486" type="curve" smooth="yes"/>
      <point x="383" y="486"/>
      <point x="411" y="411"/>
      <point x="411" y="266" type="curve" smooth="yes"/>
      <point x="411" y="123"/>
      <point x="384" y="50"/>
      <point x="307" y="50" type="curve" smooth="yes"/>
      <point x="230" y="50"/>
      <point x="202" y="123"/>
      <point x="202" y="266" type="curve" smooth="yes"/>
      <point x="202" y="411"/>
      <point x="229" y="486"/>
    </contour>
  </outline>
</glyph>
<glyph name="ain-georgian" format="2">
  <advance width="532"/>
  <unicode hex="10FA"/>
  <note>
uni10FA
</note>
  <outline>
    <contour>
      <point x="108" y="-101" type="line"/>
      <point x="487" y="54" type="line"/>
      <point x="487" y="126" type="line"/>
      <point x="436" y="96"/>
      <point x="386" y="74"/>
      <point x="331" y="74" type="curve" smooth="yes"/>
      <point x="236" y="74"/>
      <point x="201" y="142"/>
      <point x="201" y="277" type="curve" smooth="yes"/>
      <point x="201" y="444"/>
      <point x="238" y="488"/>
      <point x="293" y="488" type="curve" smooth="yes"/>
      <point x="346" y="488"/>
      <point x="361" y="428"/>
      <point x="361" y="359" type="curve"/>
      <point x="465" y="359"/>
      <point x="490" y="401"/>
      <point x="490" y="444" type="curve" smooth="yes"/>
      <point x="490" y="503"/>
      <point x="420" y="549"/>
      <point x="292" y="549" type="curve" smooth="yes"/>
      <point x="154" y="549"/>
      <point x="47" y="475"/>
      <point x="47" y="276" type="curve" smooth="yes"/>
      <point x="47" y="116"/>
      <point x="130" y="28"/>
      <point x="223" y="10" type="curve"/>
      <point x="108" y="-35" type="line"/>
    </contour>
  </outline>
</glyph>
<glyph name="paragraph-georgian" format="2">
  <advance width="584"/>
  <unicode hex="10FB"/>
  <note>
uni10FB
</note>
  <outline>
    <contour>
      <point x="442" y="189" type="curve" smooth="yes"/>
      <point x="494" y="189"/>
      <point x="524" y="216"/>
      <point x="524" y="269" type="curve" smooth="yes"/>
      <point x="524" y="322"/>
      <point x="497" y="349"/>
      <point x="442" y="349" type="curve" smooth="yes"/>
      <point x="387" y="349"/>
      <point x="360" y="322"/>
      <point x="360" y="269" type="curve" smooth="yes"/>
      <point x="360" y="216"/>
      <point x="387" y="189"/>
    </contour>
    <contour>
      <point x="152" y="-8" type="curve" smooth="yes"/>
      <point x="205" y="-8"/>
      <point x="234" y="20"/>
      <point x="234" y="72" type="curve" smooth="yes"/>
      <point x="234" y="125"/>
      <point x="207" y="152"/>
      <point x="152" y="152" type="curve" smooth="yes"/>
      <point x="97" y="152"/>
      <point x="70" y="125"/>
      <point x="70" y="72" type="curve" smooth="yes"/>
      <point x="70" y="19"/>
      <point x="97" y="-8"/>
    </contour>
    <contour>
      <point x="152" y="385" type="curve" smooth="yes"/>
      <point x="204" y="385"/>
      <point x="234" y="412"/>
      <point x="234" y="465" type="curve" smooth="yes"/>
      <point x="234" y="518"/>
      <point x="207" y="545"/>
      <point x="152" y="545" type="curve" smooth="yes"/>
      <point x="97" y="545"/>
      <point x="70" y="518"/>
      <point x="70" y="465" type="curve" smooth="yes"/>
      <point x="70" y="412"/>
      <point x="97" y="385"/>
    </contour>
  </outline>
</glyph>
<glyph name="narMod-georgian" format="2">
  <advance width="371"/>
  <unicode hex="10FC"/>
  <note>
uni10FC
</note>
  <outline>
    <contour>
      <point x="193" y="381" type="curve" smooth="yes"/>
      <point x="299" y="381"/>
      <point x="351" y="446"/>
      <point x="351" y="542" type="curve" smooth="yes"/>
      <point x="351" y="638"/>
      <point x="319" y="698"/>
      <point x="228" y="698" type="curve" smooth="yes"/>
      <point x="186" y="698"/>
      <point x="168" y="681"/>
      <point x="153" y="658" type="curve"/>
      <point x="150" y="658" type="line"/>
      <point x="151" y="676"/>
      <point x="151" y="695"/>
      <point x="151" y="707" type="curve" smooth="yes"/>
      <point x="151" y="724" type="line" smooth="yes"/>
      <point x="151" y="755"/>
      <point x="159" y="774"/>
      <point x="190" y="774" type="curve" smooth="yes"/>
      <point x="233" y="774"/>
      <point x="235" y="740"/>
      <point x="280" y="740" type="curve" smooth="yes"/>
      <point x="307" y="740"/>
      <point x="329" y="757"/>
      <point x="329" y="785" type="curve" smooth="yes"/>
      <point x="329" y="806"/>
      <point x="318" y="818"/>
      <point x="306" y="824" type="curve"/>
      <point x="292" y="813"/>
      <point x="276" y="809"/>
      <point x="259" y="809" type="curve" smooth="yes"/>
      <point x="230" y="809"/>
      <point x="209" y="820"/>
      <point x="170" y="820" type="curve" smooth="yes"/>
      <point x="91" y="820"/>
      <point x="33" y="782"/>
      <point x="33" y="696" type="curve" smooth="yes"/>
      <point x="33" y="542" type="line" smooth="yes"/>
      <point x="33" y="445"/>
      <point x="85" y="381"/>
    </contour>
    <contour>
      <point x="193" y="419" type="curve" smooth="yes"/>
      <point x="159" y="419"/>
      <point x="151" y="452"/>
      <point x="151" y="535" type="curve" smooth="yes"/>
      <point x="151" y="617"/>
      <point x="159" y="655"/>
      <point x="194" y="655" type="curve" smooth="yes"/>
      <point x="222" y="655"/>
      <point x="234" y="620"/>
      <point x="234" y="535" type="curve" smooth="yes"/>
      <point x="234" y="452"/>
      <point x="223" y="419"/>
    </contour>
  </outline>
</glyph>
<glyph name="aen-georgian" format="2">
  <advance width="570"/>
  <unicode hex="10FD"/>
  <outline>
    <contour>
      <point x="292" y="-13" type="curve" smooth="yes"/>
      <point x="445" y="-13"/>
      <point x="528" y="83"/>
      <point x="528" y="198" type="curve" smooth="yes"/>
      <point x="528" y="318"/>
      <point x="457" y="381"/>
      <point x="347" y="451" type="curve" smooth="yes"/>
      <point x="253" y="511"/>
      <point x="202" y="549"/>
      <point x="202" y="623" type="curve" smooth="yes"/>
      <point x="202" y="682"/>
      <point x="233" y="716"/>
      <point x="278" y="716" type="curve" smooth="yes"/>
      <point x="322" y="716"/>
      <point x="353" y="689"/>
      <point x="353" y="640" type="curve" smooth="yes"/>
      <point x="353" y="612"/>
      <point x="348" y="588"/>
      <point x="344" y="577" type="curve"/>
      <point x="361" y="570"/>
      <point x="385" y="566"/>
      <point x="407" y="566" type="curve" smooth="yes"/>
      <point x="442" y="566"/>
      <point x="487" y="591"/>
      <point x="487" y="645" type="curve" smooth="yes"/>
      <point x="487" y="714"/>
      <point x="403" y="773"/>
      <point x="279" y="773" type="curve" smooth="yes"/>
      <point x="151" y="773"/>
      <point x="76" y="696"/>
      <point x="76" y="594" type="curve" smooth="yes"/>
      <point x="76" y="475"/>
      <point x="153" y="412"/>
      <point x="259" y="346" type="curve" smooth="yes"/>
      <point x="357" y="285"/>
      <point x="409" y="249"/>
      <point x="409" y="167" type="curve" smooth="yes"/>
      <point x="409" y="95"/>
      <point x="361" y="50"/>
      <point x="292" y="50" type="curve" smooth="yes"/>
      <point x="224" y="50"/>
      <point x="183" y="95"/>
      <point x="183" y="167" type="curve" smooth="yes"/>
      <point x="183" y="205"/>
      <point x="191" y="231"/>
      <point x="206" y="265" type="curve"/>
      <point x="183" y="278"/>
      <point x="161" y="284"/>
      <point x="142" y="284" type="curve" smooth="yes"/>
      <point x="90" y="284"/>
      <point x="42" y="229"/>
      <point x="42" y="166" type="curve" smooth="yes"/>
      <point x="42" y="65"/>
      <point x="133" y="-13"/>
    </contour>
  </outline>
</glyph>
<glyph name="hardsign-georgian" format="2">
  <advance width="613"/>
  <unicode hex="10FE"/>
  <outline>
    <contour>
      <point x="115" y="549" type="curve" smooth="yes"/>
      <point x="69" y="549"/>
      <point x="51" y="514"/>
      <point x="51" y="470" type="curve"/>
      <point x="110" y="470"/>
      <point x="160" y="463"/>
      <point x="218" y="431" type="curve"/>
      <point x="110" y="377"/>
      <point x="47" y="301"/>
      <point x="47" y="197" type="curve" smooth="yes"/>
      <point x="47" y="83"/>
      <point x="143" y="-13"/>
      <point x="308" y="-13" type="curve" smooth="yes"/>
      <point x="468" y="-13"/>
      <point x="566" y="82"/>
      <point x="566" y="197" type="curve" smooth="yes"/>
      <point x="566" y="307"/>
      <point x="510" y="377"/>
      <point x="398" y="431" type="curve"/>
      <point x="461" y="464"/>
      <point x="506" y="470"/>
      <point x="563" y="470" type="curve"/>
      <point x="562" y="512"/>
      <point x="545" y="549"/>
      <point x="496" y="549" type="curve" smooth="yes"/>
      <point x="456" y="549"/>
      <point x="377" y="526"/>
      <point x="306" y="481" type="curve"/>
      <point x="235" y="526"/>
      <point x="154" y="549"/>
    </contour>
    <contour>
      <point x="308" y="379" type="curve"/>
      <point x="373" y="338"/>
      <point x="411" y="265"/>
      <point x="411" y="186" type="curve" smooth="yes"/>
      <point x="411" y="111"/>
      <point x="374" y="51"/>
      <point x="306" y="51" type="curve" smooth="yes"/>
      <point x="239" y="51"/>
      <point x="203" y="112"/>
      <point x="203" y="186" type="curve"/>
      <point x="203" y="268"/>
      <point x="239" y="339"/>
    </contour>
  </outline>
</glyph>
<glyph name="labial-georgian" format="2">
  <advance width="613"/>
  <unicode hex="10FF"/>
  <outline>
    <contour>
      <point x="305" y="-10" type="curve" smooth="yes"/>
      <point x="476" y="-10"/>
      <point x="566" y="82"/>
      <point x="566" y="270" type="curve" smooth="yes"/>
      <point x="566" y="458"/>
      <point x="468" y="549"/>
      <point x="308" y="549" type="curve" smooth="yes"/>
      <point x="136" y="549"/>
      <point x="47" y="458"/>
      <point x="47" y="270" type="curve" smooth="yes"/>
      <point x="47" y="82"/>
      <point x="145" y="-10"/>
    </contour>
    <contour>
      <point x="307" y="53" type="curve" smooth="yes"/>
      <point x="230" y="53"/>
      <point x="202" y="128"/>
      <point x="202" y="270" type="curve" smooth="yes"/>
      <point x="202" y="413"/>
      <point x="229" y="485"/>
      <point x="306" y="485" type="curve" smooth="yes"/>
      <point x="383" y="485"/>
      <point x="411" y="413"/>
      <point x="411" y="270" type="curve" smooth="yes"/>
      <point x="411" y="128"/>
      <point x="384" y="53"/>
    </contour>
  </outline>
</glyph>
<glyph name="An-georgian" format="2">
  <advance width="615"/>
  <unicode hex="1C90"/>
  <anchor x="313" y="714" name="top"/>
  <outline>
    <contour>
      <point x="304" y="-10" type="curve" smooth="yes"/>
      <point x="449" y="-10"/>
      <point x="563" y="73"/>
      <point x="563" y="224" type="curve" smooth="yes"/>
      <point x="563" y="337"/>
      <point x="499" y="404"/>
      <point x="453" y="466" type="curve" smooth="yes"/>
      <point x="417" y="514"/>
      <point x="381" y="563"/>
      <point x="381" y="637" type="curve" smooth="yes"/>
      <point x="381" y="662"/>
      <point x="386" y="686"/>
      <point x="396" y="703" type="curve"/>
      <point x="382" y="714"/>
      <point x="358" y="725"/>
      <point x="328" y="725" type="curve" smooth="yes"/>
      <point x="273" y="725"/>
      <point x="228" y="689"/>
      <point x="228" y="623" type="curve" smooth="yes"/>
      <point x="228" y="534"/>
      <point x="273" y="468"/>
      <point x="317" y="409" type="curve" smooth="yes"/>
      <point x="358" y="354"/>
      <point x="398" y="296"/>
      <point x="398" y="209" type="curve" smooth="yes"/>
      <point x="398" y="107"/>
      <point x="368" y="54"/>
      <point x="304" y="54" type="curve" smooth="yes"/>
      <point x="247" y="54"/>
      <point x="210" y="106"/>
      <point x="210" y="209" type="curve" smooth="yes"/>
      <point x="210" y="263"/>
      <point x="221" y="306"/>
      <point x="238" y="341" type="curve"/>
      <point x="215" y="355"/>
      <point x="187" y="362"/>
      <point x="162" y="362" type="curve" smooth="yes"/>
      <point x="100" y="362"/>
      <point x="46" y="302"/>
      <point x="46" y="213" type="curve" smooth="yes"/>
      <point x="46" y="75"/>
      <point x="148" y="-10"/>
    </contour>
  </outline>
</glyph>
<glyph name="Ban-georgian" format="2">
  <advance width="645"/>
  <unicode hex="1C91"/>
  <outline>
    <contour>
      <point x="320" y="-10" type="curve" smooth="yes"/>
      <point x="497" y="-10"/>
      <point x="593" y="76"/>
      <point x="593" y="254" type="curve" smooth="yes"/>
      <point x="593" y="423"/>
      <point x="492" y="515"/>
      <point x="322" y="515" type="curve" smooth="yes"/>
      <point x="156" y="515"/>
      <point x="52" y="426"/>
      <point x="52" y="254" type="curve" smooth="yes"/>
      <point x="52" y="77"/>
      <point x="155" y="-10"/>
    </contour>
    <contour>
      <point x="323" y="52" type="curve" smooth="yes"/>
      <point x="243" y="52"/>
      <point x="217" y="121"/>
      <point x="217" y="254" type="curve" smooth="yes"/>
      <point x="217" y="387"/>
      <point x="242" y="454"/>
      <point x="321" y="454" type="curve" smooth="yes"/>
      <point x="402" y="454"/>
      <point x="428" y="386"/>
      <point x="428" y="254" type="curve" smooth="yes"/>
      <point x="428" y="121"/>
      <point x="403" y="52"/>
    </contour>
    <contour>
      <point x="261" y="488" type="curve"/>
      <point x="403" y="489" type="line"/>
      <point x="420" y="511"/>
      <point x="426" y="533"/>
      <point x="426" y="551" type="curve" smooth="yes"/>
      <point x="426" y="624"/>
      <point x="328" y="628"/>
      <point x="328" y="678" type="curve" smooth="yes"/>
      <point x="328" y="687"/>
      <point x="331" y="698"/>
      <point x="336" y="707" type="curve"/>
      <point x="321" y="718"/>
      <point x="303" y="725"/>
      <point x="268" y="725" type="curve" smooth="yes"/>
      <point x="219" y="725"/>
      <point x="178" y="702"/>
      <point x="178" y="659" type="curve" smooth="yes"/>
      <point x="178" y="585"/>
      <point x="274" y="590"/>
      <point x="274" y="533" type="curve" smooth="yes"/>
      <point x="274" y="520"/>
      <point x="271" y="506"/>
    </contour>
  </outline>
</glyph>
<glyph name="Gan-georgian" format="2">
  <advance width="633"/>
  <unicode hex="1C92"/>
  <outline>
    <contour>
      <point x="314" y="-10" type="curve" smooth="yes"/>
      <point x="484" y="-10"/>
      <point x="587" y="76"/>
      <point x="587" y="248" type="curve" smooth="yes"/>
      <point x="587" y="374"/>
      <point x="526" y="465"/>
      <point x="413" y="489" type="curve"/>
      <point x="413" y="493" type="line"/>
      <point x="480" y="506"/>
      <point x="526" y="551"/>
      <point x="526" y="595" type="curve" smooth="yes"/>
      <point x="526" y="681"/>
      <point x="429" y="725"/>
      <point x="312" y="725" type="curve" smooth="yes"/>
      <point x="192" y="725"/>
      <point x="97" y="677"/>
      <point x="97" y="614" type="curve" smooth="yes"/>
      <point x="97" y="564"/>
      <point x="140" y="540"/>
      <point x="188" y="540" type="curve" smooth="yes"/>
      <point x="217" y="540"/>
      <point x="246" y="551"/>
      <point x="263" y="560" type="curve"/>
      <point x="259" y="571"/>
      <point x="254" y="589"/>
      <point x="254" y="609" type="curve" smooth="yes"/>
      <point x="254" y="640"/>
      <point x="276" y="667"/>
      <point x="311" y="667" type="curve" smooth="yes"/>
      <point x="349" y="667"/>
      <point x="369" y="639"/>
      <point x="369" y="599" type="curve" smooth="yes"/>
      <point x="369" y="541"/>
      <point x="339" y="512"/>
      <point x="260" y="500" type="curve" smooth="yes"/>
      <point x="127" y="480"/>
      <point x="46" y="397"/>
      <point x="46" y="247" type="curve" smooth="yes"/>
      <point x="46" y="76"/>
      <point x="149" y="-10"/>
    </contour>
    <contour>
      <point x="317" y="52" type="curve" smooth="yes"/>
      <point x="237" y="52"/>
      <point x="211" y="116"/>
      <point x="211" y="247" type="curve" smooth="yes"/>
      <point x="211" y="378"/>
      <point x="236" y="444"/>
      <point x="316" y="444" type="curve" smooth="yes"/>
      <point x="396" y="444"/>
      <point x="422" y="377"/>
      <point x="422" y="247" type="curve" smooth="yes"/>
      <point x="422" y="117"/>
      <point x="397" y="52"/>
    </contour>
  </outline>
</glyph>
